<?xml version="1.0" standalone="no"?>
<!DOCTYPE svg PUBLIC "-//W3C//DTD SVG 1.1//EN" "http://www.w3.org/Graphics/SVG/1.1/DTD/svg11.dtd" >
<svg xmlns="http://www.w3.org/2000/svg" xmlns:xlink="http://www.w3.org/1999/xlink" version="1.1">
<metadata></metadata>
<defs>
<font id="drake_neueregular" horiz-adv-x="1228" >
<font-face units-per-em="2048" ascent="1638" descent="-410" />
<missing-glyph horiz-adv-x="500" />
<glyph horiz-adv-x="0" />
<glyph horiz-adv-x="682" />
<glyph unicode=" " />
<glyph unicode="A" />
<glyph unicode="B" />
<glyph unicode="C" />
<glyph unicode="D" />
<glyph unicode="E" />
<glyph unicode="F" />
<glyph unicode="G" />
<glyph unicode="H" />
<glyph unicode="I" />
<glyph unicode="J" />
<glyph unicode="K" />
<glyph unicode="L" />
<glyph unicode="M" />
<glyph unicode="N" />
<glyph unicode="O" />
<glyph unicode="P" />
<glyph unicode="Q" />
<glyph unicode="R" />
<glyph unicode="S" />
<glyph unicode="T" />
<glyph unicode="U" />
<glyph unicode="V" />
<glyph unicode="W" />
<glyph unicode="X" />
<glyph unicode="Y" />
<glyph unicode="Z" />
<glyph unicode="a" d="M776 1270v4l8 4v6h2v4h2v8h3v9q1 0 2 1t2 1q0 2 1 5.5t1 4.5l4 4q0 1 1 3.5t1 4.5q4 0 4 2q2 6 2 19h2q2 4 2 10q4 0 6 2v4q2 0 4 2q0 6 4 18h2q0 5 2 5q0 3 3 6l6 12q0 6 2 10v11h2v24h-2q1 2 2 2v6h2v8q2 4 6 7t10 6.5t8 5.5q16 20 27 31h4v2h4v2q7 0 19 4q2 0 7 1t7 1 v2h4v2h6l2 4h4v2h4v2q2 2 9 2q12 0 20 -4q8 -8 12 -14q0 -9 -4 -25v-22q0 -38 -4 -52v-20h2q0 -24 -6 -45q0 -17 -2 -25q0 -1 -1 -4t-1 -4q-2 -2 -4 -2v-4l-4 -2v-6q-4 0 -4 -2v-6h-2v-7h-4v-6h-2q0 -18 -2 -26h-3v-8h-2v-11h-2q0 -10 -2 -14q0 -4 -2 -6q0 -13 -2 -19 q0 -20 -2 -30q0 -9 -2 -11q0 -24 -2 -36v-9h-2v-20h-2v-29h-2v-47h-2v-12h-2v-8h-4v-11h-2v-39h-2v-12h-2v-31h-2v-12h-2q0 -2 -3 -8q0 -10 -2 -14q0 -9 -2 -15q0 -14 -2 -22q0 -19 -2 -29q0 -6 -2 -8v-6h-2q-2 -8 -2 -23h-2v-28h-2v-15h-2v-6h-2v-8h-4v-23h-2v-10h-2v-12 h-2v-21h-2v-10h-2q0 -10 -2 -16q0 -10 -3 -19q0 -12 -2 -18q0 -19 -2 -29q0 -18 -2 -26q0 -2 -1 -7.5t-1 -7.5v-4q0 -8 9.5 -20.5t9.5 -24.5v-10h-2v-6h-2v-6h-2v-5q-3 0 -5 -2v-4q-2 -2 -6 -5t-6 -5v-4h-2v-4l-4 -2l-4 -10h-2v-7h-2q0 -37 -2 -55h-2v-16h-2q0 -4 -2 -6 q0 -7 -2 -9q0 -18 -2 -26q0 -8 -2 -12q0 -4 -5 -29v-25q-2 -10 -2 -35h-2v-20q-4 -13 -5 -30t0 -46.5t1 -34.5q-2 -27 -2 -82h-4v-4h-2v-12h-2q4 -16 4 -24h-2v-15h-2v-33h-2v-16h-2v-20h-2q0 -21 -2 -31q0 -8 -2 -12q0 -7 -2 -11q0 -6 -2 -8q0 -6 -4 -10q0 -4 -2 -6v-4 q-4 -2 -15 -13q-4 0 -6 -2q-2 0 -4 -2h-4q-2 -4 -6 -8h-4q-2 -2 -2 -6h-5v-2q-14 0 -20 -2q-2 -2 -2 -4q-9 -6 -29 -6q0 3 -6 6q0 4 -2 4q0 8 -2 12q0 4 -2 6q0 2 -2 4v6h-2v5l-4 2v4h-2v8h-2v4h-2q-1 2 -2 7t-2 7h-2v9h-3v4q0 4 2.5 9.5t2.5 8.5l6 27h2v22v8q0 30 2 35h2 v17h2q0 2 -1.5 8.5t-2 11t1.5 10.5h2q0 25 4 37q0 6 2 10q0 11 2 15q0 16 2 24q0 4 2 6q0 36 2 52v10h2v10h2v2h-2q0 7 -1 21.5t-1 21.5v17h2v6h2v12h2v31h2v4h2q4 12 5 14h2v10h2v11q0 29 2 34v41h2v7h2l2 20h2v6h2v13q8 17 6 24q-2 8 -5.5 13.5t-13 14t-10.5 9.5l-6 8h-4 l-10 12q-2 2 -6 2q-2 2 -2 7h-4q-3 3 -9.5 9t-9.5 9h-4q-8 8 -10 12h-4q-1 1 -3 4.5t-3 4.5h-4q-2 2 -6.5 7t-6.5 7h-4q-2 2 -2 4h-4q-14 14 -20 22h-5q-2 3 -2 5q-11 5 -12 8q-2 0 -18 -4q-3 -8 -9 -11v-4l-4 -4q-4 -6 -8 -22q-4 -4 -8 -4q0 -5 -2 -7h-2q0 -6 -2 -10 q-2 0 -6 -4v-4q-1 0 -2 -1t-2 -1v-4q-1 -1 -3.5 -2t-3.5 -2v-4l-4 -4v-7h-2v-4h-2v-4h-4v-4h-2q0 -4 -2 -6t-4 -2q0 -4 -4 -12l-6 -6v-5q-2 0 -6 -4v-4q-1 -1 -3.5 -2t-3.5 -2v-4q-4 -4 -12 -8v-8h-2v-4h-2v-4q-2 -3 -4 -3v-4h-2v-4l-4 -4v-4q-2 -2 -4 -2v-4l-4 -6v-4h-2v-4 h-2v-5h-2q-1 -1 -2.5 -4t-2.5 -4q0 -2 -4 -2v-4l-4 -4v-6h-2v-4h-2v-4h-2v-4q-1 0 -2 -1t-2 -1q0 -2 -1 -6.5t-1 -6.5l-4 -2q-2 -4 -2 -10q-4 0 -4 -2v-6h-2v-4h-4v-4h-3v-4h-2q0 -7 -2 -9q0 -2 -4 -2v-6h-2l-4 -8q0 -4 -2 -6q0 -4 -2 -6q0 -4 -2 -6v-9q-4 0 -4 -2 q-4 -12 -4 -22h-2q-2 -4 -2 -15h-4v-4h-2v-8h-2v-6h-3v-6h-2v-8h-2q0 -4 -2 -6q0 -1 -2 -13t-4 -18q0 -7 -4 -19v-6h-2v-6h-2v-18h-2q-2 -12 -2 -39h-2v-4h-4q0 -7 -2 -9t-4 -2v-4q-2 -2 -6.5 -6t-6.5 -6q-1 -1 -6.5 -7t-11.5 -7q-1 -6 -5 -10t-5 -7q-2 -1 -6.5 -2t-6.5 -2 v-2h-14v-2q-12 -6 -18 0q-4 1 -8 4t-6 5t-5.5 6t-5.5 6t-4 2v4q-2 2 -4 2v6h-2v6h-2v12q-8 17 -2 23q0 8 2 12l6 12v7h2v4h2q2 8 2 22h2v4h2v8h4v7h2v8h2v12h2v8h2v4h2q0 4 3 7q0 6 4 18q0 10 2 14q0 7 2 11q0 4 2 6v6h2v6h2v6h2q2 4 2 14h2q2 2 2 9h4v4q2 2 4 2q0 8 2 10 q0 2 4 2v8h2v4q3 0 5 2v5l4 4q5 9 8 26h2q1 2 3 6.5t3 6.5h2v4h2q0 4 4 12l6 6q1 2 2 6t2 6q1 0 2.5 1t2.5 1v4l4 5v4h2v4h2q2 4 2 10q4 0 6 2q0 4 2 8q2 2 4 2q0 7 2 9t4 2v6h2q0 2 4 10v4q4 0 4 2q2 2 2 8l7 4v4q3 3 6 3v4h2v6h2v4l4 4v4q2 2 4 2q0 1 1 3t1 3q4 4 6 4v4h2 q2 2 2 9q4 0 4 2v4l5 4h6q2 5 10 10q0 4 2 6q0 4 2 4v6q7 4 10 9v4l4 2v4h2v4l7 4v4l6 6l6 27q3 3 9 8t9 8q3 5 8 19q4 4 7 4q8 15 6 24q0 2 -1 5.5t-1 5.5q-4 2 -8 6q-3 3 -3 6h-4l-10 10h-4q0 1 -1 2t-1 2l-8 2q0 1 -1 2t-1 2h-2l-2 5h-4q-1 2 -5 5l-4 3q-3 2 -8.5 5.5 t-7.5 5.5t-4 7t-2 12h2q0 9 2 13q0 4 2 6q0 2 2 4q1 3 2 10t2 10l19 13h26q1 0 2 -1.5t2 -0.5v2h15v2h8v2q8 -2 24 -2h17q4 -1 10 -4t12 -5t13 -3l6 6q2 0 2 4h2v4l8 4q0 6 2 8q0 2 4 2q0 6 2 8l4 4v5h2l6 12q0 2 5 12q2 6 2 17q4 0 4 2v4h2q2 2 2 8h4v8h2v4l4 4v4q2 0 6 4 q0 1 2 6t4 7q0 4 2 4q0 4 2 4v4h2q1 2 2 5t2 5t1 4h2q2 4 2 13q1 0 3 1t3 1q0 8 2 14h2q0 6 6 12q0 1 1 4.5t1 4.5q1 0 2 1t2 1v4h2q4 11 8 37l5 2v8q4 0 8 4v4q2 0 4 2v4q2 2 4 2l8 33q1 0 2 1t2 1q4 8 4 12q4 4 6 4q1 2 2.5 6.5t2.5 6.5q2 0 4 2q0 6 2 8l6 4v4q2 2 4 2v6 h2v6h2v5h2q2 2 2 8l4 2q2 4 2 12h2v4h4q0 10 2 14h3q0 5 4 13h2q0 2 2 4q0 4 2 6v4l6 6q0 2 2 4v4l4 2v5h2v4zM727 930v-4q-1 0 -2 -1t-2 -1v-6h-2v-5h-2v-4h-2q-2 -4 -2 -10q-4 0 -4 -2v-6h-2v-4h-2v-4h-5v-4h-2v-5h-2v-4h-2v-6h-2v-4h-2v-4h-2v-4h-2v-4h-2v-4h-2v-4h-2v-6 h-2q-2 -4 -2 -11h-2q-2 -2 -2 -8h-2v-4h-2v-4h-2v-4h-4q0 -6 -2 -8q0 -1 -2 -2t-3 -2q0 -5 -2 -9h-2q0 -1 -1 -3t-1 -3q-1 0 -2 -1t-2 -1l-6 -22q-4 0 -4 -2q-2 -2 -2 -9l-4 -2q-8 -11 -8 -26l18 -19h4l2 -4h4q4 -4 4 -6h4q3 -3 3 -6q20 -15 24 -16v-5l8 -4v-2q4 -2 8 -2 q6 -6 7 -8h4q0 -3 6 -6q2 -2 2 -4h4q1 -1 2 -3t2 -3q6 -4 21 -4q0 4 2 6q2 3 3 8.5t3 9.5q0 4 2 6q0 4 2 6v21q3 11 7 34t5 29v27h2v29h4v8h2v20h2v21h2v10h2v23h3v34h2v9h2v8h2v8h2v6h2v10h2v33h2v8h2v15h2v26h2v6h2v7h2v14h4q-1 5 -2 17t-2 18q-3 -1 -6 -3t-6 -3 q-1 -3 -4 -7.5t-4 -7.5v-4h-2v-4l-5 -2v-4h-2v-4h-2v-8h-2v-7h-2l-6 -12h-2q0 -10 -2 -16h-2v-4h-2l-2 -6q-2 -5 -4 -7q0 -6 -2 -8q0 -4 -2 -4q0 -2 -1 -5t-1 -5h-2v-4h-2v-4h-2v-4h-3v-4h-2v-5h-4v-4h-2v-4h-2v-4h-2v-6h-2v-4z" />
<glyph unicode="b" d="M1139 1120h2q2 -5 2.5 -26t-0.5 -27h-2q0 -37 -2 -55h-2v-4h-2q0 -2 -1 -7t-1 -8h-3q0 -1 -1 -3.5t-1 -4.5h-2q-2 -2 -2 -8l-4 -2q-2 -4 -2 -8q-2 -2 -6 -2v-9h-2v-4q-2 0 -4 -2v-4h-2v-4l-4 -4v-4q-2 -2 -4 -2v-4l-4 -6v-4h-2v-5h-3v-4h-2v-4l-4 -2v-6h-2v-4h-4 q0 -8 -2 -12h-2v-7h-2v-6h-2q0 -8 -2 -12h-2q0 -2 -1 -5t-1 -5h-2v-4q-2 0 -4 -2q-1 -2 -2 -6.5t-2 -6.5l-4 -2v-4l-5 -2v-4l-8 -6v-4q-2 0 -6 -4v-4l-12 -11q0 -1 -1 -3t-1 -3q-4 -3 -11.5 -10t-11.5 -10q-9 -12 -20 -23h-4v-4h-6q-1 -2 -3 -4h-4v-2l-18 -6v-2q-4 -2 -8 -6 v-4q-2 -2 -6 -2l-7 -11h-4q-8 -8 -12 -14h-4q-2 -2 -2 -4h-6v-2q-1 0 -3.5 -1t-4.5 -1v-2h-9v-2h-6v-2h-6v-2h-8v-2h-4q0 -5 -2 -7h-4v-2h-4v-2q-5 0 -7 -2v-4q15 -8 21 -16h4q0 -9 4 -21h2q0 -6 2 -10h2v-4h2v-6h2v-6h2v-9h2v-6h2v-6h3q4 -16 4 -26h2q2 -14 2 -43h2l4 -35 h2v-13h2v-10h2q0 -6 4 -14h2v-8h2v-21h2q0 -3 1 -10.5t1 -11.5h2v-9h2q2 -14 2 -43h3v-8h2v-18h2v-19h2v-14h4v-39h2v-10h2v-8h2v-8h2q0 -1 1 -6t1 -7q0 -27 -6 -51v-10h-2v-4q-1 -1 -4 -2t-4 -2v-4h-2v-5h-2v-4h-3v-8h-2v-6q-2 0 -4 -2v-4q-1 0 -2 -1t-2 -1v-4q-1 0 -2 -1 t-2 -1v-4q-9 -8 -26.5 -26t-26.5 -26q-24 -28 -39 -43h-4q0 -2 -2 -4q-1 0 -3 -1t-3 -1v-2l-9 -2q-4 -4 -4 -6q-4 -2 -10 -2q0 -2 -4 -6l-8 -4q-5 -5 -8 -11q-5 -2 -15.5 -5t-15.5 -5l-4 -6h-4l-2 -4h-4q-2 -2 -2 -6q-9 0 -13 -2v-2q-4 0 -8 -2v-2q-6 0 -8 -2q0 -1 -1 -2 t-1 -2h-6v-3h-4v-2h-9v-2q-1 0 -3.5 -1t-4.5 -1v-2h-4l-4 -6h-4v-2h-4v-4h-8v-2q-5 0 -9 -2v-2h-6v-2q-6 0 -8 -2v-2q-2 0 -6 -1t-6 -1v-2h-6v-2q-3 -1 -9.5 -2.5t-9.5 -2.5v-2h-4v-2l-41 -6v-2l-14 -6v-2h-4v-2h-8v-2h-9v-2h-8v-2q-8 0 -23.5 -1t-23.5 -1v-2q-12 0 -33.5 1 t-31.5 1v2h-43q-1 0 -1 -1t-2 -1v2h-14v2h-12v2h-12v2q-14 2 -43 2v2h-7v2q-1 1 -4 2t-4 2v2q-10 0 -16 2v2h-4v2q-6 0 -10 2v2l-9 2v3h-6l-6 6q-2 2 -8 2l-2 4q-2 2 -8 2l-2 4h-5v4h-4l-6 6q-13 13 -16 15q0 2 -1 5.5t-1 4.5h-2v6q-2 0 -4 2v4h-2q-2 2 -2 8h-3q-2 4 -2 13 h-2l-4 22h-2v12h-2v13h-2v8h-2q0 37 -2 55h-2v21h-2q0 9 -1 27.5t-1 27.5h2v14h2v6h2v7q4 2 8 6v4q4 4 8 4v4l5 6v4h2v4q2 2 4 2v4l14 13v4h2q2 4 2 10h2l6 25h2v10h2v6h2v4h3v6h2q0 3 1 10t1 11h2v6h2v6h2v6h2q0 2 1 4.5t1 3.5h2q2 8 2 21h2v6h2q2 4 2 14h4q0 15 2 23h2 q0 6 2 8h2l9 27h2l2 8h2q3 5 8 27q1 0 3 1t3 1v4q2 2 4 2q0 8 2 10h2v4h2q2 13 7.5 36t7.5 34q4 4 6 4v6h2v4h4v6h2v6h2v6h2v7h2v4h2v6h2q1 2 2 6t2 6h2v6h2q2 6 -0.5 21.5t0.5 21.5h2q0 2 1 6.5t1 6.5h3v4h2v6h2q2 4 2 10q1 0 3 1t3 1q0 6 2 8q0 2 4 2v6h2q0 9 2 13 q1 0 2 1t2 1v4h2v4h2q0 2 1 6.5t1 7.5h2v4h2q2 4 2 13h2v10h3l6 14q2 0 4 2v4h2v5h2l6 32h2q1 2 2 6.5t2 6.5h2v4h2v4h2q2 4 2 10h2q2 4 2 12h5v4h2q0 7 2 9h2q0 8 4 24h2v4h2q0 2 1 6.5t1 6.5h2q0 2 1 5t1 5h2q4 12 4 20l4 2q2 4 2 11h2l4 8h3v6h2v4h2v4h2v4h2q1 2 2 7.5 t2 7.5h2q1 2 2 7.5t2 8.5h2q2 2 2 8h2v6h2v8h2v7h2v6h4v4h2q0 4 4 12h3l6 35h2q0 2 1 5t1 5q2 0 4 2v4h2v4h2q4 12 4 19h2v6q4 0 6 2q0 4 2 8h2q0 6 2 8h2q0 9 2 11t5 2q0 2 1 5t1 5q2 0 4 2v4h2q4 12 4 21h2v8h2v10h2v6h4v6h2v15h2v22h2v4h2q0 6 2 10q1 0 4 3v6h2 q0 2 1.5 5t1.5 5q-3 2 -6.5 6.5t-4.5 5.5h-2q-4 4 -4 8h-6v2h-4l-4 5v4h-2q0 43 16 67v4l4 4h4l4 7h5l4 6h4l4 4h6v2h4v2h6q0 1 1 3t1 3h6v2h9v2q15 11 22 33q7 1 25.5 5.5t29.5 4.5l15 -20q1 -2 1.5 -9t6.5 -8q4 -4 20 -4q8 0 20.5 1t14.5 1q19 -4 53 -8q14 -2 46 -2v-4h8 v-2q14 0 20 -2v-2h8v-2h7v-2h6v-2q2 -1 7 -2t7 -2v-3h4l6 -8h4l2 -4h7v-2l10 -4v-2q8 0 12 -2v-2q6 0 8 -2v-2h4q2 -2 2 -4q2 0 5.5 -1t5.5 -1q0 -2 2 -4q1 0 3.5 -1.5t4.5 -1.5l2 -4q2 -2 6 -2l4 -8h4q2 0 2 -4h4l19 -18h4l2 -4h4q3 -3 8 -13q6 0 8 -2q1 -2 3 -4h4l18 -22 q3 -2 8 -5.5t8 -5.5q0 -2 5 -12l4 -4v-4q2 -2 4 -2q1 -2 2 -7t2 -8h2v-6h2v-4h2q2 -4 2 -12h2l4 -8h2v-6h2v-4h2v-5h2v-4h2v-4h2v-8h2q1 -10 2.5 -29.5t2.5 -29.5h2v-11h2v-6zM1006 1018h2q12 46 8 61h-2v6h-2v5h-2v6h-2v16q-4 0 -4 2v4h-5q0 6 -2 8h-2v9h-2v6h-2 q0 10 -2 16h-2v6h-2l-2 15h-2v6h-2v6h-2v4q-2 0 -6 4v4l-4 2q-2 1 -9 8h-4q0 5 -2 5h-4l-2 4h-4q0 1 -1 3t-1 3h-4l-25 30q-3 3 -8 3l-4 8h-4q-2 0 -2 4h-6l-4 4h-4v2h-5q0 1 -1 2t-1 2h-4v2h-6v2h-4v2h-4l-4 4q-8 4 -12 4v4q-7 0 -13 3v2q-6 0 -8 2v2q-10 0 -16 2v2h-4v2 h-9q-41 14 -120 14q-1 -1 -2.5 -1.5l-3 -1t-3.5 -1.5q-5 -31 -8 -41q-1 0 -2 -1t-2 -1v-6h-2v-4h-2v-17h-2q-4 -12 -4 -20h-2v-6h-2v-8h-2q-2 -4 -2 -17h-4v-4h-2q0 -8 -2 -12h-3q0 -6 -4 -14h-2v-5h-2v-6h-2v-4h-2v-6h-2v-8q-4 0 -4 -2v-4q-4 0 -4 -2v-4h-2q-2 -2 -2 -9h-2 q-1 -2 -2 -6t-2 -6h-2v-8h-2v-6h-2v-6h-2v-9h-3v-8h-2q0 -2 -1 -5t-1 -5h-2q0 -2 -1 -6t-1 -6h-2v-4h-2v-7l-4 -2q-2 -6 -2 -16h-2v-6h-2v-4h-4q0 -8 -2 -10h-2q0 -11 -2 -17h-2v-6h-2v-4h-2q0 -2 -1 -6t-1 -6h-3v-9q-2 0 -4 -2q0 -1 -1 -3.5t-1 -4.5h-2q-2 -2 -2 -8h-2v-6 h-2q-2 -4 -2 -10h-4q0 -7 -2 -11h-2q0 -10 -2 -14h-2v-4h-2v-4q-2 -2 -4 -2q-1 -3 -2 -8t-2 -7h-2v-8h-3v-8h-2v-4h-2v-8h-2q-2 -4 -2 -13h-2q-2 -2 -2 -8h-4v-6h-2q0 -6 -2 -10h-2v-6h-2q0 -6 -2 -8h-2v-7h-2v-6h-2v-6h-2v-8h-2v-6h-2q-2 -2 -2 -8h-3v-9h-2v-6h-2v-6h-2v-4 h-4v-4q0 -11 10 -14q2 -2 13 -2q59 0 88 2q10 0 16 2v2h17v-2q1 0 4.5 -1t5.5 -1q21 0 39 6h30q7 2 18.5 7.5t14.5 6.5q36 4 58 4v4q12 0 18 2v2q6 0 10 2v2h4v3q3 1 9.5 2t9.5 2v2h4v2l14 2v2h4v2h6v2h7v2h4v2h4q2 2 2 6h4q5 3 8 8h4v2q1 0 3 1t3 1q0 1 1 2.5t1 2.5h4 q8 8 9 10l4 2v4q10 10 16 14l2 8q1 0 2 1t2 1v5q4 4 6 4v4l5 2q2 4 2 8h2l6 12q2 2 4 2v4h2v5h2v6h2q0 2 1 5t1 5h2v4q1 0 2 1t2 1v4l4 4v4h2v4h2v5l5 2v8q4 0 6 2q0 6 2 8t4 2q0 6 2 8q0 2 4 2q0 2 1 5.5t1 5.5q2 0 4 2v4h2l2 8h2q2 6 2 18h2v6q4 0 4 3l5 10h2v4zM784 268 h2q0 15 2 23h-2v12h-2v10h-2v11h-2v14h-2v12h-4q0 35 -2 53h-2v13h-2v10h-2v12h-2v4h-2v9h-2q0 6 -1 19t-1 19h-2v5h-2v8h-2v10h-2v6h-2v8h-3v9h-2v4q-4 4 -8 4q0 4 -2 6h-6v2h-6v2h-8v2h-8v2h-27v2h-10v2h-19v2h-14v2h-25v-2h-24q-31 0 -43 -4q-20 -2 -64 -2l-22 6v-2l-8 2 v-2h-19v-2h-12v-2h-10v-2h-17q-12 -6 -16 -6l-6 -21h-2q-2 -2 -2 -8h-5q0 -8 -2 -14h-2v-4h-2q0 -6 -2 -8h-2l-2 -15h-2l-2 -14h-2l-2 -8h-2q-2 -4 -2 -15h-2q-2 -4 -2 -10h-2l-6 -18q-3 -2 -5 -2v-6h-2v-7h-2v-8h-2v-6h-2v-6h-2l-6 -29q-4 0 -4 -2q-2 -4 -2 -10h-2v-4h-2 v-6h-2v-9h-4v-6h-2v-6h-2l-7 -35h-2v-4h-2l-6 -28h-2v-7h-2v-6h-2v-8h-2v-12h-2v-6h-2q-2 -4 -2 -15h-4v-4h-2q0 -6 -2 -8h-2q0 -10 -2 -16h-2v-15h-2v-6h-3v-8h-2v-6h-2l-2 -14l-4 -3v-6h-2q-4 -16 -4 -22h-2q-1 -1 -2 -4t-2 -4q0 -2 -4 -2q-10 -13 -10 -25q1 -4 4 -12.5 t4 -12.5l10 -6q4 -6 14 -16q8 -4 13 -4v-2h4v-2l14 -6v-2h6q2 -3 2 -5l29 -6v-2h4v-2h10v-2h23q18 -6 47 -6q50 0 80 10h12v2h12v2h9v2h8v2h6v2h4v3h10v2h10v4h5v2h6v2h6v2h8v2q8 0 12 2q2 2 2 4h9v2l20 10l4 6h4q0 1 1 3.5t1 3.5h4q2 0 2 4l21 6v2h4v2h6v2h4q2 1 8.5 4 t10.5 4v4q4 1 9 6t9 7v4h2q2 0 2 4h4q2 2 2 4q2 0 5 1t4 1q1 1 2 3l1.5 3t3 2t5.5 2v4l6 6q4 3 7.5 6.5t8 8.5t7.5 8q2 2 6 2v2q2 2 4 2v4l6 6q4 8 4 13l6 4l12 30v15h-2q0 27 2 39q-2 10 -2 28z" />
<glyph unicode="c" d="M600 1139h-4l-2 -4h-4l-2 -5h-4l-2 -4h-4q-3 -3 -3 -6q-6 0 -10 -2q0 -2 -2 -4q-6 0 -12 -6q-1 0 -3 -1t-3 -1q-2 -2 -2 -4h-4q-1 -1 -3.5 -3t-3.5 -3h-4q-1 -2 -3 -5.5t-3 -5.5h-4q-1 -1 -2 -3t-2 -3h-4v-2q-4 0 -6 -2t-2 -4h-6q-20 -24 -35 -39h-6q-3 -4 -10.5 -12 t-10.5 -12h-6v-2h-4v-2h-6q-2 -3 -7.5 -8.5t-7.5 -8.5l-14 -14v-4q-2 -1 -5 -3t-5 -3v-5q-2 -2 -4 -2v-4q-4 -4 -6 -4v-4q-2 -2 -7.5 -7t-7.5 -7v-4q-1 -1 -3 -2t-3 -2v-4q-2 -1 -5 -3.5t-5 -3.5v-4h-2l-6 -10q-2 0 -6 -4q0 -1 -1 -3.5t-1 -4.5l-5 -2v-4h-2v-7q-4 -4 -8 -4 v-4l-6 -6v-4q-2 0 -6 -4v-4q-1 0 -2 -1t-2 -1q-1 -4 -4 -12.5t-4 -12.5q-4 0 -4 -2v-4q-5 0 -5 -2v-4q-2 -2 -6.5 -5t-5.5 -7h-4q-2 -8 -8 -13q0 -4 -2 -6q0 -1 -1 -4t-1 -4h-2v-6h-2v-6h-2q-2 -4 -2 -11h-2v-4l-11 -6v-4q-2 -2 -4 -2v-4q-2 -2 -4 -2v-6h-2v-6h-2v-6h-2 l-2 -9h-2v-4l-4 -2q-4 -8 -4 -12q-2 -2 -6 -2v-6h-3v-4h-2v-7h-2v-8h-2q0 -4 -4 -12q0 -4 -2 -6q-1 -8 -3 -25.5t-3 -25.5h-2v-9h-2v-6h-2v-8h-2v-6h-2v-8h-4v-4h-2v-13h-2v-14h-2v-25h-2v-8h-3q0 -12 -1 -34t-1 -33v-64q0 -3 -1 -9.5t-1 -10.5q0 -21 4 -45v-19v-14h3 q2 -4 2 -12h2q2 -4 2 -9h2v-12h4v-6h2v-4h2q0 -8 2 -12h2v-9h2q1 -7 2 -20.5t2 -20.5v-18h2v-8h2q0 -4 4 -8v-9h2q4 -16 4 -24l5 -2v-6q4 0 6 -2q3 -6 10 -13h4q1 -1 2 -3t2 -3h4q4 -4 4 -6h2v-4q2 -1 5.5 -4t5.5 -4q0 -4 2 -8h2q0 -5 2 -7q1 0 2 -1t2 -1v-4q1 -1 4 -3t4 -3 l2 -4h4q1 -2 3 -5t3 -5h6q1 -1 4 -4.5t5 -5.5q10 -5 12 -7q4 0 4 -2h4v-2q12 -4 14 -4v-2q4 -2 13 -2v-4h4v-2h4v-2q6 0 14 -4v-2q3 -1 9.5 -2t9.5 -2q2 -2 2 -4h6v-2h6v-2h8v-3h8v-2h7v-2h10v-2h10v-2q1 -1 4 -2t4 -2q2 -2 2 -4h4q5 -5 5 -6h4v-2q2 0 10 -4q4 0 6 -2 q6 0 8 -2q4 0 6 -2h6v-2q12 -2 35 -2v-2h21v-3h18v-2h17v-4h10v-2q2 0 5 -1t5 -1q7 0 25 5.5t28 2.5v-4q25 0 39 -2v-2l14 -3q15 -2 19 -1v2q8 4 12 4l2 8h2l7 23q12 8 18 14h6v2q2 1 12 11v4q1 1 3.5 2t3.5 2v4l4 2v4q1 1 3 2t3 2v6h2v4h2q0 19 2 29h-2q0 17 -2 21 q-28 4 -41 4h-31v2h-14v2h-39v2h-25v2h-18v4h-14v2h-21v2h-35v2h-12v2h-8v2h-6v2h-11v2q-12 0 -28 4q-6 0 -8 2q-3 0 -5 2h-6v2h-4v3q-6 2 -20 2v2h-4v2h-7q0 1 -1 3t-1 3h-4q-2 2 -2 4h-4q-2 0 -2 4h-6v2h-6v2q-2 0 -6 1t-6 1q0 1 -1 2t-1 2h-5q0 2 -4 6t-4 7q-2 1 -6 2 t-6 2q0 2 -2 4h-4v2h-4v2h-6v2h-5v2h-4q-2 2 -2 4h-4l-12 12q-2 2 -6 2v4q-1 2 -8 9l-7 18h-2v4h-2v6h-2v9h-4v4h-2v8h-2v8h-2v4h-2v10h-2v6h-2v9h-2v14h-2v12h-2v21q-3 9 -4 19.5t-1 25.5t-1 24q-2 2 -2 9h2v53h2q0 10 2 16q0 4 2 6q0 29 2 41q0 11 2 17q0 6 2 8q0 12 2 18 q2 10 2 31h2q2 8 2 21h2v6h2v6h4v6h2v14h2v6h2v7q3 2 5 2q0 2 4 14q0 4 2 6q0 2 2 4v6q1 0 2 1t2 1v5h2q2 4 2 10l4 4l6 12q4 4 8 6v4q1 1 4.5 3.5t4.5 3.5v4q2 2 4 2q0 2 1 5t1 5q4 0 4 2q2 2 2 8h2v4h2v4h2v4h4q0 7 2 11q2 0 4 2q0 4 2 6l6 4v4q1 0 2.5 1t2.5 1v4q2 2 4 2 v4l4 2v7h2q2 2 2 6q4 0 6 2v4q1 1 3 2t3 2v4q1 1 4 3t4 3v4q2 2 4 2q2 3 6 8t5 7l12 8v4q0 2 4 2q0 4 4 6q0 2 1 5t1 5l8 6v5q6 3 9 6v4q4 4 12 8v6q2 0 4 2l6 21q2 2 4 2l12 16h7q1 1 3.5 4.5t4.5 5.5h4q0 1 1 2t1 2h4q1 1 3 4.5t3 4.5h4v2h10v2h7q0 4 2 6h4q2 2 2 4h4 q2 2 2 4q4 0 6 2l6 8q4 0 6 2q1 0 3.5 1t3.5 1q0 5 2 5h4q2 2 5 7t5 7q6 0 8 2v2q8 0 14 6q5 0 7 2q4 0 8 4q2 0 6 1t6 1q0 4 2 4h4q0 3 4 7h4q1 1 2.5 4t2.5 4h4q2 2 2 4q5 0 14 6q1 0 3 1t3 1q0 2 2 4l15 2v2q16 4 24 4v2q1 0 4 1t4 1q13 0 25 -6h22v-2h11v-2h8v-2 q9 0 26.5 -1t26.5 -1l27 -8l2 -4h4v-2h4v-2l16 -4v-2q6 2 21 2v-2h18v-3h4q4 0 13.5 1.5t11.5 1.5v2q2 1 5 2t5 2q0 2 2 4h4q2 1 5 5t8 5q1 6 5.5 8.5t4.5 3.5v4q2 2 6 2q0 7 2 9h2v4q2 0 6 4v4q8 8 12 10v4l5 2v6h2q2 2 2 11h4v14q-2 2 -6 2v4l-19 19q-4 0 -12 4q-4 0 -6 2 q-4 0 -6 2q-2 0 -4 2t-9 2v2h-6v2h-12l-49 18q-9 0 -13 2h-30q-6 0 -21 5h-41v2q-25 0 -65 -4q-8 0 -17 -3q-24 -4 -36 -4v-2h-7v-2h-6v-2h-6v-2q-2 -1 -5 -2t-5 -2v-2h-6v-2q-6 0 -8 -2v-2h-7v-2l-12 -6q-4 0 -6 -2q-1 0 -3.5 -1t-4.5 -1l-2 -4q-3 -3 -8 -3l-3 -4l-20 -8 v-2q-6 0 -10 -2q-2 -2 -2 -4h-4l-5 -4h-4v-2h-6v-2h-4z" />
<glyph unicode="d" horiz-adv-x="1331" d="M1151 946v-4q1 -1 3 -2t3 -2q0 -6 2 -10h2v-4h2v-4q2 -2 4 -2q1 -1 3 -8.5t4 -10.5q0 -4 2 -6q0 -13 2 -19q2 -4 2 -14h2v-4h2v-6h2v-4h2q1 -4 2 -13t2 -14h2v-6h2v-18q2 -8 5 -28t5 -28v-22q0 -6 2 -8q0 -19 2 -27q0 -4 -0.5 -11t-0.5 -12.5t1 -9.5l-2 -4v-20h-2v-13h-2 v-18h-2v-6h-2v-8h-2v-29h-2v-16h-2l-6 -25h-2v-6h-2q0 -13 -2 -19h-2q0 -6 -6 -12q0 -1 -3 -4q0 -2 -2 -4q0 -4 -2 -4q-4 -12 -4 -21h-2v-4h-2v-6l-4 -2l-4 -6h-2l-6 -21q-1 -1 -3 -2t-3 -2v-4q-1 0 -2 -1t-2 -1q0 -2 -1.5 -4.5t-1.5 -3.5q-2 -2 -4 -2l-6 -21h-2v-4h-2v-4 q-2 -2 -6 -2q0 -6 -2 -8q-4 -5 -12 -12t-9 -8v-5q-5 -4 -14 -13t-14 -13v-4q-1 -1 -3 -2t-3 -2v-4q-9 -9 -13 -11v-6q-8 -4 -12 -8v-4h-2l-4 -6h-4q-7 -7 -10 -13h-4q-6 -6 -7 -8q-11 -7 -12 -12q-5 -1 -6 -6h-4q-3 -3 -8.5 -9.5t-8.5 -9.5h-4q-4 -4 -12 -13t-12 -13h-6 q-1 -2 -3 -5t-3 -5q-1 -1 -8 -2t-9 -3l-20 -20h-4l-3 -4q-2 -2 -6 -2v-2h-4q-4 -4 -4 -8h-4q-2 0 -2 -5h-6v-2h-4q0 -2 -2 -4h-4v-2h-4l-5 -4h-4q-2 -2 -2 -4q-4 -2 -8 -2l-4 -4h-4l-4 -4h-4v-4h-4l-4 -4h-5v-2q-4 0 -6 -2l-6 -7h-6q0 -2 -2 -4h-4q-1 -1 -3 -4t-3 -4 q-2 -2 -8 -2l-3 -4q-8 -4 -20 -8v-2q-6 0 -8 -2v-2h-6q-2 -2 -2 -4h-4v-3h-7v-2h-4l-4 -4h-4l-2 -4h-4v-2h-6v-2q-4 -2 -8 -2v-4h-9v-2q-4 0 -8 -2v-2q-6 0 -8 -2t-2 -4h-4v-2h-6v-2h-6v-2h-9v-2h-6v-3h-6v-2h-8v-2h-8v-2h-4v-2h-9v-2h-8v-2h-8v-4h-14v-2h-11v-2h-4v-2h-10 v-2h-8v-2h-4v-2h-6v-2q-1 0 -5 -1t-6 -1q-21 0 -45 8h-12v2h-14v2h-6v2l-27 6v2h-6v2h-23v2h-10v2h-10v2h-14v2h-7v3h-12v2h-12v2h-6v2h-6v2q-8 4 -25 4l-6 -6h-2v-4h-2v-9h-2v-8h-2v-8h-2q0 -1 -1 -2t-2 -2.5t-2 -3.5v-4q-1 0 -2 -1t-2 -1v-4q-1 -1 -4 -3.5t-4 -3.5v-2h-4 q-2 -2 -2 -6h-6q-18 -18 -21 -22q-4 -2 -8 -2v-2q-8 -5 -22 -8.5t-25 1.5h-4v3q-3 2 -8 7t-8 7q-2 4 -2 14h-2v15h-3v30q1 3 8.5 19t6.5 30q0 2 -1 5.5t-1 5.5q-5 5 -15 10l-6 20h-2v4h-2v7h-2v4q0 5 4 14t2 14h-2v4h-2q0 9 -2 13q15 10 19 14q0 2 2 4l18 6l2 4h4q3 3 6 9 q5 0 9 2v2h8v2h10v2h4q12 8 14 10q0 5 5 10v8q1 0 4 3v4q2 0 4 2v4l4 2v4h2v4h2v6h2v4h4v6h2q0 5 4 13h2q0 8 4 12q0 4 4 8v6q3 0 5 2q0 1 1 5t1 6l4 2v8h2v4h2v8h2v4h2v6h4q0 7 2 9h2v6h2q0 14 2 22h2q0 4 2 6q0 2 2 4q0 7 2 9q0 2 4 10q0 4 2 6v4h3q1 4 6 29h2v4q4 0 6 2 v4h2l6 29h2l4 8q0 6 2 8q0 4 2 6q0 2 1 4.5t1 3.5h2v9q4 0 4 2q3 9 3 16h2v6h4v8h2v7h2v4h2v6h2v4h2v6q2 2 4 2v4h2v6h2v6h2v5h2v4h2q2 2 2 6l4 2q2 10 2 33h2v6h5v6h2v10h2v10h2v17h2v8h2q0 2 2 4q0 4 4 12q0 2 2 4q0 5 2 7q0 2 1 5t1 5h2v6h2q2 2 2 8h2q2 6 2 17h4 q0 6 3 12h2q0 6 2 8h2q0 10 4 14q0 1 2 7t4 8q0 2 2 4q0 4 2 6v10h2v6h2v13h2v6h2v6h2v6h4v6h2q0 15 2 23h2v6h3v6h2q0 4 2 8q0 3 4 15q0 6 4 18q0 4 2 6q0 4 2 8v6h2v7h2v16h2v6h2v8h2v13h4v10h2v6h2v6h2v6h2v4h2q1 6 4.5 18.5t4.5 18.5q1 0 2 1t2 1v4h2l6 39v23h2q1 2 2 6 t2 6q0 2 4 2v4h2v6h2q0 9 4 13q0 4 2 6q0 4 5 14q0 6 2 10q0 2 1 7.5t1 7.5h2v8h2q4 8 4 14h2v6h4q-1 5 -2 16t-2 17h4v4q11 11 14 13v4h2v4l4 6v4q3 2 9.5 7t9.5 7q0 2 2 4q8 4 14 4l2 5h4v2h4l5 6h6v2q4 0 6 2q0 2 4 6q4 2 14 2q15 0 19 -2l8 -12q0 -11 2 -15q1 -4 1 -11 t2.5 -9t10.5 -2l9 4v2h4q1 1 3 4t3 4l18 6l2 4h6v2h27v-2q6 0 10 -2q0 -2 2 -4h4v-2h4l5 -4h4q4 -4 11 -12t11 -12h4q2 -3 7.5 -8.5t7.5 -8.5h4q3 -3 9 -10t9 -10h4q5 -5 8 -11l9 -2q2 -2 2 -4h4l6 -6q2 -2 6 -2q0 -4 2 -6q6 0 8 -2q46 -46 54 -55h6q7 -5 14.5 -12.5 t15.5 -16.5t13 -14l16 -17v-4q4 0 4 -2v-4q14 -12 39 -37v-4l4 -2v-4q2 -2 6 -2q0 -4 2 -6q2 -5 9 -8v-5q2 0 4 -2v-4q1 -1 3 -2t3 -2v-4q4 -2 8 -6v-4q2 -2 6 -2v-6q2 0 4 -2q0 -5 2 -7h2q0 -6 2 -10q1 0 2 -1t2 -1v-4h3v-6l4 -4q0 -1 1 -4.5t1 -5.5l4 -2v-5h2v-4h2v-4z M772 197h6v2q4 0 6 2q0 2 2 4h5q0 1 1 2t1 2q2 1 6 2t6 2l2 4h2l2 4h6q0 4 4 8h4q0 2 2 4q6 0 9 3q2 2 2 4h4q4 4 4 6q1 0 3.5 1t4.5 1q2 4 10 12h4q1 2 3 5t3 5h5q3 3 10 10.5t10 10.5q6 6 10 8v6q2 0 4 2q22 22 23 25h4q1 3 2.5 5.5t3 4t4 3t4.5 3.5v2q3 0 7 4v4 q2 1 6 4.5t6 4.5v4l12 12q1 2 2 6t2 6l6 4v4l4 3v4q2 2 7 2v6h2q0 4 2 6q2 0 4 2v4q1 1 4 3t4 3l6 21q4 0 4 2q2 2 2 8h2v4h4q0 4 4 12h3v9h2q0 8 2 12h2q0 2 2 4q0 4 4 12q0 4 2 4q0 9 4 25v4h2q2 8 2 22h2v5h2q2 12 2 36h4q0 23 2 35h-2v19h-4l4 8q0 23 -6 41v18h-2v6h-2 q0 13 -6 25q0 13 -4 33q0 2 -2 4q0 4 -4 12q-2 4 -2 8h-2v11h-2v4h-3v6h-2v4h-2l-4 8h-2v4h-2v6h-2v4h-2v5h-2q0 2 -2 4q0 2 -4 10q0 1 -1 3t-1 3q-2 2 -4 2v6q-4 0 -4 2v4q-4 0 -4 2v5q-1 0 -3.5 1t-3.5 1l-6 18l-14 14v4l-4 2v5q-4 2 -8 6l-4 6q0 1 -2 2t-3 2q0 4 -2 8 l-8 6q0 1 -1 2t-1 2q-1 0 -3 1t-3 1v5q-2 2 -5.5 4.5t-4.5 3.5v6q-3 2 -8.5 6t-8.5 6v4h-2l-4 6q-16 16 -20 19v4h-2q0 2 -4 6h-4q-1 2 -4.5 5t-4.5 5h-4l-4 4v4q-8 8 -10 9q-4 6 -16 18q-2 2 -7 2q-4 4 -4 6h-2v6q-4 0 -4 2q-7 7 -8 9h-4q0 2 -4 6h-4q0 1 -1 2t-1 2h-4 q-4 5 -13.5 14.5t-13.5 14.5h-4q0 1 -1 2t-1 2h-4q-4 4 -4 6h-5q-4 4 -4 6q-4 4 -15 8.5t-15 3.5v-2h-4q-2 -2 -2 -6h-7q0 -2 -2 -4h-4q0 -2 -4 -6h-4v-2h-6q-28 -7 -31 -12v-5q-2 -2 -4 -2l-12 -39v-10h-2q-1 -1 -2 -4.5t-2 -5.5h-2v-4h-2v-8h-3v-9h-2v-8h-2q0 -2 -2 -4 q0 -6 -4 -14q0 -4 -2 -6q0 -6 -2 -8q0 -7 -2 -11v-6h-2v-6h-2v-12h-2v-4h-2v-4h-2q-1 -2 -3 -6.5t-3 -6.5h-2q-1 -8 -3 -24.5t-3 -24.5h-3q0 -2 -4 -10q0 -6 -4 -14q0 -3 -2 -5q0 -2 -1 -4.5t-1 -3.5h-2q-4 -16 -4 -22h-2q-2 -2 -2 -9h-4q0 -14 -2 -22h-2v-14h-2v-7h-2 q0 -6 -4 -10q0 -4 -2 -6q-6 -35 -7 -39q0 -4 -2 -6v-4h-2v-6h-2v-4h-2q-2 -6 -2 -19h-2v-4h-4v-6h-2v-6h-2v-8h-2q0 -9 -2 -15h-2q0 -4 -4 -8q0 -4 -2 -6q-4 -16 -7 -22v-5h-2v-8h-2v-6h-2v-10h-2v-8h-2v-7h-4v-4h-2q0 -14 -2 -20h-2q0 -8 -2 -12h-2q0 -5 -4 -9 q-3 -16 -8 -28q0 -2 -2 -4q-2 -4 -2 -9h-3q-2 -12 -6 -32h-4v-4h-2q0 -11 -2 -15h-2v-4h-2q0 -10 -4 -14q0 -4 -2 -4q-4 -18 -8 -29q-2 -2 -2 -8h-2q-2 -4 -2 -14h-2q-3 -3 -3 -9h-4v-6h-2v-4h-2q0 -10 -2 -16h-2v-4h-2q0 -5 -4 -13q0 -2 -2 -4q0 -4 -2 -6q0 -4 -2 -6 q0 -4 -2 -6q-4 -8 -4 -12h-2q-2 -4 -2 -15h-2l-7 -14h-2v-4h-2q0 -6 -2 -10h-2q0 -5 -2 -5q0 -2 -4 -14q0 -2 -2 -4v-6q-1 0 -2 -1t-2 -1l-2 -8h-2q-2 -4 -2 -9h-2q-2 -8 -2 -20h-2v-4h-4v-6h-2q0 -5 -3 -8h-2v-9q-2 0 -4 -2v-4h-2v-4h-2v-6q-9 -22 -6 -37l19 -6v-2 q16 -4 20 -4v-2q6 -2 18 -2v-4h9v-2h10v-3h10v-2h6v-2q25 0 35 -4q4 0 4 -2q6 0 8 -2q5 0 7 -2q4 0 6 -2q14 0 20 -2q4 -2 14 -2q21 0 33 4h21v2h6v2h10v2h4v2h6v2h9v2h14v2h6v2h6v3h4v2q2 1 5.5 2t4.5 2v2h5v2q6 0 14 4v2h6v2q4 0 6 2l5 2q6 2 8 4h6q0 2 2 4h4l4 4q2 2 8 2 v2q6 3 8 3v4q9 0 13 2q4 4 6 8q2 1 6 2t6 2q4 4 4 6l21 6v2h4l2 4h4v4h4v3h4z" />
<glyph unicode="e" d="M1065 1055v4h-2v4h-2q-2 2 -2 8q-4 0 -4 2v4q-2 1 -5.5 3t-5.5 3v4q-1 1 -4 3.5t-4 3.5v4q-2 2 -4 2q0 2 -1 5t-1 5q-4 0 -4 2v4h-2q-2 2 -2 6h-4q-3 7 -6 8h-2v5q0 2 -4 2q0 9 -5 16q0 2 -2 4v4q-1 0 -2 1t-2 1v4q-2 2 -4 2v5q-4 4 -6 4q-3 7 -8 21.5t-8 21.5q-2 0 -4 2 v4q-3 0 -7 4q-1 2 -2 6t-2 6l-4 2v4q-2 2 -6 5.5t-6 5.5v4q-10 10 -16 14v4l-4 4v4h-3v6q-4 0 -4 2v5q-3 2 -9 7t-9 7v4q-4 4 -6 4v6q-2 0 -6 4v4q-2 0 -4 2v7h-3v6h-2v4h-2v4l-4 2q-10 10 -14 16h-4q0 1 -1 2t-1 2q-1 0 -3 1t-3 1v5h-2v4h-2v6q-2 3 -7.5 9t-7.5 9 q-2 2 -4 2q0 7 -2 11l-14 12v4q-4 0 -4 2q-2 2 -2 8h-2q-1 1 -2.5 2t-2.5 2h-4q0 2 -4 6h-4q-1 1 -2 3.5t-2 3.5l-8 8q-2 0 -2 4h-4q-4 4 -4 6q-2 0 -5 1t-4 1q-4 8 -10 14h-4q-1 2 -3 5.5t-3 5.5h-4q-4 4 -4 6h-6q0 2 -2 4h-4q0 1 -3 4h-4v2l-8 2v2h-8v2q-5 1 -11.5 -0.5 t-8.5 -1.5h-21v-2h-8v-2q-5 -2 -15 0.5t-12 -0.5q-4 -1 -6 -3t-2 -3.5t-0.5 -4.5t-1.5 -5h-2v-7q-2 0 -4 -4q-2 0 -12 -1t-15 -1q0 -8 -4 -16h-2q0 -2 -4 -6h-4v-6h-4q-5 -14 -8 -17q-1 -7 2 -14v-4h2v-6h2q0 -2 1 -8t1 -9q0 -1 3.5 -6.5t4 -8.5t-1.5 -11q0 -1 -2 -6t-4 -7 q-1 -3 -2 -9.5t-2 -10.5q-10 -5 -13 -8q0 -23 2 -35h-2l-6 -12h-2v-25h-2q0 -6 -6 -12q-6 -28 -6 -29q0 -6 -4 -14v-6h-2v-7h-2q-2 -4 -2 -12h-2q-1 -6 -3.5 -17.5t-3.5 -17.5h-2v-6h-2v-6h-2v-8h-2q0 -27 -4 -39q0 -2 -1 -6t-1 -6l-8 -6v-5l-4 -2v-4h-2v-4h-2v-10h-2v-8h-4 v-4h-2v-6h-3q0 -7 -2 -9h-2v-4h-2q0 -4 -2 -6l-6 -12q0 -7 -4 -15v-4h-2v-8h-2v-10h-2v-6h-2q-4 -8 -4 -12h-4v-21h-2v-8h-2q0 -6 -2 -8h-3q0 -11 -4 -15v-4q-1 0 -3 -1t-3 -1q0 -1 -1 -2t-1 -2h-4v-2h-4q-2 -2 -2 -4h-6v-2h-4v-2h-6v-2h-7v-2h-26v-2q-2 -2 -8 -2l-9 -13 h-10v-2q-4 0 -12 -4q-3 -3 -3 -4t-3 -4v-4q-1 -2 -8.5 -11t-8.5 -16q-3 -3 -4 -13t2 -15h2q0 -7 2 -9h2v-4q3 -2 5 -2v-4q6 -6 10 -8v-8q1 -1 3 -4t3.5 -5.5t1.5 -5.5h6v-4h4v-2l21 -20l4 -8q0 -17 -4 -23q-6 -3 -11 -8v-4h-2q0 -6 1 -18.5t1 -18.5l-14 -16q-4 -2 -8 -2v-7 q-2 0 -4 -2q0 -6 -4 -10v-10q-7 -7 -13 -10v-7l-4 -4v-4h-2v-4q-1 0 -3 -1t-3 -1q-2 -4 -1 -17t-1 -18h-2v-4h-2v-6h-2v-8h-2q0 -6 -2 -8q0 -2 -2 -4v-4l-6 -5v-4l-4 -2q-2 -4 -2 -8h-3q-2 -4 -2 -10h-2v-6h-4v-4h-2v-31h-2q0 -4 -2 -8q-2 -2 -4 -2v-4h-2q0 -9 -4 -25v-4 q-1 0 -2 -1t-2 -1v-4h-2q-2 -5 -1 -16t-1 -15q-3 -1 -8.5 -4t-8.5 -4q0 -13 -2 -17h-2q-3 -4 -5 -5.5t-5.5 -1.5t-7.5 -1v-2q-2 0 -7 1.5t-10 0.5q-12 -4 -20 -4h-33v-2h-8q-2 -2 -2 -4q-2 0 -10 -4q-1 0 -9 -4h-6v-2h-4v-2h-6q-3 -1 -7.5 -5.5t-8.5 -5.5l-8 -20q0 -3 -3 -6 v-29q4 -4 9 -14l4 -2v-6l8 -4v-5q13 -13 25 -22v-6q2 -1 7 -4.5t7 -5.5v-5q8 -8 14 -12v-4l4 -4v-4q2 0 6 -4q1 -1 5.5 -8t7.5 -9q-3 -19 -8 -28h-3q0 -13 -2 -17h-2q0 -6 -2 -8l-4 -8q0 -4 -2 -6q0 -2 -2 -4q0 -9 -2 -11v-8h-2v-6h-2v-6h-2v-4h-2q-2 -6 -2 -14h-4v-7h-2v-6 h-2q0 -14 -2 -20h-2v-6h-2v-9h-3v-4q-2 0 -4 -2v-6h-2v-6h-2v-8h-2v-14h-2v-5h-2q-2 -6 -2 -20q2 -2 2.5 -5.5t1.5 -4.5q2 0 6 -4q1 -2 4.5 -5.5t4.5 -5.5q2 0 4.5 -1t3.5 -1q17 -10 32 -10q27 0 29 2h8v2l25 21v4q2 2 4 2l6 10h4q2 0 2 4l11 6v4l6 4v7h2q0 4 2 4q0 3 1 8 t1 8q1 0 2 1t2 1v6h2q0 2 1 4.5t1 3.5h2q2 8 2 23q2 4 10 12h13q2 -2 5 -6t5 -6h2v-4q4 -2 8 -6l4 -10q6 -6 8 -7v-4q15 -12 31 -28v-4q1 0 6 -5v-4q7 -7 13 -10v-4q3 -2 5.5 -4.5t5 -5.5t3.5 -4v-4q2 -1 5 -3.5t5 -3.5v-4q11 -2 21 -22q4 0 4 -2v-4q2 -1 5 -3.5t5 -3.5v-4 q0 -2 4 -2v-4l12 -12v-4q5 -5 21 -17v-4l18 -18v-4l4 -2v-4q6 -3 9 -6q1 -2 2 -5t2 -4l4 -4v-4q2 0 6 -4q1 -2 2 -6t2 -6l8 -6q1 -3 3 -10.5t3 -10.5l4 -2v-4q1 0 3.5 -1t3.5 -1v-4q0 -2 4 -2v-4q4 -4 6 -4v-6h2v-5h2v-6h2l2 -8h2v-4l4 -2v-4h2q2 -4 8 -10h4q5 -5 7 -9h4v-2 q2 0 10 -4q9 0 29 4q2 2 7 6.5t7 6.5v6q4 0 4 2v4q4 0 6 2l6 8q2 1 6.5 2t6.5 2v2h6v2q2 2 6 2l4 7h2q0 6 2 8q2 0 4 2v4q1 1 3 2t3 2v4q1 0 2 1t2 1l7 8q0 16 -7 23q0 2 -2 4q0 2 -2 4q0 2 -1 4.5t-1 3.5h-2v6h-2v4h-2v5h-2v4h-2v4h-2v4h-4v4h-2v4h-2v4l-4 6v4q-2 0 -4 2v5 q-2 1 -6.5 4t-6.5 4l-6 20q-9 5 -31 23v4l-4 2q-2 4 -2 10q-4 0 -6 2q-1 1 -1.5 8t-2.5 9q0 2 -4 2v4l-12 12v4q-2 0 -6 4v4q-1 1 -3.5 2t-3.5 2v4q-6 6 -12 9v6q-4 3 -11 10t-11 10v4h-4q-2 7 -7 9h-2q0 6 -2 8q-2 0 -4 2q0 1 -1 3t-1 3l-8 6v4q-4 4 -6 4v4q-4 4 -6 4 l-6 15q-8 8 -17 14v4l-8 8l-18 19q-3 0 -5 2q-4 4 -6 4v4q-2 2 -4 2l-2 8h-4q-4 4 -4 6h-6l-4 5v4q-2 2 -4 2v4q-4 4 -7 4v4q-15 15 -30 27v4q-3 3 -8.5 8t-8.5 8v4q-4 0 -4 2v4q-1 1 -3 2t-3 2v5q-4 4 -12 8v4h-2q-2 7 -4 8v12q0 7 2 9q0 4 2 6v10h2q2 2 2 8h2q2 4 2 12h2 v4h4v15h2v6h2v4h2v6h2v4h2v6h2q0 15 4 35l3 7q2 6 4 8q4 16 4 22h2q2 4 2 10h2q1 3 3 9.5t3 9.5h2v6h2v4h2q0 12 6 21q0 6 2 8q0 6 2 8q0 4 2 8q0 6 2 10q0 6 3 9v4h2q2 4 2 10l4 2v8h2v4h4q0 9 4 21q0 2 4 2v6q2 0 4 2l4 8q0 4 4 8q0 2 1 6.5t1 6.5h2v6h3v6h2q2 6 2 20h2v4 h4v9l18 30q13 0 21 -8q2 -2 4 -2v-4l4 -4h4q2 -4 8 -10l4 -2v-7q4 0 4 -2q2 -2 2 -6l17 -10v-4q2 -2 4 -2q0 -2 4 -6v-6q2 0 4 -2v-5q3 -2 8 -6t8 -6v-4q4 -4 7 -4v-4q0 -2 4 -2v-6q2 0 4 -2v-4h2q0 -1 1 -3.5t1 -3.5q1 0 2 -1t2 -1v-4q4 -4 6 -4v-4q4 -2 10 -8v-4q2 0 4 -2 v-4q1 -1 3.5 -2t3.5 -2v-5q2 -1 5 -4t5 -4v-4q5 -3 8 -8v-4q4 0 8 -4v-4q2 -2 4 -2v-4l4 -5v-4h2v-4q2 -2 5 -2v-6q8 -4 10 -8t2 -10l4 -2v-5h4v-4h2v-6l4 -4v-4q2 0 4 -2v-4q2 -2 6.5 -5t6.5 -5v-4l4 -2q2 -2 2 -9h2v-4l8 -4q0 -4 2 -6t4 -2v-4l4 -4v-4h2v-4q1 -1 3 -3.5 t3 -3.5v-4q2 0 4 -2l7 -28h2v-4q3 0 6 -3q0 -6 2 -8t4 -2v-4h2v-4h2v-4h2v-6h2v-8h2q0 -1 1 -4t1 -5l6 -4v-4q1 0 3.5 -1t3.5 -1l2 -4h6v-2h4q0 -4 2 -4q3 -3 16.5 -5t20.5 -1v2h4v4h6v2h4q2 2 2 4h4q1 1 3 4t3 4h6q0 1 5 6l8 2q3 6 6 9l4 2v6q4 0 4 2q2 2 2 8q1 0 3 1t3 1 q0 6 2 8l19 19q0 2 2 4l4 8q0 19 -6 27q-2 0 -4 2l-2 8q-1 1 -3.5 2t-3.5 2q-4 8 -4 12q-4 4 -8 6v5q-2 0 -4 2q0 4 -2 8q-2 2 -4 2v4q-1 1 -4 3t-4 3v4h-2v4h-2v8h-2v7h-2q-2 2 -2 8l-11 6v4h-2v4h-2v6h-2v6h-2v7q-1 0 -2 1t-2 1q0 2 -1 5.5t-1 4.5q-2 2 -4 2q0 2 -1 5 t-1 5q-2 0 -6 4q-4 8 -4 13q-1 1 -4.5 2t-4.5 2v4q-2 4 -10 8v6q-2 0 -4 2v2q-2 0 -4 2l-2 8l-4 2v5q-4 4 -6 4v4q-2 1 -5.5 4t-5.5 4v4h-2q-2 3 -3 7.5t-2 7.5t-3.5 6t-7.5 4q-1 4 -4 8q-1 3 -2 4h-2l-6 12q-2 2 -4 2v4q0 2 -5 2v4q-5 5 -6 5v6q-2 0 -4 2v4q-2 0 -6 4v4 l-4 2v4q-4 3 -20 19v4q-4 4 -29 24q0 7 -4 15h-2q0 1 -1 3t-1 3q-1 0 -2 1t-2 1v4q-9 9 -21 18v4q-3 3 -9 8.5t-9 8.5v4q-2 2 -4 2v4q-1 2 -5.5 3.5t-5.5 2.5l-12 12h-4q0 1 -1 2.5t-1 2.5l-8 6q-4 8 -4 14q-6 3 -9 6v4l-6 4h-4q-2 2 -6 7.5t-6 7.5q0 10 2.5 19t7.5 20t6 14 v6h2v6h4v6h2v7h2v8h3v4h2q0 6 2 8h2q0 4 2 6q0 7 4 23q0 4 4 8q0 2 1 5t1 5h2q2 6 2 19h2v6h2v4h2v6h4v10h2v12h2q0 5 4 13h3q0 4 2 4q5 20 6 22q0 5 4 9v10h2v10h2v10h2v6h2q2 2 2 9h4q0 10 4 26h2v6h2q0 7 4 9q0 4 2 6q0 5 3 8q0 4 2 8q0 6 2 10q0 4 2 4q2 3 2.5 10t1.5 9 h2q20 78 24 90l7 14v4q10 10 10 11h16q2 -2 7.5 -6.5t7.5 -6.5v-6q4 0 4 -2v-2q2 -1 5 -3t5 -3v-4q2 -2 4 -2q0 -6 2 -8q0 -2 4 -2v-4q3 -3 4 -3v-6q2 0 4 -2q4 -8 4 -12l7 -4v-4q4 -4 8 -4v-4q0 -2 4 -2q0 -7 2 -9h2v-4q2 0 6 -4l2 -8h2q0 -1 1 -3t1 -3l4 -2q2 -4 2 -12 q1 0 6 -5v-4q1 0 3.5 -1t3.5 -1q0 -4 2 -6h2v-4q0 -2 4 -2q0 -2 1 -5t1 -5q2 0 4 -2v-4q1 0 6 -5q2 -2 2 -8l6 -4q2 -2 2 -6q2 -2 6 -2q0 -6 3 -12h2q0 -4 2 -6t4 -2v-5q1 0 2 -1t2 -1v-4q1 -1 4 -3t4 -3q4 -8 4 -14q4 0 4 -2v-4l8 -4v-5q2 -2 4 -2v-4q0 -2 5 -2q0 -2 1 -6 t1 -6q2 0 4 -2v-4q2 0 4 -2v-4l4 -2v-4h2v-5h2v-6h2l6 -14h2v-4h2v-4h2q0 -4 2 -6q0 -2 5 -2v-4q3 -3 4 -3l2 -8h2v-4q4 0 4 -2v-4l4 -2q2 -2 2 -8h2v-4h4v-4h2v-7l4 -4v-4q2 0 4 -2v-4q1 0 2 -1t2 -1v-4h2v-6q2 -2 5 -2q0 -2 1 -5t1 -5q1 0 6 -5v-4q4 0 4 -2q1 -1 2 -4 t2 -4q2 -2 4 -2q0 -4 4 -12l4 -4q0 -2 4 -6q0 -1 1 -5t1 -6q1 0 2 -1t2 -1l3 -8l4 -2q2 -4 2 -10h2q2 -2 2 -8h4v-7h2q0 -6 2 -8h2q0 -6 2 -8q0 -2 4 -2v-8h2v-6h2v-11h2v-4h2v-4h2v-4h2v-8h2v-6h3q2 -4 2 -12q3 -3 6 -3q2 -4 6 -8h4q2 -3 6 -8t6 -8h21q1 0 5 3t6 3.5 t7 -0.5v-2q12 -4 19 -4q1 3 12 8l8 12l9 4q10 3 12 5q0 9 6 18q0 2 1 5t1 5q2 0 4 2v4q1 1 3 2t3 2v5q1 1 3 2t3 2v4h4q3 5 4 6q-1 18 -18 51l-6 12q0 1 -1 3.5t-1 3.5q-2 2 -4 2v8h-2v4q-5 0 -5 2q-4 8 -4 12l-8 4q0 6 -2 8q0 3 -4 3v6q-1 1 -4 3t-4 3v4h-2q-4 8 -4 12h-2 q-2 4 -2 15h-2q-3 9 -3 18h-4v4h-2q0 4 -2 4h-4q-2 4 -10 12q-6 28 -6 29v6h-2v6h-2q-2 2 -2 9h-2q-2 2 -2 8q-2 2 -7 2q0 2 -4 14q-2 0 -4 2v4q-2 0 -4 2v4q-1 0 -2 1.5t-2 1.5v4z" />
<glyph unicode="f" d="M1010 1051h4q4 -4 4 -7q3 -1 9 -2t9 -2v-2h8v2q3 1 9.5 2t9.5 2v3q2 2 8 4l12 18h4q1 3 3.5 7t3.5 5h2q1 1 2 3t2 3q2 1 4 3v4q17 26 12 41q-1 2 -7 13.5t-7 18.5h-6v4q-6 1 -15.5 8.5t-11.5 8.5q-4 2 -12.5 5t-12.5 5q-2 2 -2 4h-4q-2 2 -2 4q-2 0 -4.5 1t-3.5 1 q-2 2 -2 4l-8 2v3q-8 4 -12 4l-2 4q-2 2 -7 2q-4 4 -8 12h-6q-1 1 -3 4t-3 4h-4q-1 1 -2 3t-2 3l-8 2l-3 5h-4q-1 2 -3 5t-3 5q-6 0 -10 2q0 2 -4 6h-4q-2 2 -2 4h-4q0 1 -1 2t-1 2h-4v2h-5v2h-8v2h-4v2q-8 4 -12 4v2q-6 3 -12 3v4q-7 0 -11 2v2h-4v2h-6v2h-4v2q-4 0 -12 4 q-3 0 -11 4q-4 0 -12 4t-12 4v2h-4v2q-3 2 -10 2.5t-9 1.5v5q-4 0 -12 4v2h-12v2h-8v2q-5 0 -7 2q-4 0 -6 2h-4q-2 2 -2 4q-2 1 -6.5 2t-7.5 2q0 4 -2 4q-2 2 -8 2v2q-5 1 -15.5 4t-15.5 4v2h-4v3h-6v2h-7v2q-4 0 -4 2h-4q-2 2 -2 4q-4 0 -12 4q-6 0 -8 2q-8 4 -13 4v2h-4v2 q-6 2 -16 2v4q-7 3 -7.5 13.5t-2.5 15.5v6l-4 4v4h-2v4h-2v7q-5 0 -5 4q-5 0 -14.5 -1t-13.5 -1q-1 0 -3.5 1t-5 1.5t-6.5 -0.5q0 -2 -2 -4h-4q0 -3 -2 -5h-4v-2q-12 0 -18 2q-2 2 -2 5q-3 1 -8 2t-7 2l-6 8h-4l-2 4h-4q-2 2 -2 6h-8v2q-4 0 -8 2v2h-7v2q-20 0 -26 -4 q0 -4 -2 -8q-2 0 -6 -4l-5 -6l-18 -6l-6 -7q-2 -2 -8 -2l-2 -4h-4q-2 -2 -5 -8q-8 0 -10 -2v-2h-8l-4 -4v-12h-2q0 -13 -2 -21h2q3 -9 14 -12q0 -6 4 -8h2v-4h2q1 -1 2 -3.5t2 -3.5l5 -4v-4q2 0 6 -4v-4q4 -2 8 -6v-4q3 -2 7.5 -5.5t6.5 -4.5v-7q6 -3 13 -10v-4h4q4 -4 4 -6 h4l8 -8h2v-4l4 -4v-5q2 0 6 -4l2 -8h2v-43q7 -25 7 -43q0 -7 -1 -22.5t-1 -22.5q-5 -40 -5 -49v-10q7 -22 5 -27l-7 -18q-2 -2 -4 -2v-9h-2q0 -5 -1 -16t-1 -16h-2v-13h-2v-6h-2v-8h-2q-2 -16 -2 -47h-4v-8h-2v-11h-2v-8h-2v-6h-2v-6h-2q0 -2 -4 -10q0 -5 -3 -8q0 -5 -2 -7 q0 -6 -2 -8q0 -6 -2 -10v-8h-2v-6h-2v-11h-2v-12h-2v-8h-2v-12h-2v-9h-4v-4h-2v-12h-2q0 -6 -2 -8h-2q0 -8 -4 -12q0 -5 -2 -7q0 -7 -5 -22q0 -2 -2 -4v-6l-4 -2v-7q-4 0 -6 -2q-2 0 -2 -4h-6v-2h-4q0 -2 -2 -4h-4q0 -1 -1 -2t-1 -2h-4v-2l-9 -6q-7 -46 -2 -60h2v-4h2 q2 -4 3.5 -15t-0.5 -17q-3 -9 -3 -17h-2v-4h-2v-12h-2v-8h-2v-6h-4v-9h-2v-8h-2v-8h-2v-8h-2v-4h-2q0 -7 -4 -11q0 -6 -2 -10q0 -4 -2 -8q0 -6 -2 -8q0 -4 -1 -11.5t-1 -11.5h-2v-6h-2q-2 -2 -2 -8h-3q-4 -12 -4 -18h-4v-17h-2v-8h-2v-6h-2v-19h-2v-6h-2q0 -4 -4 -8 q0 -4 -2 -6q0 -4 -2 -4q0 -9 -4 -21v-6h-2q-2 -6 -2 -20h-2v-6h-2v-13h-2v-6h-5v-8h-2v-16h-2v-17h-2q0 -10 -2 -16h-2q0 -2 -2 -4q0 -5 -4 -13q0 -10 -2 -16q0 -4 -2 -6q-2 -5 -1 -18.5t-1 -18.5h-2v-4h-2q-2 -6 -2 -17h-2v-6q-4 0 -6 -2v-6h-2v-6h-3v-6h-2v-6h-2 q0 -22 -6 -43q0 -5 -4 -17q0 -4 -2 -6q0 -4 -2 -6v-6h-2v-8h-2v-6h-2q-2 -6 -2 -19h-2q-2 -6 -2 -18h-4v-6h-2v-5h-2v-6h-2q0 -6 -5 -26q-1 0 -2 -1t-2 -1v-4q-1 -1 -3 -2.5t-3 -2.5q0 -2 -1 -5.5t-1 -4.5l-4 -4v-4h-2v-4h-2q-2 -6 -2 -16q-14 -29 -21 -33q1 -5 2 -16.5 t2 -16.5l5 -2v-4h2q2 -4 2 -12q13 -13 16 -15v-4h2v-4l4 -4q26 -13 43 -6v2h6v2q5 1 8.5 0.5t6.5 0t6 3.5q4 1 5.5 2t2 2.5t1 3.5t1.5 4l8 6v7q4 0 4 2q2 2 2 8q1 0 3.5 1t3.5 1q0 6 2 10h2v6h2v4h2v6q1 0 4 3q0 2 4 10q0 2 2 4q0 2 2 4q4 8 4 12h2q2 6 2 15q1 0 3 1t3 1v4 h2v4h2v6h3v6h2v8h2v9h2q0 8 4 16q0 6 2 10q0 4 2 6q0 2 2 4q0 2 1 7.5t1 7.5h2v6h2v8h2q5 22 8 27h2q0 27 2 39h2q0 10 2 16q3 2 5 2l2 20h2q0 7 4 19q0 4 2 6v6h2v8h2v19h2v6h2v18h2v13h4v4h2q0 12 2 18h2v6h2q0 11 6 23q0 6 5 31q0 4 2 6q0 12 2 18v17h2q2 4 2 14h2v6h2v6 h2v15h4v12h2v4h2q0 12 2 18h2q0 6 6 15q0 4 2 6q0 5 5 35q0 4 2 6q0 2 1 7t1 7h2v4h2v17h2v10h2v6h2v6h4v8q2 0 4 2q0 5 2 9h2q0 6 4 8q0 1 2 8t4 12q1 1 2 3t2 3q2 1 3 0l2 2q14 0 26 -4v-2h4v-2q4 -2 11 -2q2 -2 2 -6q10 0 14 -2v-2h4v-2h4q2 -2 2 -4h6v-2h4v-2h9v-2 l12 -6h4v-3q2 -2 8 -2l2 -4l21 -8v-2q4 0 12 -4v-2q4 0 4 -2q4 0 4 -2q4 0 6 -2q4 0 6 -2q2 -1 6.5 -2t6.5 -2v-2h4v-2h6v-2q10 -5 14 -5q0 -4 2 -6q7 0 9 -2t2 -4h4l4 -4h4v-2h4v-2h6v-2h4v-2h4v-2q8 -4 13 -4v-2q4 -2 10 -2l4 -4q2 -2 8 -5q0 -2 2 -4q4 0 6 -2v-2 q5 0 13 -4q2 -2 2 -4h4v-2h6q0 -2 2 -4q8 -4 12 -4l2 -4q2 -2 6 -2q1 -2 2 -3.5l2 -3t1 -2.5h4l4 -4q4 0 6 -4h4q0 -1 1 -2t1 -2h4q1 -1 2 -3t2 -3h4q4 -4 4 -6h4q8 -8 9 -10h4q0 -2 2 -4q5 0 8 -3q2 -2 2 -4q1 0 3 -1t3 -1l6 -8h6q0 -4 3 -4h6v-2h8v-2h4v-2h6v-2h4v-4 q8 -2 31 -2q2 2 4.5 3t3.5 3l4 4h2v4q3 6 11 14h4q2 3 7 9.5t7 9.5q4 0 4 2v4h4v6h2v12q0 2 4 2v5h2l4 12q0 2 -1 5t-1 5h-2v4l-4 2v4h-2v4q-1 1 -4 3.5t-4 3.5v2h-4q0 2 -2 4h-4q-6 6 -8 10h-5q-2 2 -2 4q-1 0 -3 1t-3 1v2h-6q0 4 -2 4h-4q-1 2 -3 5t-3 5h-4q-2 3 -2 5h-4 q-1 1 -3.5 4t-3.5 4h-4l-6 4h-4v2h-4q-1 1 -2 3t-2 3h-4l-2 4q-4 2 -8 2l-11 12h-4q0 3 -2 5l-18 6q-2 2 -2 4h-4q-1 1 -3.5 3t-3.5 3q-2 2 -8 2q0 4 -2 6h-4v2q-6 0 -8 2v2q-8 0 -10 2v2q-2 0 -4.5 1t-3.5 1q0 2 -3 5h-4l-4 4h-4v2h-4v2h-4l-2 4h-4v2h-8v2q-2 2 -9 2v4h-6 v2h-8v2q-6 0 -8 2v2h-6q0 2 -2 4h-4q0 2 -2 4q-3 1 -12 4.5t-15 4.5q0 4 -2 4q-8 4 -12 4q0 1 -1 3t-1 3q-9 0 -13 2v2h-4v2h-6v2q-2 0 -4 2l-12 6q-7 0 -15 4q-2 1 -5 2t-5 2t-4 1q0 4 -2 4h-4l-4 6q-5 0 -13 4v2h-6v2h-4v2h-6l-4 6q-2 0 -5 1t-5 1q-2 2 -2 4h-6 q-1 1 -3.5 3t-3.5 3l-18 7v4q-6 0 -8 2v2q-11 0 -15 2v2h-4l-4 4q0 5 4 25h2q5 20 5 26h2v6h4v6h2v7h2v10h2v8h2v12h2q6 22 8 27q0 4 2 6q0 9 4 21v4h2q2 8 2 24h2v4h2q1 2 3.5 6.5t3.5 6.5h2q0 22 2 34h2v9h2v10h2q0 6 2 10q0 4 2 6q0 9 2 13q0 22 2 32q0 5 4 17v8h2v4h2 q2 20 2 63h2v7h2v12h4v10h2v10h3v21h2q0 44 2 67q-2 8 -2 23h2q1 2 0.5 10.5t1.5 9.5q0 1 1 3.5t1 3.5h18v-2h6v-2h4v-3h4v-2h7v-2l8 -2v-2q25 -8 35 -10v-2q2 -2 8 -2v-2q2 -1 5 -2t5 -2q0 -2 2 -4h6v-2h4q2 -2 2 -4h5v-2h6v-3h6v-2h8v-2h6q0 -2 2 -4h6v-2h4v-2h5v-2 q8 -4 14 -4v-2q2 -1 6 -2t6 -2v-2q6 0 8 -2v-2h6q3 0 3 -4q2 -1 7 -2t7 -2q0 -3 2 -5q2 -1 6 -2t6 -2v-2h4v-2q8 -4 15 -4v-2l18 -6v-2q4 0 12 -4v-2q4 0 6 -2q1 0 4 -1t5 -1q0 -2 2 -4h4q0 -1 1 -2.5t1 -2.5h4l2 -4h4v-2q2 -2 6 -2v-6q9 0 15 -6q2 -2 2 -4h4q0 -1 1 -2 t1 -2l8 -2l10 -10h4q0 -5 2 -5h4q2 -2 5 -8h4q2 -2 2 -4q4 0 6 -2v-2q6 0 8 -2l4 -4q2 0 4 -2h4q0 -2 2 -4l9 -2z" />
<glyph unicode="g" d="M745 506h5q4 -4 4 -6h6q0 -2 4 -6h4q1 -1 2 -3.5t2 -3.5q2 -1 6 -2t6 -2l2 -4h5l4 -4h4v-2q2 -2 8 -2l12 -16h4q2 -2 2 -4h6q0 -2 5 -7h4q5 -5 15 -16t15 -16q9 -9 13 -11v-4l4 -4v-4q4 -2 12 -10v-4l8 -4q0 -9 2 -13q4 -20 4 -34v-21v-8q0 -82 -16 -131v-10h-2v-4 q-2 -3 -4 -3v-4q-2 -2 -4 -2v-4q-9 -14 -10 -16q-2 -2 -6.5 -5.5t-7.5 -6.5t-5 -7h-4q0 -1 -1 -3.5t-5 -2.5v-6q-4 -1 -6 -2.5t-3.5 -4t-2.5 -3.5h-5l-6 -6h-4q0 -2 -2 -4h-4l-2 -4q-3 -3 -6 -3v-2q-4 -1 -11.5 -4t-11.5 -4v-2q-6 0 -8 -2v-2q-8 0 -12 -4q-4 0 -6 -2 q-6 0 -8 -2q-5 0 -7 -2q-4 0 -6 -2q-15 0 -47 -4q-15 -4 -49 -8h-68v2h-8v2q-6 0 -12 6q-3 0 -9 1t-9 1q-3 3 -3 4h-6q0 2 -4 6h-4q-1 1 -2 3t-2 3h-4l-4 8q-6 0 -8 2q-2 0 -2 5q-7 0 -15 4q0 2 -2 4h-4q-8 10 -26 28h-5v2q-10 10 -14 11q-1 5 -10 14h-4v6q-2 0 -6 4v4 q-1 1 -3.5 2t-3.5 2v5q-8 8 -12 10v4q-2 2 -6 2q-2 2 -2 6l-10 6v4l-6 4v5q-4 4 -7 4q0 2 -1 4.5t-1 3.5l-4 4v4q-4 0 -4 2v4l-4 2v4h-2v4q-1 0 -3 1t-3 1q0 7 -2 9q0 2 -4 2q0 6 -4 14q-1 0 -2 1t-2 1v4l-5 4v4h-2v4l-4 2q-2 4 -2 11q-4 0 -4 2v4q-4 0 -6 2v4q-2 2 -4 2v4 q-2 2 -4 2q0 4 -4 8q0 5 -2 7v4l-4 4v4q-1 0 -2 1t-2 1q-3 3 -3 6h-2v4l-4 4v4h-2v6h-4v5q-2 0 -4 2v4h-2v4h-2v6h-2v4h-2v4h-2q0 1 -1 3.5t-1 4.5q-2 0 -4 2q0 1 -1 4t-1 5h-2v4h-2v4h-2v4l-5 4v4q-2 2 -6 2v6q-2 0 -4 2v4h-2v11h-2v6h-2v6h-2v8h-2v12h-2v7h-2q0 4 -1 12 t-1 12h-2v8h-2v13h-2v30h-2v74h2v37h2v8h2v6h2q0 21 2 29q5 20 6 22q0 3 2 5q0 2 1 6t1 6h2v14h2v6h2v6h2v7h2v4h4q0 8 2 14h3v4h2v6h2v4h2q0 1 2 8.5t4 12.5q0 2 2 4q1 2 2 6t2 6h2v8h2v7h2q2 4 2 10h2v4q4 0 6 2q0 6 2 8t4 2q0 3 5 6q1 2 2 7t2 8q2 0 4 2v4h2v4h2v4h2v4 l4 4v4q4 2 10 8v5q1 1 4.5 3.5t5.5 4.5v4q7 9 25.5 26t20.5 19q4 5 13 14.5t13 14.5h4q2 2 5.5 6t5.5 6h4q4 4 4 6h6q0 4 2 6q4 0 12 4v2q4 0 6 2q0 1 1 2t1 2h7q2 2 2 5l8 2v2l18 6v2h4v2h4q2 2 2 6q7 0 15 4v2q12 0 18 2v2q4 0 6 2q7 0 9 2q4 0 8 2q8 0 32 4q16 0 31 3 q13 0 25 -3q23 0 33 -2h30q75 -6 78 -6q6 0 10 -2h9v-2h14v-2h14v-2q8 -2 23 -2v-2h6v-4q6 0 8 -2v-2h10v-2h8v-2h7v-2l12 -6q4 0 4 -3q2 -1 7 -2t7 -2q0 -4 2 -4q8 -4 13 -4l6 -10q6 0 8 -2l4 -4h4v-2h4q1 -1 3 -4t3 -4h5q1 -1 3 -4.5t3 -4.5h4q1 -2 3 -5t3 -5 q29 -23 37 -26h14v-3h8v-2h4q18 0 29 11h2l2 2l2 4l4 2v4h2v6h2q2 4 2 10h3v4h2v5h4v6h2v6q0 2 4 2q0 6 2 10q2 0 4 2v4q0 5 -1 15l-1 10l-4 2v6h-2v4q-4 0 -4 2v4h-4l-7 8h-4q0 3 -4 5q-2 2 -10 14h-4q-2 0 -2 4h-4q-3 3 -9.5 9t-9.5 9h-4v2h-4l-2 5q-8 4 -14 4q0 4 -4 8 q-5 0 -13 4q-8 8 -10 12l-20 6v2h-4v2h-5v3l-12 6v2q-11 0 -31 4v2q-6 0 -8 4q-8 0 -24 4q-4 0 -6 2q-5 0 -7 2q-3 0 -9 1t-9 1v2h-31v2h-24v2h-17v2h-41v2h-8v5h-20v2h-64q-8 2 -24 2q-33 0 -62 -11h-12v-2q-7 0 -27 -4v-2q-2 0 -4 -2h-6q0 -1 -1 -2t-1 -2h-4v-2 q-7 0 -19 -4q-4 -2 -12 -2v-2q-2 -2 -8 -2v-2h-6q-3 -6 -8 -11h-4q0 -1 -5 -6h-4v-2q-1 0 -3 -1t-3 -1q0 -1 -1 -2t-1 -2h-4q-1 -1 -3 -4t-3 -4h-6v-2q-2 -2 -8 -2v-2h-7v-2h-6v-4h-4v-2h-6v-2h-8v-2q-5 0 -12 -7h-5q0 -1 -1 -2t-1 -2h-4q-8 -8 -10 -12h-6l-4 -8h-4 q-15 -15 -21 -23h-6q-4 -8 -8 -10l-4 -4v-4q-2 0 -6 -4v-4q-4 -3 -11.5 -8.5t-11.5 -8.5v-4q0 -2 -4 -2q0 -6 -2 -8q-4 -2 -12 -10v-4l-4 -2v-5q-4 -4 -7 -4v-4q-2 -2 -6 -5t-6 -5v-4q-2 -2 -4 -2v-4l-4 -4h-4q-1 -1 -2 -3t-2 -3h-4q-2 -2 -5.5 -6.5t-5.5 -6.5h-2 q-5 -20 -8 -26q-2 -2 -4 -2v-5l-12 -12v-4l-4 -2v-4l-4 -2v-4h-4v-4h-2q0 -7 -3 -13q-2 0 -4 -2v-4h-2l-2 -8h-2v-20h-2v-5h-2v-4q-1 0 -2 -1t-2 -1q-4 -12 -4 -20h-2q-2 -4 -2 -10q-4 0 -6 -2v-5q-2 -2 -4 -2v-6h-2v-8h-3v-10h-2v-10h-2v-9h-2l-6 -20h-2v-4h-2v-10h-2v-9 h-2v-18h-2v-10h-2v-6h-4v-7h-2q0 -10 -2 -16h-2v-12q-2 -8 -2 -29q0 -32 6 -74q0 -1 1 -4t1 -4q0 -6 -6 -24q-1 -5 1.5 -11.5t2.5 -7.5v-63h2v-11h4v-4h2q0 -12 2 -18h2v-6h2v-6h2q0 -7 4 -19q0 -8 2 -12v-4q1 0 2 -1t2 -1v-4l4 -2v-4h3v-7h2v-6q4 0 4 -2v-4l6 -4v-4h2v-4 q2 -2 4 -2v-4l4 -4v-7h2q0 -1 1 -4.5t1 -5.5q1 0 2 -1t2 -1v-4q1 -1 3 -2t3 -2v-4l5 -4v-4h2v-6q3 0 6 -3q0 -4 2 -6h2q0 -4 4 -12q1 0 2 -1t2 -1q0 -4 4 -8q0 -4 2 -6q0 -2 2 -4q0 -3 2 -5v-4h2v-4h2q2 -4 2 -10h2v-4q2 -2 7 -2v-6h2v-6h2v-4h2v-7h2v-4h2v-6h2q0 -1 2 -6.5 t4 -7.5q0 -1 1 -3.5t1 -4.5l4 -2q4 -8 4 -13l4 -2v-4q6 -3 9 -6v-4q4 -5 11 -15.5t11 -15.5q5 -2 23 -16v-4q4 -4 6 -4q1 -2 2 -7t2 -8q4 0 4 -2l14 -14h4v-2l6 -4q2 -4 9 -11l4 -4v-4q4 -3 11 -9t11 -9q2 -4 6 -8h5v-2q6 -6 8 -7v-4q5 -1 16 -12h4q0 -1 1 -2t1 -2 q8 -4 13 -4q4 -4 4 -6h8v-4q4 0 8 -2v-2q6 0 8 -2q2 -3 2 -5h6v-2q5 0 9 -4q6 0 8 -2q2 0 4 -2q4 0 6 -2q1 0 4 -1t4 -1v-2h4v-2h4v-2h7v-2h4v-2h4v-4q16 0 24 -2v-2h9v-2h10q34 -8 49 -4v2h14v2h29v2h14v2h6v2h27v4h16v2h11v2h20v2h6v2h4v2q7 0 9 2q2 0 21.5 2t29.5 4 q4 0 6 2q12 4 18 4v2q6 3 11 3v2h4q0 4 2 4q1 1 4 2t4 2q2 2 2 4q4 0 6 2l6 8q2 0 5 1t5 1q0 1 3 4q13 9 16 13h4v6q6 0 10 4v2h4q0 2 2 4h2q0 1 3 4l8 2q4 6 12 14h6q1 2 3 5.5t3 5.5h4q0 1 1 3t1 3l9 6q0 2 2 4q4 4 4 6l4 2v4l4 4v4q3 0 8 5v4q2 2 12 11t15 15v4l6 4v5h2 v4h2v4h2q0 6 2 8q0 2 4 2v6q2 0 4 2v4q2 0 4 2l2 9h2q2 5 3 20t0 21h-3q0 16 -2 24h2v4q2 2 15 5t16 5t6 11h2v8q4 0 4 2q3 3 3 6q2 0 5 1t5 1q1 4 5 8.5t5 7.5v9h2v4h2v4q2 0 4 2v4h2v8q2 2 2 8q0 1 -1 7t-1 10q-2 2 -4 5t-3.5 5.5t-4.5 4.5t-6 3q-2 5 -8.5 12.5t-8.5 12.5 h-4q0 5 -6 8q0 4 -2 4q-1 1 -2 3t-2 3l-4 4v4l-4 5v4h-2v4q-1 0 -3 1t-3 1v4h-2v4h-2l-7 29q-1 0 -2 1t-2 1q0 6 -4 10q0 4 -2 6q0 4 -1 12.5t-1 12.5h-2v4h-2q-2 4 -2 14h-2q-2 2 -2 8h-4v4h-2q0 7 -4 23h-2v4h-2q0 4 -2 6q-5 10 -7 12q0 4 -2 4q-4 8 -4 15h-2q-4 4 -4 6 q-12 0 -20 4h-13v2q-3 1 -9 2t-9 2v2h-4v2q-6 1 -7.5 0.5t-4 -3l-3.5 -3.5h-4v-2h-4v-2h-10v-2q-1 0 -4 -1t-4 -1q-14 0 -29 10h-6l-2 4h-8v2q-4 2 -8 2v2h-5l-4 7q-4 0 -12 4l-4 6h-4q-4 4 -4 6l-21 6q0 2 -4 6h-4q-1 2 -3 5.5t-3 5.5q-4 0 -6 2q-2 0 -2 4h-6q-1 1 -3 4 t-3 4h-5q0 1 -1 2t-1 2h-4q-1 1 -2 3t-2 3h-4q-1 2 -3 5t-3 5q-6 0 -10 2q0 2 -2 4h-4q0 2 -5 7q-3 1 -7.5 1.5t-8.5 1.5t-8 3q-2 1 -6 2t-6 2v2h-4v2h-7v2q-29 15 -43 10v-2h-6v-4h-8v-2h-6v-2h-6q-2 -2 -2 -4q-7 0 -9 -2v-4q-4 -1 -11 -5t-9 -5h-4q-1 -2 -4 -6.5t-4 -6.5 l-29 -12l6 -18v-27h2v-6h2v-6l4 -2v-7q5 0 9 -4v-2h4q0 -2 2 -4q2 0 10 -4q4 0 4 -2q4 0 4 -2q8 -4 14 -4v-2h7v-2h4v-2q8 -2 26 -2q0 -4 2 -6h7v-3h6v-2h4v-2h4q2 0 2 -4q2 -1 7 -2t7 -2q0 -2 2 -4l9 -2v-2q2 -2 8 -2v-2q16 -5 20 -8q0 -2 4 -6q6 0 8 -2q3 -3 3 -5 q2 0 6 -4q2 0 5 -1t5 -1q0 -2 2 -4h4q0 -4 2 -4h4v-2h4v-2h4z" />
<glyph unicode="h" d="M530 748h5q1 -1 2 -3.5t2 -3.5h4q6 -6 14 -18h6q0 -2 2 -4h4q0 -2 2 -4h4l3 -4h4v-2q2 -2 6 -2q2 -2 2 -7h4q8 -6 14 -14h4q0 -1 1 -2t1 -2h4q0 -1 1.5 -2t1.5 -2q2 -2 6 -2q4 -4 4 -6h6q1 -2 20 -27h5v-2q6 -6 12 -6q0 -10 16 -21v-4h4q2 -8 11 -16q2 -2 6 -2 q0 -6 4 -14h2q0 -5 2 -7t4 -2v-4q1 -1 4 -3t4 -3q13 -36 21 -51v-10h2v-6h2v-5h2q0 -1 1 -3.5t1 -4.5q0 -8 -8 -24v-17h-2v-6h-2v-12h-5q0 -13 -2 -21h-2v-22h-2v-8h-2v-11h-2q0 -10 -2 -14q0 -6 -2 -8q0 -4 -2 -6q0 -9 -2 -13q0 -16 -2 -22q0 -4 -2 -4q-2 -8 -2 -25h-2v-6 h-2v-12h-2q-2 -6 -2 -19h-4q0 -16 -2 -24h-3v-4h-2v-11h-2v-28h-2v-17q-2 -8 -5 -24.5t-5 -24.5v-18h-2v-6h-2v-13h-2v-8h-2v-10h-2v-23h-2v-8h-4v-4h-2q0 -8 -2 -12h-2q0 -19 -2 -27h-3v-6h-2q0 -4 -2 -4q0 -4 -4 -16q-2 -6 -4 -25.5t0 -24.5q0 -7 2.5 -12t7.5 -10t7 -8 q12 -2 43 -2l16 12q0 4 2 4q2 3 1.5 4t2.5 4v2q9 3 21 9h4q0 2 4 6q8 4 12 4q8 12 10 18l6 27h2v16h3v8h2v9h2v14h2q0 9 4 33q0 18 2 28q0 7 2 11q0 4 2 8q0 12 2 18v10h2v9h2v10h2q2 8 2 22h2q1 9 3 29t3 29h2v10h2v8h2v6h3q0 5 1 15.5t1 15.5l12 39q4 36 4 57h2 q1 5 3 14.5t3 14.5h2q0 6 2 8h2v8h2v11h2q0 4 2 8q0 3 5 28q0 7 4 19q0 6 2 8v8h2v21h2v14h2v8h2v11h2v6h2v6h4v28q1 4 4.5 25.5t7.5 32.5v39h2v22h2v13h3v12h2v16h2v15h2q2 12 2 38h2v5h2v6h2v20l6 17v14h2q4 22 8 29q0 4 2 6v16q2 7 5.5 24.5t5.5 24.5q2 29 2 82h2v12h2v5 h2v32h4v13h2v10h2v16h-2q-3 10 2 21v65h2v25h2v22h2v35q6 24 6 60v38q4 20 4 35q-5 5 -8 11q-4 2 -18 2q-15 0 -21 -4h-4l-2 -5q-8 -2 -22 -2v-2h-7v-2q-4 -2 -10 -2q-14 0 -18 -4q-4 -2 -5 -4t-2 -5.5t-2 -6.5q-1 0 -2 -1t-2 -1q-4 -9 -8 -31q0 -10 2 -14v-33q0 -23 -2 -31 v-43h-2v-6h-4v-16h-2v-43h-2v-17h-2v-31h-2v-36h-2v-4h-2v-15h-2v-31q4 -2 0 -8q0 -23 -2 -35q0 -6 -2 -10q0 -18 -2 -28q0 -5 -2 -7v-4h-3v-8h-2v-26q-7 -15 -4 -29h2v-12h-2v-9h-2q-1 -1 -2 -4t-2 -4h-2q0 -16 -2 -24h-2v-9h-2v-8h-2q0 -14 -2 -20q0 -4 -2 -6q0 -7 -2 -9 q0 -22 -2 -32q0 -4 -2 -4v-7q-1 -1 -19 -6l-12 13v4l-8 6q0 1 -1 2t-1 2h-4q-9 9 -11 10h-4l-4 8h-4q-10 10 -16 19q-3 3 -6.5 5.5t-8 5t-6.5 3.5l-8 12h-4q-2 0 -2 4h-4q-1 1 -4 4.5t-4 4.5h-4q-1 2 -7 8q-2 2 -8 2q0 1 -1 3t-1 3q-6 0 -8 2q-2 0 -2 4h-6q0 2 -2 4h-4 q0 2 -2 4h-5q0 1 -1 2t-1 2h-4q0 1 -1 2.5t-1 2.5h-4l-12 12h-4q0 4 -2 6q-6 0 -8 2t-2 4q-5 0 -13 4q-2 2 -2 4h-6q0 2 -4 6h-4v3h-4l-2 4q-2 2 -8 2q0 1 -1.5 3t-1.5 3q-8 0 -10 2l-4 4h-4q-1 1 -2 3t-3 4t-5 3q0 3 -1 8.5t-1 8.5q0 14 6 26v21q3 8 7 28.5t7 28.5 q0 19 4 59h2v11h2v6h2q0 3 3 6q0 15 4 43q0 4 2 6q0 4 2 6q0 6 2 8q0 9 2 11v26h2v13h2v10h2v14h2v23h2v16h4v21q9 37 6 49h-2v6h-2v12h-2v19h-4v12h-2v4q0 3 1 9.5t0.5 10.5t-3.5 7q0 8 -4 14q-15 0 -21 -4v-2q-10 0 -16 -2v-2l-12 -6q-1 0 -4 -3q-3 -1 -10.5 -3t-10.5 -3 q0 -4 -2 -4q-10 -10 -16 -12q-2 -2 -2 -6h-2v-6h-2q0 -40 2 -60h-2v-30h-2q-1 -8 -2.5 -25t-2.5 -25v-41h-2v-6h-2q0 -12 -2 -18h-2v-8h-2q0 -40 -2 -60q0 -6 -2 -8q0 -6 -2 -8q0 -6 -2 -10q0 -13 -2 -19q0 -4 -1 -10.5t-1 -9.5h-2v-8h-2v-7h-2q-2 -6 -2 -18h-2v-6h-2 q-2 -2 -2 -10q0 -19 -2 -21q0 -5 -0.5 -6.5t-3 -3.5t-3.5 -4q-14 0 -22 4q-4 0 -4 2q-5 0 -17 4q-4 0 -8 4q-1 0 -3 1t-3 1q-4 0 -20 -8q-11 0 -23 -4q-2 0 -5 -1t-5 -1q0 -4 -2 -4h-4l-2 -4h-7q0 -1 -1 -3.5t-1 -3.5q-16 0 -24 -2v-2q-4 0 -6 -2q-3 -3 -5 -20t1 -25 q11 -33 16 -53q12 -4 14 -4v-4h4q2 -2 2 -4h7v-2q8 2 26 2v-2q8 0 12 -2v-2q6 0 13 -7h6l6 -8q8 -4 12 -4v-2q2 -2 6.5 -6t6.5 -6q1 -1 2 -4.5t2 -5.5h2q1 -4 0.5 -7.5t-1.5 -7.5l-1 -4h-4v-26h-2v-15h-2v-8h-3q0 -25 -2 -37h-2q0 -4 -2 -6q0 -6 -2 -8q0 -13 -2 -19 q0 -4 -2 -6q0 -4 -2 -6q0 -6 -2 -10v-6h-2v-15h-2v-26h-2v-15h-2v-10h-2v-12q-3 -7 -5 -16.5t-4 -21t-3 -17.5q-3 -23 -9 -43v-23h-2q0 -2 -2 -14t-4 -19v-12h-2v-8h-2v-8h-2v-11h-2v-28h-2v-11h-4q0 -4 -2 -8h-2v-8h-2v-10h-2q0 -21 -4 -31q0 -8 -2 -10q0 -11 -3 -23v-34 q-6 -21 -6 -48q-4 -30 -8 -45v-53h-2q-1 -4 -2 -14t-2 -15h-2v-14h-2v-51h-2v-35l2 -6h-2v-14q-9 -28 -4 -39q2 -6 2 -19h2v-12h2v-6h2v-4h2v-4q1 0 3 -1t3 -1q0 -7 2 -9h2q1 -2 4 -6t4 -6q13 0 19 -2v-2q10 0 14 -2v2h4q2 2 5.5 7t5.5 7v4h2v5h2v4h2v4h2v4q2 2 7 5.5t7 4.5 q0 6 2 10q2 0 4 2v4q6 4 17 15q2 4 2 10h4v39q0 78 2 117h2v18h2v10h2v11h2q0 8 2 12q0 35 2 51q0 10 2 16q0 7 2 9q0 10 2 14q0 17 2 23v55h2v12h2v10h2q2 12 2 35h3q1 4 3 12.5t3 12.5h2v4h2v8h2v23h2v10h2q-2 14 -2 41h2q0 6 4 14q0 6 2 8q0 11 4 35q0 2 1 6t1 6h2v4h2v7 h2q3 10 -2 20q0 15 -2 21l2 4h-2v26h2v6h2v9h2v10h2v8h5q0 21 2 31l12 39q0 8 2 12q0 4 2 6q0 8 2 12q0 9 2 13t2 12h2q2 2 2 6q15 0 19 -4q2 -2 2 -4h4l4 -4q4 -4 4 -6h6v-2h6v-2h4z" />
<glyph unicode="i" d="M743 1413q-1 -2 -4.5 -3.5t-3.5 -2.5v-6h-4q0 -4 -2 -6h-2v-2l-27 -9l-8 -8h-4q0 -4 -2 -4h-4q0 -1 -1 -3t-1 -3h-4l-4 -4q-5 -10 -2 -23h2v-26h-2v-6h-2v-4h-2v-7h-2v-8h-2v-6h-3v-10h-4v-8h-2v-7h-2v-18h-2v-10h-2v-8h-2q0 -15 -4 -39q0 -6 -2 -8q0 -5 -2 -7 q0 -4 -2 -6q0 -3 -1 -9.5t-1 -10.5h-2v-4h-2q-2 -3 -2.5 -9t-1.5 -8h-2q0 -4 2 -6q0 -16 -7 -27v-8h-2v-6q0 -2 -4 -2v-6h-2q0 -4 -4 -8v-43q0 -1 -6 -25q0 -8 -4 -24v-4h-2q-2 -4 -2 -13q-4 0 -4 -2v-4h-2q-1 -1 -2 -4t-2 -4h-2q0 -10 -2 -14h-3v-7h-2v-8h-2q0 -4 -2 -6 q0 -2 -2 -4q0 -4 -2 -6q0 -33 -2 -49q0 -5 -2 -9q0 -6 -2 -10v-10h-2q-2 -8 -2 -25h-2v-16h-2v-18h-2v-35h-4v-23h-2v-14h-2v-21h-2v-47h-2v-10h-2v-20h-3q0 -17 -2 -23q0 -6 -2 -8q0 -19 -2 -27q0 -27 -2 -41q0 -6 -4 -22v-8h-2v-9h-2v-10h-2v-31h-2v-14h-2v-10h-4v-8h-2 v-6h-2v-9h-2q0 -17 -6 -32q0 -5 -2 -7q0 -5 -3 -8q0 -8 -4 -24q0 -5 -2 -9q-3 -19 -10 -58t-10 -58v-45v-21q0 -14 -2 -20v-56h-2v-12h-2v-33q0 -14 2 -22v-6h2q2 -4 2 -10t2 -9v-4h2l6 -6h4q1 -2 4.5 -7t5.5 -7q7 0 9 -2v-2h14v-2h4v-2q5 0 10 -5h2q3 0 15 3.5t14 3.5v2 q8 4 12 4q2 3 6 7.5t5 6.5l4 2v4q1 0 3 1t3 1v4q0 2 4 2v4q0 3 4 3v6h2v6h2v4h2v22q4 16 4 33q0 22 -6 58q0 2 1 6t1 6v47q0 17 4 49q0 4 2 6v19h2v20h2q2 6 2 19h2v10h2v6h5v8h2v21h2v10h2v10h2v6h2q0 4 2 8q0 22 4 58q0 4 2 6q0 4 4 8v8h2q2 12 2 39q3 8 6.5 28t6.5 28 q0 59 2 90h2v8h2v12h2v19h2q0 20 2 30q2 7 1 23t1 22v31h2v14h2v23h2v31h2v8h2v18h2v27h2v8h2q2 14 2 45h4q0 19 2 27h2v8h3v6h2v10h2q0 11 2 17q0 4 2 6q0 9 4 29q1 4 2 11.5t2 10.5h2v8h2q2 6 2 19h2v6h2v6h4v16h2v11h2v30h2v15h2v8h2q0 7 3 16q0 17 2 25q0 2 2 4q0 6 2 8 q0 2 2 4q0 4 2 6v13h2v10h2v6h2v6h2v4h2v6h2q1 5 2 15.5t2 15.5h2v6h2v8h2v7h2v4h2q0 6 2 8q0 8 2 14q1 2 2 6.5t2 8t3 6.5q0 4 2 4q4 16 4 26h-2q-1 5 -0.5 9t0 7t-3.5 5q-5 10 -52 10z" />
<glyph unicode="j" d="M1118 1391h-4v2h-4l-4 4q-3 1 -10.5 2t-10.5 2v2h-4v2q-4 2 -14 2v2q-4 2 -12 2q0 1 -1 3t-1 3q-7 0 -11 2v2h-4v2q-15 3 -30 9q-5 0 -7 2q-4 0 -8 2q-4 0 -6 2h-4v2q-4 2 -12 2v2q-8 2 -25 2v2h-8v4h-6v2h-6v2h-8v2q-19 0 -27 2v2h-6l-17 6q-1 3 -2 9.5t-2 9.5l-4 4v4 q-2 0 -4 2v6h-2q-2 8 -2 25q-2 0 -6 4l-4 6h-2q-1 2 -0.5 7t-1.5 7h-2q-1 6 -10.5 10.5t-12.5 8.5q-12 -2 -37 -2v-2h-4q-5 -5 -8 -11h-4v-2q-7 0 -23 -4q-4 -4 -4 -6l-8 -4q-4 -7 -4 -47q-35 0 -51 2v2h-6v2h-5v2q-6 0 -10 2q-4 0 -6 2q-6 0 -8 2q-8 0 -12 2q-7 0 -11 2 q-4 0 -8 2h-12v3h-6v2h-8v2h-7v2l-18 6v2h-4v2h-10v2h-9v2h-10v2q-8 0 -10 2q-6 0 -8 2q-11 0 -17 2q-8 0 -10 2q-6 0 -10 2q-4 0 -6 2h-6v2h-7v2q-8 2 -24 2v3h-10v2q-5 1 -14.5 2t-14.5 2v2q-9 0 -25 4v-2q-24 0 -36 2v-2q-14 -4 -21 -8q-2 -3 -2 -5h-4v-2h-4l-4 -4h-4v-2 q-1 0 -3.5 -1t-3.5 -1v-4q-8 -8 -12 -10l-2 -4h-4q0 -1 -1 -3t-1 -3q-6 0 -8 -2v-2q-13 -9 -15 -17q-8 -8 -4 -20q4 0 0 -4q-7 -29 19 -74h2q0 -6 2 -10h2v-4q0 -3 4 -3q0 -1 1 -3t1 -3q2 -3 14.5 -10t16.5 -6v2h33v2q4 4 6 4v8h2v6h2v5q1 1 3 2t3 2v4q1 1 4 3t4 3v2 q2 2 5 2t5 2q36 -3 78 -16h19v-2q8 0 28 -4h9v-3h16v-2h22v-2q6 -2 17 -2v-2h8v-4h6v-2h6v-2h8v-2h5v-2h8v-2h12v-2q6 0 8 -2q6 0 8 -2h17q4 -1 14 -5t16 -6t16 -3.5t19 -0.5v-2h2q-4 -28 -4 -49q-1 -5 -1.5 -15t-1.5 -18.5t-3 -15.5q2 -8 2 -22h-2v-13h-2v-6h-2v-6h-2v-18 h-2q0 -11 -2 -15q0 -8 -2 -10q0 -12 -2 -18q0 -21 -2 -33q0 -11 -2 -17q0 -8 -2 -12v-22h-2v-29h-2v-12h-2v-17h-2v-32h-3q-1 -5 -3 -16.5t-3 -16.5h2v-35h-2v-16h-2v-13h-2v-8h-2v-4h-2q2 -12 2 -35q0 -27 -6 -51v-39q0 -10 -2 -14q0 -6 -2 -8q0 -11 -2 -15v-26l-1 -2 q-2 -3 -1 -5q2 0 0 -4q0 -6 -2 -10q-2 -8 -2 -27h-2v-32h-2v-15h-2v-12h-2q-1 -13 -3.5 -36.5t-3.5 -33.5h-2v-10q-2 -7 -4.5 -30t-5.5 -33v-11h-2q-1 -5 0.5 -9.5t1.5 -6.5v-8h-2v-49h-2q0 -7 -4 -23v-6h-2v-22h-2v-9h-2v-8h-2v-10h-2v-10h-4v-35h-2v-6h-3v-6h-2v-13h-2 v-49h-2q0 -4 -2 -6q0 -8 -2 -12q0 -4 -2 -6q0 -11 -4 -27q0 -4 -2 -6v-8h-2q-2 -8 -2 -23h-2v-6h-2v-6h-2v-6h-4v-7h-2v-8h-2v-8h-2q0 -6 -2 -8h-3q0 -4 -2 -6q-4 -13 -6 -15q0 -2 -2 -4q0 -2 -2 -4v-6l-4 -2q-2 -4 -2 -8l-6 -6l-19 -19h-4q0 -4 -4 -4q-4 -4 -11 -12 t-11 -12l-8 -2q0 -1 -1 -2.5t-1 -2.5h-5q-1 -1 -3 -4t-3 -4h-4l-4 -4q-3 -1 -9 -4t-9 -4q-2 -2 -2 -4q-11 0 -15 -2v-2h-6v-2q-4 0 -6 -2q-8 0 -12 -2l-6 2h-37v2h-11v2h-8v2h-14v2h-8v2h-8v2q-6 2 -19 2v4h-4v2h-6v2q-9 0 -25 4v2q-2 0 -4 2q-2 0 -5.5 1t-4.5 1q-2 2 -2 5 q-2 0 -10 4t-13 4v2h-6v2h-6v2h-4v4h-6q0 2 -2 4h-4q0 2 -2 4h-4q-2 2 -2 4h-5l-4 4h-4l-3 4q-3 4 -5 5h-4q0 4 -2 4h-4l-4 8h-4q-2 2 -2 4h-5q-4 4 -4 6q-4 0 -12 4q-4 2 -16 4t-15 0h-16v-2q-3 -3 -5 -8t-5 -8v-6l-4 -4v-4q-1 -1 -3.5 -2.5t-3.5 -2.5q-2 -2 -3 -8t-3 -8 h-2v-8h-2v-8h-2q0 -7 -4 -9q0 -1 -1 -3t-1 -3q0 -2 1 -7.5t0.5 -8.5t-3.5 -6v-15l16 -16v-2h7q1 -4 2 -5t3.5 -2.5t4.5 -2.5l4 -6q2 0 4 -2h4v-2h4l2 -5h6q2 -3 6.5 -8t6.5 -8h4q2 -2 2 -4q2 0 6 -4h4q2 -2 2 -4h4l4 -4q7 -5 22.5 -13t18.5 -10h13v-2h10v2h2v-2h16v-2h8 q0 -1 1 -2t1 -2l9 -2q2 -2 2 -4q4 -2 10 -2v-2h8v-2h8v-2h6v-2h9v-5h8v-2h4v-2q4 0 12 -4v-2q6 0 8 -2h4q4 0 12 2t11 2v-2q4 0 6 -2q4 0 4 -2q7 0 19 -4q3 0 9 1t9 1q17 0 41 4q4 0 8 2h4v2h7v2q8 4 12 4v2h4v5h6q2 0 2 4q11 0 23 4q2 2 2 4h4q1 1 3 4t3 4h6q2 4 6 8 q2 2 8 2v2q6 1 17.5 4.5t17.5 4.5l4 6h2v4q2 2 7.5 5t7.5 5v4h2l6 6h4l14 19q2 1 6.5 2t6.5 2l6 6l18 18v4q1 1 3 2.5t3 2.5v4q3 2 8.5 6t8.5 6v4l4 4v4l4 4v4h2v5q1 0 2 1t2 1l2 8l4 2v8h2q2 2 2 6q4 0 4 2q1 1 2 4t2 4q3 2 5 2v9h2q0 6 2 10h2v4q2 0 4 2v6h2v4h2v6h2 q0 4 1 11.5t1 11.5h2v6h2v6h2v6h2v6h2v11h4v26h2v11h2v8h2v12h3v16q2 8 2 64v27h2v6h2v8h2v35q2 7 4 22.5t4 22.5v26q1 5 8 37v23h4v31h2v20q0 31 4 41v55h2v13h2v32h2q2 6 1.5 21t1.5 20v25h2v24h2v23h2v18h2v29h2v49h2v6h2v11h2v53h2v14h2v10h4v15h2q1 4 -1 9t-1 7h2v29h2 v12h2v6h2v17h2q0 12 2 18q0 13 2 21q0 9 1 27.5t1 27.5q2 8 5.5 31.5t5.5 31.5v35h2v21l2 4v30h2v25h4q-4 8 -4 12h4v11h2v12h2v10h2v8h2v8h2q0 7 2 11v12q2 4 8 3.5t13 0.5h4q3 0 5 -0.5t3.5 -1.5t3.5 -2l4 -2h10v-2h15v-2q4 0 12 -1t12 -1v-2h4v-2q16 -4 25 -4v-2 q2 -1 6 -2.5t6 -2.5v-2h6v-2q9 0 13 -2v-2h10v-2q6 0 8 -2q4 0 8 -2q5 0 7 -2q2 0 4 -2q3 -1 10 -2t10 -2v-2q12 -4 14 -4v-2h5v-2h4v-4h6q2 0 2 -5h6v-2h6v-2h8v-2h11v-2h8v-2h6v-2h8v-2h4q0 -2 2 -4q8 -4 12 -4l3 -4q8 -4 14 -4q0 -4 2 -6h6v-2q6 0 8 -2v-3h6q2 0 2 -4h5 q2 -2 2 -4h6q0 -2 2 -4h4v-2h4v-2h4v-2q2 -2 4 -2t4 -2q16 0 37 14h4v2q4 2 8 6q1 4 2.5 12.5t2.5 12.5h-5v12h-2v11h-2v12h2v2h-2v12h-2q2 8 2 27h-2q-1 5 -2.5 6t-5 2t-6.5 2v2q-4 2 -8 2v2h-8v2h-7q0 4 -2 6h-6v2h-4v2h-4v3h-4l-4 4q-2 0 -10 4q-1 0 -3.5 1t-3.5 1 q0 2 -2 4h-6v2q-2 2 -8 2v2q-4 2 -8 2l-4 4h-4q-1 2 -3 5t-3 5h-5q-2 2 -2 4h-4z" />
<glyph unicode="k" d="M582 455v4h-2v4q-1 0 -2.5 1t-2.5 1l-2 8q-4 4 -6 4v4l-4 2q-2 4 -2 11q-4 0 -4 2v4q-1 0 -3 1t-3 1v4q-2 2 -4 2v4q-4 4 -6 4v4q-6 12 -6 17q10 0 40 10q8 2 23 2v2q6 2 18 2v2h7v2q3 1 10 2t10 2v2h4v2q13 0 17 2q2 0 2 4h8v2q1 0 2 1t2.5 2t3.5 2q4 0 6 2q2 0 4 2 q4 0 6 2h11v2h4v2q3 2 8.5 2.5t7.5 1.5v2h4v2h19l30 6v2q5 0 13 4q2 2 2 4h4v2h4v2l31 7v2q2 2 8 2l2 4h4v2q5 2 29 8v2h4v2q8 0 14 4q2 0 4 2q4 0 6 2q2 0 4 2q7 0 23 4q2 1 8 2.5t8 2.5l2 4q6 2 15 2v4h6v2q8 0 12 2v2h4v2q9 0 21 6q2 0 4 2q6 0 10 2q2 0 4 2q6 0 8 2h8v2 h9v2h4v2h10v3h4v2h8v4h8v2h9v2h6v2h4v2h6v2h10v2q4 0 6 2q5 0 7 2q6 0 8 2q6 0 8 2q6 0 14 4h4l11 23q-1 5 -5.5 12.5t-5.5 11.5q-2 8 -2 23h-2v10h-2v12h-2q-2 2 -2 7q-6 0 -10 4h-27l-8 2q-8 3 -10 0q-2 0 -4 -2q-2 0 -7.5 -1t-7.5 -1v-2h-6v-3h-10v-2h-4v-2h-10v-2h-11 l-4 -6q-8 0 -14 -2v-2q-6 0 -8 -2v-2h-8v-2q-3 0 -11 -4q-6 0 -14 -4q-2 0 -4 -2q-3 0 -8 -1t-8 -1q0 -4 -2 -4h-5v-2q-3 -3 -8 -3v-2q-2 -1 -6 -2t-6 -2v-2h-6v-2h-6v-2h-6v-2h-7q-2 -2 -2 -4h-6v-2h-8v-2h-12v-2h-6v-2h-7v-2h-6v-2q-4 -2 -8 -2v-2h-8v-2h-6v-2h-6v-5 q-11 0 -31 -4v-2q-6 0 -8 -2v-2q-1 0 -4 -1t-4 -1q-3 -3 -3 -4l-38 -6v-2q-4 -2 -15 -2v-2h-4v-2q-4 -2 -14 -2v-2h-4v-4h-11v-2h-6v-3h-10v-2q-2 -1 -5.5 -1t-6 -1t-4.5 -4q-4 0 -6 -2q-19 0 -29 -2q-6 0 -8 -2q-5 0 -9 -2q-1 0 -4 -1t-4 -1v-2h-4v-2q-16 -4 -26 -4 q0 -1 -1 -3t-1 -3q-4 1 -13 2t-14 2q0 2 -4 6h-4q0 2 -4 6q-1 1 -2 3t-2 3q-2 2 -3 1t-2 1q-12 0 -18 -6q-1 0 -3.5 -1t-4.5 -1l-2 -4h-4q-1 -1 -2 -3t-2 -3q-14 -14 -27 -17q2 4 2 9l4 2q2 6 2 14h2q1 7 3 22.5t3 22.5h2v10h2v13h2v6h3v12h2q0 4 2 6q0 8 2 12q0 5 2 7 q0 4 2 6q0 10 2 14q0 4 2 8v11h2q2 6 2 18h2v18h2v9h2v12h4v8h2v6h2v6h2v7h2q0 16 4 26q1 2 3 4q4 22 8 31v4h2v8h2v4h2v6h2v11h2v10h4v16h2v4h2q0 11 2 17h2v6h2q0 4 2 6q0 4 2 6q0 4 2 6q0 7 2 11q1 2 3 4q0 2 1 6t1 6h2q2 6 2 16h2v4h2v11h2v4h4v6h2v25h2q0 12 2 18h2v8 h2q0 15 4 23q0 6 2 8q0 10 2 16q0 4 2 6q0 5 2 7q0 4 2 6v8h3q1 8 3 24.5t3 24.5h2v6h4q0 6 2 8h2v13q1 3 2 10t2.5 13.5t3.5 10.5v13h2q2 14 2 43v14q-2 2 -4 2v6q-2 1 -12 11h-6q0 2 -2 4h-4v2h-5v2h-4v2q-4 2 -12 2v2h-10v2h-8v2h-7v2q-2 1 -5 2t-5 2v2q-6 0 -10.5 -1 t-6.5 -1.5t-5.5 -3.5t-5.5 -4h-5q-4 -4 -6 -8q-1 0 -3 -1t-3 -1q-2 -5 -5 -14t-5 -13h-2v-4q-2 0 -4 -2l-6 -12v-11q-2 -4 -2 -14q0 -30 -2 -35q-2 -6 -2 -20h-3v-6h-2v-23h-2v-8h-2q-1 -8 -3 -25.5t-3 -25.5h-2v-11h-2v-4h-2v-10h-2v-10h-2q0 -4 -2 -6q0 -6 -2 -8 q0 -5 -2 -7q0 -12 -2 -18q0 -10 -2 -14q0 -7 -2 -9v-10h-2q-2 -4 -2 -12h-2v-4h-3q-2 -6 -2 -19q-2 -2 -6 -2q0 -10 -2 -14h-2v-4h-2v-19h-2q0 -6 -2 -8q0 -6 -2 -10q0 -4 -2 -6q0 -4 -2 -6q0 -6 -2 -8q0 -7 -2 -9v-10h-2v-8h-2q-2 -6 -2 -18h-2v-7h-2q-1 -3 -2.5 -8 t-2.5 -8h-2v-4h-2v-10h-2v-4h-2q-4 -26 -8 -37q0 -2 -2 -4q0 -7 -2 -11q0 -6 -2 -8v-8h-2v-16h-2v-7h-2q-2 -8 -2 -22h-2v-6h-4v-13h-2v-12h-3v-10h-2v-16q-7 -30 -16 -58v-28h-2v-13h-2v-8h-2v-6h-2v-10h-2q-2 -3 -2.5 -8.5t-3.5 -8.5q0 -4 -2 -6h-11v-2q-8 -4 -12 -4v-2 q-4 -2 -8 -2q-6 -6 -8 -10l-19 -17v-4l-16 -10q0 -6 -2 -10h-2q1 -9 9 -20t9 -13h2q0 -19 2 -27v-6q2 0 4 -2q0 -1 1 -3t1 -3h5q2 0 2 -4l8 -4h4v-2h-4q0 -8 -2 -10h-2q0 -15 -2 -21h-2q0 -17 -4 -27q0 -3 -3 -6q0 -4 -2 -6q0 -1 -2 -10.5t-4 -15.5v-5h-2v-6h-2v-6h-2v-4h-2 q-2 -6 -2 -18h-4q0 -15 -2 -21h-2v-6h-2v-8h-2v-6h-2q0 -13 -4 -19q0 -4 -2 -4q0 -6 -2 -10q0 -3 -3 -6q0 -7 -4 -19v-6h-2q-2 -4 -2 -10h-2v-6h-2v-13h-2v-4h-4v-10h-2v-4h-2q0 -12 -2 -18h-2q0 -7 -2 -9l-6 -6v-4q-2 0 -6 -4v-4h-3v-4h-2v-6h-2v-8h-2v-9h-2v-8h-4v-6 q0 -2 1 -10t0.5 -13.5t-3.5 -9.5l-26 -45v-6h-3v-6h-2v-8h-4v-6h-2q0 -5 -4 -13h-2v-4h-2v-4h-2q0 -4 -2 -6q0 -6 -2 -8q0 -2 -2 -4q0 -2 -2 -4q-1 -2 -2 -6.5t-2 -6.5h-2q-2 -6 -2 -20h-2q-5 -10 -5 -12h-4v-5h-2v-24l13 -12q5 -5 6 -5q0 -1 2 -6.5t4 -7.5v-6q4 -2 4 -4 q7 0 23 4v2h16v2h8v2h8v2q6 2 19 2q0 1 1 3t1 3h4q3 3 6 9q2 0 10 4h4q0 1 1 2t1 2l9 2q1 1 3 4t3 4l4 2v4l4 4l4 6h2q0 7 4 15h2v4l4 4v4l4 4v4h2v4h3v6h2v7h2v4h2v6h2v8h2v6h2v6h4q0 5 4 13h2v4h2v4h2q0 4 2 6q0 2 2 4q0 2 2 4q0 2 2 4v4l4 4v4l5 3q2 4 2 10h2q2 2 2 8h4 q0 13 4 37h2q0 6 6 12q0 4 2 4q6 22 6 23t1 4t1 4h2q4 16 4 27h2v4h3v8h2v6h4v6h2v12h2v9h2v22h2v6h2q0 4 2 6q0 5 2 7q0 4 2 6q0 8 2 14q0 4 2 6q0 4 1 12t1 11h2v8h2v8h2v4h2v6h2q4 8 5 9h2q4 23 12 63q4 -1 5.5 -2t2 -2.5t1 -3.5t1.5 -4q4 -4 6 -4v-6q3 0 6 -3v-4 q3 0 7 -4v-4q2 -2 4 -2v-4q4 -4 6 -4v-4q2 -2 4 -2q0 -2 1 -5t1 -5q1 0 6 -5v-4l4 -2l4 -6h2q0 -6 2 -8q4 -4 7 -4v-6q2 0 4 -2v-4q1 0 6 -5v-4q1 -1 3 -2t3 -2v-4l4 -2v-4q2 -2 7 -6t7 -6v-4q2 -2 4 -2q2 -6 7.5 -17.5t7.5 -17.5q2 -2 14 -10v-5q8 -8 12 -10v-6q3 0 7 -4 v-4l4 -2v-4q1 -1 3 -2t3 -2v-4q3 -2 16 -15q18 -31 23 -45q1 0 3 -1t3 -1v-4q1 -1 3 -2t3 -2q0 -6 2 -8l8 -6v-7l4 -4v-4l4 -2q5 -10 5 -12h2q2 -2 2 -6q2 -2 6 -2q0 -7 2 -11q2 0 4 -2v-6q1 -1 3 -2t3 -2v-6h2v-4q2 -2 4 -2l6 -21h2q4 -8 4 -12h5v-4h2v-4h2v-6h2v-4h2v-4h2 v-4h2q0 -3 2 -5q0 -2 2 -4q0 -4 4 -8q0 -2 4 -10v-8h2v-4h2v-7h2q4 -16 4 -24h4v-4h3v-19h2v-12h2v-4h2v-6h2q0 -8 2 -10q0 -5 2 -7q0 -6 2 -8q0 -4 2 -6q0 -4 4 -8q2 -4 2 -10q5 -2 8 -9l4 -4h4q0 -1 5 -6h4q1 -1 3 -4t3 -4q1 0 3 -1t3 -1l2 -4q1 -1 4.5 -1.5t5.5 -2.5 q19 0 25 4q4 4 4 8l29 6v2q2 2 5.5 4.5t4.5 3.5v7q2 1 5 3t5 3v4q1 1 3 2t3 2v4q1 1 4 3t4 3v4h2q3 9 5 11v16h-3v4h-2q-1 2 -1.5 5.5t-1.5 6.5t-3 6q0 7 -2 11v6h-2v6h-2v6h-2v8h-2q-2 6 -2 21h-4v12h-2v6h-2q0 11 -2 15h-2v6h-2q0 6 -4 14q0 1 -1 2t-2 2.5t-2 3.5 q0 2 -2 4q0 2 -1 5.5t-1 5.5h-2q-2 2 -2 6l-4 2v6l-6 4v4h-2v4h-2v4q-2 2 -4 2q0 7 -2 9t-4 2q0 4 -4 12q0 3 -5 8v4l-4 2v4q-4 2 -8 6l-4 11q-2 0 -6 4v4q-1 1 -4 3t-4 3v4q-1 0 -2 1t-2 1l-6 21h-3q-2 2 -2 8h-2q-2 4 -2 10q-2 2 -6 2v4h-2v8q-2 0 -4 2q0 5 -4 7q0 4 -4 8 q0 1 -1 3t-1 3q-2 2 -4 2v4l-4 2v6q-2 1 -5.5 3t-5.5 3v5q-2 2 -4 2v4q-1 1 -3 2t-3 2v4q-2 2 -4 2v4l-6 6v4q-2 0 -6 4v4q-1 1 -3 2.5t-3 2.5v4q-1 0 -3.5 1t-3.5 1v6h-2q-4 8 -8 12h-4l-2 3q-2 2 -4 3v4q-4 2 -8 6v5q-4 4 -12 8v6h-3q0 4 -2 6q-2 0 -6 4v4l-4 4v4h-2v5h-2 q-4 8 -4 14q-8 4 -14 10v4q-2 2 -4 2q0 3 -5 6v5q-2 2 -4 2v6q-2 0 -4 2q0 1 -1 3t-1 3q-4 2 -8 6v4l-4 2l-4 8q0 2 -4 2v7z" />
<glyph unicode="l" d="M569 96h-4v2h-4v2h-4v2h-4v2h-6v2l-12 7v2h-7v2q-6 0 -12 6q-6 0 -10 2q-1 0 -3.5 1t-4.5 1q0 1 -1 2t-1 2h-4v2h-5v2h-6v2q-4 2 -12 2q0 4 -2 4h-4v4h-4v3q-7 0 -19 4l-4 4q-6 0 -12 6l-12 6q-2 0 -7 1t-8 1v2q-2 2 -8 2v2h-4l-2 4h-4v4h-4v2h-6q-2 0 -2 5h-7q0 2 -4 4 q-7 21 -4 30h2v4h2v7h2q2 10 2 32q1 6 2.5 17t2.5 16h2v6h2v8h2v9h2q0 18 4 28q0 4 2 6q0 5 2 5q0 4 2 8q1 5 2 15t2 15h2v5h2q2 6 2 16h2v6h2q1 4 3 13.5t3 13.5h3q0 6 2 8h2q0 12 6 24q0 3 2 5q0 4 2 6q0 10 2 14q0 4 2 6v10h2v11h2q2 4 2 10h2q2 4 2 10h2q1 2 2 7t2 7h2 v5h2v6h2q0 7 3 16h2q0 4 2 6q0 4 4 8q0 5 2 7q0 4 2 6q0 4 2 8v6h2v6h2q2 2 2 8h2v11h2v12h4v6h2v6h2q0 6 2 8h2v11h2q0 2 2 4q0 3 3 6q0 4 4 8q0 4 4 8v4h2v4h2q4 12 4 15h2v8h4v4h2q0 8 2 14h2v5h2q0 8 4 12q0 2 2 4q5 10 7 12q0 3 1 8.5t1 8.5h2q2 2 2 8h2v6h2v4h2v8h2v4 q4 0 6 2q0 5 4 13h2q0 8 4 12q0 4 2 6q0 4 2 6q0 2 2 4q0 3 4 11q5 10 5 12h2v6h2v4h2v4h4v6h2v4h2q0 5 4 13h2q0 3 1 7.5t1 6.5q2 0 4 2q0 2 4 10q0 2 1 5t1 4h2v8h2q5 10 5 12h2v4h4q0 6 2 8l20 27q4 2 8 6v4h2v4q2 2 7 2v4l4 4q4 18 8 25v8h2q0 7 4 15q0 2 2 4 q0 3 1 10.5t1 11.5h2v6h2q2 2 2 9h2v6h2v4h4q0 5 3 8h2q4 25 10 37q0 2 4 10q0 2 2 4q0 2 1 6t1 6h2v5h2q4 8 4 14h2q1 2 2 7.5t2 8.5h2v6h2v5h2v12q5 15 5 28q0 20 -7 27q-6 6 -10 6q-2 3 -14.5 5t-20.5 -1v-2h-4v-2l-16 -4t-19 -4q0 -2 -4 -6t-8 -6l-2 -4l-12 -6v-3 q-11 0 -17 -2v2q-7 2 -16 -2q-1 -3 -2.5 -4.5t-2.5 -2t-2.5 -1.5t-2.5 -2l-4 -6q-2 -2 -4 -2v-4h-2q-2 -14 -11 -41q0 -4 -2 -4q0 -5 -4 -17v-4h-2v-6h-2v-4l-4 -2v-4h-2l-6 -23h-2q0 -4 -4 -12h-2v-10h-2q0 -2 -2 -4q0 -2 -5 -12q0 -3 -2 -5q0 -6 -2 -8v-35q0 -2 -1 -7 t-1 -7h-2v-4h-2q-2 -4 -2 -10q-4 -4 -12 -8v-5h-2q0 -10 -2 -14h-2l-6 -12q0 -4 -2 -4l-5 -15q-4 0 -4 -2v-6h-2q-2 -2 -2 -8h-2q-1 -1 -2 -4t-2 -4q0 -2 -4 -2v-4l-4 -4v-4q-1 0 -6 -5v-4q-1 0 -2 -1t-2 -1q-1 -2 -2 -6t-2 -6l-5 -2v-4h-2q-2 -4 -2 -10h-2q-7 -13 -14 -39 l-2 -6q-2 -7 -2.5 -11.5t2.5 -7.5v-10l-8 -6v-2h-4q-4 -4 -4 -6l-5 -3q-2 -4 -2 -12h-4q0 -6 -2 -10h-2v-4q-2 -2 -4 -2v-6h-2q0 -4 -1 -11.5t-1 -11.5q-2 0 -4 -2v-4h-2q-7 -14 4 -20v-17q-2 0 -4 -4h-4q-4 -4 -4 -6l-4 -2q-2 -12 -2 -35h-5q0 -6 -2 -8q0 -2 -4 -2 q0 -6 -2 -10q-2 0 -4 -2v-5h-2v-24q-2 0 -2 -6q-4 0 -6 -4h-2v-4q-4 0 -4 -3v-8h-2v-4h-2v-6q-8 -4 -9 -4v-6h-2q0 -4 -2 -8h-2v-23h-2q0 -4 -2 -6q0 -4 -2 -6l2 -2q0 -4 2 -6q1 -3 1 -11.5t-1 -11.5q-2 0 -4 -2v-4q-1 -1 -4 -3t-4 -3l-6 -17q-3 -2 -8.5 -6t-8.5 -6v-4h-2 v-4h-2q0 -8 -4 -16q0 -5 -2 -5q0 -6 -2 -8q0 -1 -1 -3.5t-1 -4.5h-2q-2 -4 -2 -10h-2q-2 -6 -2 -19h-2l-4 -8h-2v-6h-2q0 -6 -2 -8h-2q0 -15 -4 -21q0 -5 -3 -8q0 -2 -2 -4q0 -4 -2 -6q0 -6 -2 -8q0 -6 -1 -18.5t-1 -18.5h-2v-12h-2v-9h-2v-4h-2v-8h-2v-27h-4q0 -14 -2 -22 h-2v-10h-2v-4h-2v-9h-2v-14h-2q0 -2 -2 -4q0 -4 -2 -6v-4q-1 0 -2.5 -1t-2.5 -1v-4q-2 -2 -4 -2v-5l-4 -2v-6h-2q-2 -4 -2 -14q-1 -1 -4 -2t-4 -2v-4q0 -2 -4 -2q0 -6 -2 -8h-2q0 -2 2 -10t2 -9q2 -6 2 -20q4 -4 4 -5v-4q4 0 6 -2v-4q2 -2 4 -2v-4h2q0 -12 2 -20h-2v-13h-2 q-2 -4 -2 -14q0 -33 10 -43q1 -5 5 -9t7 -5.5t10 -4.5t9 -4q5 0 8 3q4 2 11 2q9 0 16 -7h16q9 9 11 13v4q2 2 6 2v6q4 0 6 2q6 6 8 10q1 0 2 1t2 1v4h2q1 2 7.5 7t7.5 10h26v-4q6 0 8 -2q2 0 2 -4h7q0 -3 2 -5h4v-2h6v-2h4v-2h8v-2l15 -2v-2h4v-2h6v-2h4v-2q4 -2 12 -2v-2h4 l4 -6q7 0 11 -2v-2q6 0 8 -2v-2q2 0 4 -2q4 0 4 -2q4 0 4 -3q4 0 6 -2q2 0 4 -2q1 0 3.5 -1t4.5 -1v-2h5v-2q12 -4 20 -4q0 -4 2 -6q4 0 8 -2l4 -6h4q3 -2 3 -4l26 -8v-3h4v-2q2 -2 8 -2v-2h7v-2h6v-2h12v-2q2 -1 7 -2t7 -2v-2h4v-2q15 0 21 -2v-2h22v-2q9 0 13 -2q4 0 6 -2 q12 0 16 -2q9 0 13 -2q6 0 10 -2q8 0 12 -2h10v-2h6v-3h7v-2h16v-2h16v-2q5 -1 16 -2t17 -2v-2h6v-2h25v-2q12 2 33 2v2h4q6 6 8 10q6 0 10 2v3q4 0 12 4q3 3 3 4h4v2h8v2h4v2h8v2q8 4 12 4v2h4q9 9 15 18h4v3h4v2l6 4v4q6 12 10 16v14h-2q-2 4 -16 11v2h-4l-2 4h-4v4h-8v2 h-46v2h-16v2h-33v2h-6v2h-6v2q-15 0 -35 4q-4 0 -8 2q-2 0 -14 4h-4v3q-12 2 -35 2v2h-8v2q-6 2 -17 2v4h-4v2q-14 0 -20 2v2h-4v2h-9v2h-6v2q-4 0 -6 2q-8 0 -16 4q-4 0 -6 2q-2 1 -6.5 2t-6.5 2v2q-4 2 -14 2v3h-4v2q-2 1 -7.5 3t-7.5 3v2h-8q-2 2 -2 4h-6v2q-6 0 -8 4 q-4 0 -6 2h-6q0 2 -2 4h-5z" />
<glyph unicode="m" d="M1270 1343h4v3h4q4 4 4 6q2 2 8 2v6h2q2 5 4 6q0 22 -2 25q-10 10 -16 14q0 4 -4 12q-8 8 -12 10h-5v3l-4 4v4h-4v4h-2q0 2 -2 4q-1 1 -3.5 1.5t-4.5 2.5q-33 0 -43 -6l-2 -4q-2 -2 -8 -2v-2h-21v-2h-6v-4h-4v-3h-4q-2 0 -2 -4l-21 -6q0 -2 -4 -6q-16 -17 -20 -27h-4 q0 -12 -2 -18h-2q0 -6 -2 -8q0 -1 -2 -2q-1 -1 -1.5 -1t-1.5 -1v-4q-2 0 -6 -4v-5q-1 -1 -4 -3t-4 -3v-4q-4 -4 -6 -4v-4q-2 -2 -6 -2v-6q-4 -2 -12 -10v-5q-1 -1 -4.5 -3t-4.5 -3v-4q-4 -4 -6 -4v-4q-10 -10 -16 -14v-4l-25 -25q-2 -2 -2 -6l-10 -6v-4q-4 -4 -8 -6v-5 q-2 -2 -4 -2v-6q-2 0 -6 -4v-4q-5 0 -5 -2q-2 -2 -2 -8l-4 -2v-4q-2 -2 -6 -2q0 -5 -2 -7h-2q0 -6 -4 -14q-2 0 -4 -2v-4q-1 -1 -4 -3t-4 -3l-2 -4h-4q-2 -3 -7.5 -8.5t-7.5 -8.5h-4v-2l-8 -6v-4q-6 -4 -16 -14v-6q-4 0 -9 -5v-4q-2 0 -4 -2v-4q-1 -1 -3 -2t-3 -2v-4 l-14 -14v-4l-8 -4v-5q-3 -2 -5 -2v-4q-1 -1 -3 -2t-3 -2v-4q-2 -2 -4 -2v-4q-2 -2 -4 -2v-6h-2q0 -1 -1 -3t-1 -3q-4 0 -4 -2v-5q-1 -1 -3 -2t-3 -2v-4l-8 -4v-4q-7 -7 -9 -8v-4q-3 -2 -8 -7.5t-8 -7.5v-4q-2 -1 -5 -3t-5 -3v-6q-4 -4 -8 -6v-4q-3 0 -7 -4v-4q-1 -1 -4 -3 t-4 -3v-5q-8 -8 -14 -12v-4q-2 0 -6 -4v-4q-1 -1 -3 -2t-3 -2v-4q-2 -2 -4 -2l-5 -15q-4 0 -4 -2v-4h-2v-6l-4 -2q-2 -2 -2 -8q-2 -2 -6 -2v-4h-2v-7h-2q-4 -4 -6 -10h-6q0 8 -4.5 20.5t-4.5 14.5v10h-2v10h-2v9h-2v6h-2q-1 3 -2 9t-2 9h-2q2 8 2 29h-2v4h-2q0 10 -2 16h-2 v7h-2q0 8 -2 10q0 4 -4 16q0 2 -2 4q0 4 -2 6q-4 16 -4 23h-2q-3 3 -3 8h-2v6h-2v6h-4v7h-2v6h-2v6h-2q0 6 -2 10h-2q0 2 -2 4q0 2 -2 4q0 1 -2 6t-4 7q0 3 -1 7.5t-1 6.5h-2q-2 4 -2 10h-2q-2 4 -2 8h-2q-1 3 -2.5 8.5t-2.5 8.5h-2q0 4 -4 12h-2v6h-2q0 4 -2 4v4l-4 4 q0 5 -4 13q-1 2 -2 6t-2 6h-2v4h-2v4h-2v8q-4 0 -4 2v5h-4q0 5 -3 8h-2v6h-2v6h-2v8h-2q0 4 -2 6v4q-1 0 -2 1.5t-2 1.5l-2 8h-2v6h-2v4h-2v6q-4 0 -4 2v4q-4 0 -4 2v4h-4q4 13 8 35h-2q0 8 2 12h2v19h2v14h2q0 15 2 23q0 4 2 8q0 8 -1 24.5t-1 24.5l-25 27h-4q0 1 -1 2 t-1 2h-4v2l-8 2v2h-10v2q-8 0 -12 -2q0 -1 -1.5 -2t-1.5 -2h-6v-2q-2 0 -6 -1t-6 -1l-8 -8q-2 -2 -8 -2l-2 -5h-4q0 -2 -1.5 -4.5t-1.5 -3.5q-4 -2 -12 -10v-14h2q-2 -9 -4 -11v-2l-4 2h-6v3h-6q0 1 -1 3t-1 3h-4v2q-1 0 -3.5 1t-4.5 1.5t-5 -0.5v-2q-13 -4 -26 -49 q-1 -2 -1 -7.5t-1 -7.5h-2q0 -6 10 -26v-5q1 -1 4 -3t4 -3q2 -2 2 -4h4l8 -8h2v-4h2v-6q3 0 5 -2v-4h2q0 -5 -9 -27l-12 -53h-2v-6h-2v-4h-2l-6 -21h-2v-4h-2v-6h-2q-5 -21 -9 -51h-2v-4h-2q-2 -6 -2 -15q-1 0 -3 -1t-3 -1v-4h-2v-4h-2v-6h-2q0 -8 -2 -12q-1 0 -4 -3l-6 -38 h-2v-5q-4 0 -4 -2v-4h-2v-8h-2q-3 -6 -3 -8h-4v-10h-2v-4h-2v-9h-2v-4h-2q0 -8 -4 -12q0 -6 -2 -10q0 -2 -2 -4q0 -6 -2 -8q0 -3 -2 -5q-5 -35 -6 -41h-2v-6h-2q-2 -4 -2 -10h-4q0 -3 -5 -18h-2v-4h-2v-7h-2q-5 -29 -6 -32q0 -7 -2 -11l-4 -8q0 -2 -1 -6t-1 -6h-2 q-4 -15 -8 -45h-4v-4h-2v-10h-2v-7h-3v-8h-2v-8h-2q0 -4 -2 -4q-1 -5 -3 -15.5t-3 -15.5q-2 -2 -4 -2v-4h-2v-14h-2v-8h-2v-7h-2v-6h-2v-10h-4q0 -9 -4 -25h-2v-6h-2q0 -5 -5 -10q0 -4 -4 -12q0 -15 -2 -23q-1 -4 -3 -13t-3 -13h-2v-9h-2q-2 -6 -2 -22h-2v-4h-4 q0 -13 -2 -19h-2v-4h-2q0 -8 -2 -12h-2q0 -4 -2 -4q0 -6 -2 -10q-1 -2 -3 -4q0 -7 -4 -15q0 -4 -2 -6v-6h-2q-2 -6 -2 -16h-2v-11h-2v-12h-2v-8h-2v-6h-4v-7h-2v-8h-2q0 -6 -2 -8h-2q0 -8 -4 -12q0 -2 -2 -4q0 -2 -2 -4q0 -2 -2 -4q-1 -2 -2.5 -6.5t-2.5 -6.5h-2v-8h-2v-6 h-2v-6h-2v-6h-2v-7h-4q0 -6 -2 -10q-2 0 -4 -2v-4h-2q0 -17 -6 -35v-4q-2 0 -4 -2l-2 -8q-3 -2 -8.5 -6t-8.5 -6v-4q0 -1 -4 -5v-4l-4 -4v-4h-2v-4h-2v-4q-1 0 -2 -1t-2 -1v-6h-2v-8h-2v-4h-2v-5q-4 0 -4 -2q-2 -2 -2 -8l-5 -2v-4h-2v-8q-2 -2 -6 -2q0 -7 -4 -15 q-2 -2 -4 -2v-4h-2q-1 -3 -4 -11.5t-4 -14.5q-4 0 -4 -2q-2 -2 -2 -9l-4 -2v-4q-2 -2 -7 -2v-4h-2v-4h-2q-1 -3 -1 -8t-1 -8h-2v-11h-2q0 -6 -2 -8q0 -4 -4 -12q0 -20 12 -35q2 0 2 -4h7q1 -1 3 -4t3 -4l8 -2v-2q2 -1 9 -1.5t9 -2.5h19q6 8 20 22h6q5 21 27 43l10 6q0 7 2 9 l6 4v4q2 2 5 2v4q2 2 4 2q1 3 2 7.5t2 6.5q4 0 4 2v4l4 4v5h2v4h4v4q0 2 4 2v6h2v4h2v6h2v4h2q0 1 2 6t4 7q0 4 5 14q0 2 2 4v8l4 2v8h2q4 8 4 15h4v4h2v4h2v4l4 4v4q0 2 4 2v4h2q0 3 4 11q1 6 4.5 18.5t4.5 18.5h2v4q4 0 4 2q1 1 2 4t2 4q2 2 4 2q0 8 2 12h2v6h2q0 5 4 13 q0 6 2 8q0 4 2 4q0 6 2 8q4 12 4 14h2v5h3v6h2v4h2q1 4 2 12t2 12h2q0 9 2 13h2v4h2v10h2q0 4 2 6q0 6 2 8q0 2 2 4q0 7 2 9q0 4 2 6q0 10 4 22q2 2 2 8h2v7h2v6h2q1 5 3.5 14t3.5 14h2q0 9 2 13h2v4h2q0 14 4 20v4l4 4q0 3 2 5l4 8q2 4 2 14h2q2 6 2 21h2v8h2v8h4v8h3 q0 15 2 21h2v6h2v10h2q0 9 4 25q0 4 2 6q0 4 2 6q0 6 2 8q0 2 2 4q2 4 2 12h2q4 8 4 13h2q5 30 6 35h2q0 8 2 12h3q0 4 2 8h2q0 6 2 10q0 6 2 8q0 7 2 11q0 2 2 4q0 6 2 8q0 1 1 4t1 4h2v4l4 2v4h2v21h2v6h4v6h2l6 29q3 2 5 2v6h2q5 25 6 27q0 1 1 4t1 4h2v6h2q2 4 2 10h2 q2 4 2 13h4v4h2q0 8 2 12h2q0 6 2 10h2q0 6 2 8q0 2 2 4q0 4 5 19l4 8v12h2v4h2q2 4 2 15h2q2 2 2 8h4v8h2v4q2 2 4 2q3 19 10 41h4q1 -12 4.5 -23t9.5 -23.5t9 -20.5l6 -29h2v-4h2q5 -19 6 -21q0 -1 1 -4t1 -4h2v-8h3v-8h2v-8h2v-8h2q1 -1 2 -4.5t2 -4.5h2v-10h2v-4h2v-8h2 v-6h2q0 -4 2 -6q0 -11 4 -27q0 -4 2 -6q0 -4 2 -6q0 -3 1 -9.5t1 -9.5h2v-12h2v-10h2v-15h2v-16h3q1 -7 2 -21t2 -20h2v-6h2q0 -7 4 -15h2q0 -2 2 -4q0 -2 2 -4q0 -6 4 -14q0 -6 4 -14q0 -1 1 -4.5t1 -4.5h2v-6h2q4 -16 4 -26h2q1 -2 2.5 -6.5t2.5 -6.5h2q0 -6 2 -8h2v-6 q2 0 4 -2v-4q3 -3 9 -8.5t9 -8.5q32 4 39 7h6q0 2 2 4h4l5 4q2 2 8 2q9 14 10 16q10 0 14 2q0 2 2 4h4q8 12 13 17q8 4 10 8v4q4 0 8 4v4q2 2 4 2q0 5 4 13q2 2 4 2v4l5 6v4h2v4h2v4l4 2v4h2v4l6 5v4q0 2 4 2q1 1 10 11t10 15h5q2 2 2 6q2 1 10 9v4q2 0 4 2q0 6 2 8t4 2v4 q1 0 2 1t2 1v4q1 1 4 3t4 3q2 2 2 9l17 12v4l14 12v6q7 4 10 9v4q1 0 3.5 1t3.5 1v4q6 6 10 8v4q2 2 4 2q0 4 4 8v4q1 0 4 3v4l4 2v4l4 2v4l4 4v4h4v6h3v4q2 0 4 2v4q1 1 3 2.5t3 2.5v4q1 0 2 1t2 1v4q4 4 6 4v6q2 0 6 4v4q4 0 4 2q1 1 2 4t2 4q2 3 4 3v4q4 4 7 4v4l6 6v4h2 v4q1 0 2 1t2 1q2 2 2 8l4 2q2 4 2 9q4 4 8 4v6q2 0 6 4v4q1 1 3.5 2t3.5 2v4q1 0 2 1t2 1v4q1 1 4 3.5t4 3.5v6h2q4 4 4 6h6q0 2 2 4h2q12 14 41 43q1 1 8 5t9 7h2v-41h-2v-8h-3q0 -4 -2 -6v-21q-2 -6 -5 -21.5t-5 -21.5v-28h-2v-4h-2q-2 -10 -2 -35h-2v-6h-2v-6h-4 q0 -34 -2 -50h-2v-6h-2v-6h-2v-6h-2q0 -2 -2 -4q0 -6 -2 -10q0 -6 -3 -9q0 -6 -2 -10q0 -10 -2 -16q0 -11 -2 -17q-2 -4 -2 -12h-2v-4h-2q-4 -12 -4 -18h-4v-7h-2q0 -12 -4 -36v-17h-2v-4q-4 -4 -6 -4v-4h-2q0 -2 -4 -10q0 -5 -3 -11q0 -4 -2 -6v-4h-2v-6h-2q-4 -20 -4 -29 h-2v-4h-4q1 -6 2 -18t2 -17q0 -2 4 -2l2 -18h-2q-2 -2 -2 -8q-1 0 -3 -1t-3 -1q0 -6 -2 -10h-2q0 -7 -2 -9h-2q0 -10 -4 -16v-2q0 -2 3 -14.5t1 -18.5h-2q0 -4 -4 -8q0 -7 -4 -23q0 -4 -2 -6q0 -1 -1 -4t-1 -4h-2q-3 -18 -3 -39q-4 -11 -7 -38.5t-7 -39.5q0 -52 -2 -77h-2 v-21h-2q0 -8 -2 -12q0 -4 -2 -6q0 -5 -4 -17q0 -2 -2 -4q0 -4 -1 -11.5t-1 -10.5h-2v-11h-2v-4h-2v-6h-2v-12q-2 -6 -5.5 -21t-5.5 -22v-29h-2v-6h-2v-8h-2v-6h-2v-11h-2q0 -5 0.5 -13.5t0.5 -16t-1 -13.5v-4q-2 -2 -4 -2v-4l-6 -6v-4h-2q-2 -2 -2 -6q0 -2 1.5 -8t0.5 -11 h-2q-2 -4 -2 -14h-2v-6h-2v-6h-5v-27q5 -7 9 -20q0 -2 4 -2v-4h2q0 -2 1 -5.5t1 -5.5q2 0 4 -2v-4h2v-4h2v-4h2v-4l4 -4v-4q2 -2 6 -5.5t6 -5.5q1 -2 3 -4h4v-2h4v-2h8v-2q12 0 24 8q0 1 5 6h6q1 1 4 3.5t5.5 4.5t2.5 3v4h2v4q1 0 3 1t3 1q0 4 2 6h4q0 4 2 4q2 2 9 2v2 q4 4 6 4l6 21h2v29h2v10q4 0 2 4h-2v18h2v6h4v5h2v4q2 2 4 2v4h2v16h-2q0 25 2 39h2q0 1 2 8t4 11q0 3 3 6q0 4 2 6q0 6 2 8v4h2q2 4 2 14h2v15h2v10h2v12h4v19h2v20h2v23h2v14h2v19h2q0 35 2 51q0 12 2 16q0 4 2 6q0 4 2 8q0 18 4 54v12h3v20h2v29h2q2 8 2 25h2v16h4v14h2 v11h2v10h2v33h2v8h2q0 8 2 10q0 10 2 16q0 7 2 11q0 6 2 10q0 8 2 14q0 11 2 17v8h2v6h2v14h2v15h3v6h2v6h2v6h4q0 17 2 25q0 1 -1.5 2t-0.5 2h2v10h2v6h2v6h2v15h2q0 8 2 12q0 6 2 8q0 6 2 8q0 15 2 23q0 8 2 12q0 6 2 8v19h2v22h2v11h2v6h2v35h3v8h4v6h2v10h2q0 25 2 37h2 v6h2q0 4 2 8q0 9 2 13q0 10 2 16q0 10 2 14q0 11 4 31v10h2v10h2v25h2v12h2v11h2v14h4v22h3v9h2v10h2v27h2v16h2q0 8 2 14q5 45 8 60v4q4 4 6 4v6q15 10 19 14q0 2 2 4h4z" />
<glyph unicode="n" d="M1012 1354v-6h-2q-4 -4 -6 -11q-2 -2 -2.5 -8.5t-2.5 -9.5q0 -6 -2 -10v-37q-2 -8 -4 -27.5t-4 -27.5v-11h-2v-8h-2v-4h-2l-4 -8h-2v-6h-2q2 -12 2 -35h-2v-10h-2v-5h-2v-12h-2q0 -8 -4 -24q0 -15 -2 -23q0 -6 -2 -8q0 -3 -5 -8v-17h-2v-8h-2v-8h-2v-6h-2v-8h-2v-7h-4v-8 h-2v-8h-2v-16h-2v-6h-2v-7h-2q0 -16 -4 -24q0 -2 -2 -4q0 -4 -2 -6q0 -5 -2 -7q0 -4 -2 -6q-5 -35 -5 -41h-2v-8h-2v-6q-4 0 -4 -2v-4h-4v-6h-2v-4h-2v-7h-2v-10h-2v-4h-2v-6h-2v-10h-2q0 -1 -2 -11.5t-4 -15.5q0 -1 -1 -4t-1 -4h-2q-1 -2 -2.5 -6t-2.5 -7.5t-2 -7.5h-2 l-4 -8h-2q0 -8 -2 -12h-2q0 -15 -2 -23h-2q0 -10 -2 -16v-4l-8 -8v-4q-4 0 -4 -2q-2 -4 -2 -13h-2v-4h-2q-1 -2 -3.5 -6t-3.5 -6h-2q0 -12 -2 -18h-2v-7h-2q0 -6 -2 -8h-2q0 -6 -2 -10q0 -1 -1 -4.5t-1 -5.5q0 -19 8 -27q0 -10 -4 -14q-1 0 -2 -1t-2 -1v-4q-1 0 -2 -1t-2 -1 q0 -5 -4 -9q-2 -8 -6 -20h-2v-4h-2v-6h-4v-4l-5 -5h-8q-17 34 -20 41v13h-4v6h-2v12h-2v12h-2v9h-3v12h-2v8h-2v4h-2v6h-2v6h-2v7h-2v10h-2v10h-2v4h-2q-2 6 -2 17h-2q-4 8 -6 14h-2v4h-2q0 10 -2 14h-2v7h-2v4h-2q0 4 -5 14q0 4 -4 16q0 4 -2 4q0 5 -2 9q-2 2 -2 8h-2 q-2 4 -2 14h-2v6h-2q-2 6 -5 19t-5 20h-2q0 6 -4 10q0 3 -4 11q0 6 -3 12q0 4 -2 6q0 4 -2 6q-2 4 -2 15h-2v6h-2q-2 8 -2 22h-2v4h-4q0 11 -2 15h-2v4h-2q0 10 -2 14q-2 0 -4 2v6h-2v6h-2v7h-2v14h-2v8h-3v6h-2v11h-2v16h-2v6h-2q-2 4 -2 14q-2 2 -6 2v11h-2v8h-2 q0 10 -2 16h-2v6h-2q0 5 -2 7q0 4 -2 6q0 6 -2 8q0 6 -2 8q0 10 -2 16q0 5 -2 7v6h-2v6h-3v55h3v6h2q0 2 2 4q0 3 2 5q1 1 3 4t3 4q4 0 12 -4q2 -4 2 -11h4v-24l4 -4q5 0 9 2q4 1 4.5 1.5t0 1.5t1.5 3t4 2v4h2v6q2 0 6 4v4h2q2 2 2 9q0 2 -2.5 11.5t0.5 12.5h4v4q2 0 6 4v4 h2q0 3 4 7h5q0 4 4 8q2 4 2 12q0 15 -4 23q0 2 -5 22q0 6 -2 8q0 4 -2 6v7h-2v8h-2v6h-2v14h-2v6h-2v4h-4q0 17 -2 23h-2q2 23 2 66q0 2 -3.5 6.5t-4.5 5.5q-15 0 -21 -4q-2 -2 -2 -4h-8q0 -4 -2 -4h-6v-2q-6 -3 -10 -3q-5 0 -15.5 1.5t-18 1t-11.5 -4.5h-5l-4 -8 q-2 0 -6 -4v-4q-1 -1 -4 -3t-4 -3v-4h-2v-8h-2v-11h-2v-8q-4 0 -4 -2v-4l-4 -4v-4h-2l-6 -6h-5v-2h-6q0 -5 -2 -7q-6 0 -8 -2t-2 -4h-16v-2h-7v-2h-10v-2h-10v-2h-4l-6 -6h-4q0 -2 -4 -6h-5v-2l-12 -12q-2 -4 -2 -17q2 0 2 -4v-14h2v-4h2v-7h2v-10h2v-10h2v-8h2v-6q5 0 5 -2 v-7h2q4 -32 4 -49q0 -1 5 -10.5t7 -17t0 -13.5h-2v-16h-2v-10h-2v-8h-4v-11h-2v-6h-2v-4h-2v-8h-2v-6h-2q0 -3 -3 -6q-4 -22 -8 -29q0 -2 -1 -4.5t-1 -3.5h-2v-11h-2v-4h-2v-6h-2v-6h-2v-6h-4v-6h-2v-12h-2v-9h-2v-8h-2v-16h-2q0 -1 -1 -4.5t-1 -5.5q-1 0 -2.5 -1.5 t-2.5 -1.5v-8h-2v-8h-2v-14h-2v-6h-2v-4h-2v-9h-2v-6h-2v-8h-2q-1 -5 -4 -14.5t-4 -14.5h-2v-6q-2 0 -4 -2v-4h-2l-2 -8h-2v-6h-2l-5 -29h-2v-4l-4 -2q-4 -8 -4 -12h-2q0 -21 2 -29h-2v-4q-2 -2 -6 -2v-4h-2q0 -15 -2 -21h-2v-4h-2q0 -4 -2 -6q0 -4 -2 -4q0 -4 -2 -4 q0 -4 -2 -6q-1 -2 -2 -6.5t-2 -6.5h-2q-3 -6 -3 -12h-2q-2 -6 -2 -20h2v-11h-2v-6h-2l-4 -8h-2v-6h-2q0 -15 -2 -21q0 -2 -4 -7.5t-4 -6.5h-4q0 -1 -0.5 -3t-1 -3.5t0 -3.5t1.5 -4v-25q-9 -21 -21 -45q-2 0 -4 -2v-4h-2v-4h-2q0 -9 -6 -21l-4 -8q-2 -2 -2 -10q0 -25 -2 -29 v-4q-4 -2 -10 -8q-3 -6 -5 -8h-2q0 -13 -4 -33h-2v-4h-2q0 -6 -4 -14q0 -7 -4 -19q0 -4 -2 -4q0 -6 -2 -8v-12h-2v-5h-2v-8h-2v-4h-2v-8h-2v-12h-4v-9h-2v-6h-2v-26h-3q0 -11 -2 -15h-2q0 -4 -2 -6q0 -4 -4 -12q0 -15 -2 -21q0 -8 -2 -12q0 -6 -2 -8q0 -8 -1 -23.5t-1 -23.5 h-2v-8h-2v-25h-2v-18h-2v-9h-2v-12h-4v-6h-2v-6h-2v-23h-2v-14h-3v-8h-2q0 -8 -2 -12v-11v-4q0 -3 1 -8t1 -8h2v-4h3q2 -6 2 -21l4 -4l4 -6h2v-4h2v-4h2v-8h2v-6h2v-5h2l4 -8q12 0 15 -6h18q2 2 10 14h4q2 0 2 5q4 0 6 2v2h7q0 2 4 6l8 2q0 1 1 2t1 2h4q4 4 4 6h4l2 4l13 10 q0 7 6 13q0 15 4 39q0 8 2 10q0 14 2 20q0 11 2 15q0 6 2 8v45h2v16h2v15h2q2 10 2 26h2v10h4v17h2v16h2v10h2v19h3v8h2q0 4 2 6q0 13 4 33q0 4 2 4q0 9 4 21v4h2q2 10 2 30h2q2 4 2 11h2l4 8h2v18h2v6h2q0 7 2 9h2q0 4 5 14q0 9 4 25q0 8 4 20v6h2v6h2q2 10 2 31l4 2v4h4v6 h2v8h2v11h2v6h2q0 6 4 8q0 6 2 8q0 6 2 8q0 4 5 19q4 8 4 12h2q4 20 4 27h2v4h2q1 3 3 10t3 10h2v6h2v7h2v6h2q0 4 2 4q0 10 4 22q0 5 2 7q0 3 5 8q2 6 2 18h2q2 4 2 12h2v7h2v8h4v6h2v10h2v6h2v13h2v6h2q0 4 4 8q5 30 8 39v4h2v10h2q3 6 3 15h2v4h2v6h4v4h2q0 16 2 24h2v7 h2v6h2q0 4 2 6q0 4 2 6q0 6 2 8q0 4 2 8q0 1 1 4.5t1 4.5q1 0 3 1t3 1q4 -4 4 -6h2v-5h3v-6h4v-8h2v-6h2v-8h2v-11h2v-6h2q0 -4 2 -4q0 -6 2 -8q0 -4 2 -8q0 -4 2 -6q0 -6 2 -8v-5l4 -2v-8h2v-4h2v-12h2v-6h2l4 -11h3v-8h2v-4h2v-6h2v-12h2v-8h2v-7h2l6 -26h2q2 -4 2 -10h2 v-7h2v-4h2v-6h2v-16h4v-6h2v-7h2v-6h2q0 -9 3 -18h2q0 -4 2 -6q0 -2 2 -4q4 -22 8 -31v-6h2v-4h2v-6h2q1 -5 3 -15.5t3 -15.5h4q0 -6 2 -8h2v-7h2v-6h2v-8h2q0 -3 3 -6q0 -2 2 -4q0 -4 2 -6q0 -13 2 -19q0 -6 4 -18v-8h2q4 -16 4 -23h2v-6h2v-8h4v-6h2q0 -7 2 -11h2 q0 -8 2 -12h2q0 -4 4 -8q4 -22 7 -27q0 -4 2 -6v-6h2v-8h2v-8h2q2 -6 2 -17h2l4 -8h2v-10h2q0 -15 2 -23h2q0 -6 2 -10q2 0 4 -2v-4h2q0 -6 4 -18q0 -2 1.5 -7t1.5 -8h2v-4h2v-8h2v-6h2q2 -8 2 -27h2v-4q0 -21 -4 -29h-2v-4h-2v-6h-2v-4h-2q0 -3 -5 -18q0 -5 -2 -9 q0 -4 -2 -6q0 -6 -2 -8q0 -4 -1 -11t-1 -11h-2v-19h-2v-4h-2v-4h-2v-6h-2v-6h-4v-4h-2v-9h-2q-2 -7 0.5 -20.5t-0.5 -18.5h-2q0 -6 -2 -8l-11 -10l-4 -8q-2 -8 -2 -27h-2v-4h-2q-2 -4 -5 -11t-5 -11v-11q0 -29 12 -45h2v-6q2 -2 4 -2v-6h2v-4h3v-4l4 -4v-7h2q4 -2 8 -10 q1 -1 4.5 -1.5t5.5 -2.5h21q2 2 2 4h4q3 5 8 8h6v2h4q2 3 14 15v4q7 3 9 8q12 4 14 4l4 6h2v6h2v5q2 0 4 2v4h2v4h2q4 20 4 33h3v6q1 0 3 1t3 1q0 12 2 20h2q0 7 2 11h2q1 1 2 3t2 3q14 0 18 -4l7 -7h4l12 -16q9 -5 10 -6h14q1 1 4.5 3t4.5 3v4q2 2 4 2v6q2 0 4 2v2 q4 1 12 4.5t12 4.5q0 1 5 6q14 14 22 16q2 3 5 11.5t5 11.5v2q0 6 -3 22l-3 17q-2 2 -6 2q0 10 -2 14h-2v4h-2q0 6 -6 12q0 4 -2 4q0 5 -2 5q0 4 -2 4q0 4 -2 6q0 2 -2 4q-3 3 -3 8h-2q-1 3 -3 9.5t-3 9.5q-2 2 -6 2v10h-2q0 8 -2 12h-2v4h-2v6q-2 2 -4 2q0 7 -4 15 q0 2 -2 4q0 4 -2 6v6h-2v4h-2v10q-3 9 -3 27v19h3v18h2q0 6 4 10q0 4 2 6q0 2 2 19.5t4 25.5q0 7 2 9v6h2q2 6 2 18h2q2 10 2 35h2v4h4q0 13 2 19h2v8h2q0 14 2 22h3q0 4 2 4q0 5 4 17q0 4 2 6q0 11 4 31v4h2q4 11 8 41h2v6h4v8h2v8h2v10h2v9h2v6h2q0 4 2 6q0 3 3 6 q0 8 4 20q0 3 2 5q0 4 2 6q2 4 2 10h2q4 20 4 33h2v8h4v4h2v6h2v8h2v9h2v8h2q0 4 2 8q0 2 2 4q0 4 2 6q0 4 1 12.5t1 12.5q9 24 11 33q2 6 2 22h2v6h4v8h2v7h2v6h2v24h2v6h2q0 5 2 7q0 4 2 6q0 2 2 4q0 8 4 28q0 2 1 6.5t1 6.5h2q3 6 3 8h2v8h2q1 5 4 18t4 21h2v8h2v8h2v13 h2v8h2q0 4 2 6q0 4 4 16q0 11 4 27q0 4 2 6v6h2q2 6 2 19h2q3 9 3 20h2v4h4v9h2v10h2v8h2v14h2v15h2q1 3 1.5 7.5t1.5 8.5t3 8q0 4 2 8q0 9 2 13q0 8 2 12v8h2v10h2v13h2v10h2q2 4 2 16h5v4h2v7h2v14h2q-2 8 -2 24h2q2 6 2 21q0 14 -4 16q-1 5 -5.5 9t-5.5 6h-18v-2h-4v-2 q-2 -1 -6 -2.5t-6 -2.5v-2h-5q0 -2 -2 -4q-16 0 -24 -2v-2q-4 0 -8 -2q-1 0 -9 -4q-2 0 -4 -2q-2 0 -4 -2h-4l-4 -4h-4l-2 -4h-6z" />
<glyph unicode="o" d="M541 1194h4v2h4l2 4q10 2 27 2v2h4v4h8v2h8v2h4v2q15 0 27 3v2q6 0 22 4q6 0 8 2q7 0 9 2h4q12 0 24 -6q28 -4 39 -4v-3q4 -2 8 -2q4 -4 5 -4h4v-4q8 0 20 -4v-2q5 0 14 -6q1 0 4 -1t5 -1l4 -6h2v-4h2v-4q5 -5 6 -5v-4h6l8 -8h4q0 -2 4 -6h5q2 -2 6 -7t6 -7h4l2 -4 q4 -2 10 -2q2 -7 10 -15q1 0 2.5 -1t2.5 -1l2 -8l4 -2q2 -2 2 -6h2q2 -4 2 -10q3 0 6 -3v-6q8 -8 14 -12v-4q2 -2 4 -2v-4h3q0 -2 4 -10v-9h2v-6h2v-4h2q2 -4 2 -14h2v-4h4v-6h2v-9h2v-6h2v-6h2v-8h2q0 -2 2 -4q0 -4 2 -6q0 -5 4 -9q0 -8 2 -10q0 -6 2 -8v-6h3v-8h2v-11h2 v-6h2v-8h2v-6h4v-6h2q0 -23 2 -33h2v-8h2v-10h2q0 -11 2 -17q0 -4 2 -6q0 -7 4 -27q0 -4 2 -6q0 -3 1 -9t1 -9h2v-6h2q2 -31 2 -88h3v-8h2v-23h4v-18h2v-11h-2q-1 -7 -2 -22.5t-2 -22.5q2 -4 2 -20q0 -17 2 -23q4 -16 4 -28q0 -25 -13 -64v-10h-2v-14h-2v-9h-2v-10h-2 q-1 -8 -2 -23.5t-2 -23.5q-1 -5 -6.5 -20.5t-7.5 -24.5v-12h-2v-7h-4v-6h-2v-10h-2v-4h-2q0 -12 -2 -18h-3q0 -5 -2 -5q0 -6 -4 -14q0 -2 -2 -4q-1 -3 -2 -10t-2 -10h-2q-2 -4 -2 -11h-2q-2 -4 -2 -12h-2v-4q-2 -2 -6 -2v-4h-2q0 -6 -2 -10h-2v-7q-2 0 -4 -2v-4 q-1 0 -2.5 -1t-2.5 -1v-4q-1 0 -2 -1t-2 -1v-4q-2 -2 -4 -2q-2 -2 -2 -6l-6 -6v-4q-3 0 -6 -3v-4q-2 -2 -6 -5t-6 -5v-4q-2 -2 -6.5 -6t-6.5 -6v-4q-2 0 -6 -4v-5q-1 -1 -4 -2t-4 -2l-14 -18h-4q-3 -9 -13 -12v-4h-6q-3 -5 -10 -9l-4 -6h-4l-6 -10h-5q-2 0 -2 -4h-6 q0 -2 -4 -6h-4q0 -2 -4 -6h-4q0 -1 -1 -2t-1 -2h-4l-2 -5q-8 -4 -15 -4q0 -4 -4 -8h-6v-2h-4q-2 -2 -2 -4q-2 -1 -6.5 -2.5t-5.5 -3t-2 -6.5h-4q0 -13 4 -17h2q0 -4 2 -6q2 0 4 -2q0 -8 4 -12q0 -3 1 -9.5t1 -9.5q-12 -8 -18 -14q0 -2 -2 -4h-5q0 -2 -4 -6h-4q-1 -1 -2 -3 t-2 -3h-4q0 -1 -1 -3t-1 -3q-5 0 -8 -3q-2 0 -2 -4h-6q0 -2 -2 -4h-5v-2l-8 -2v-2h-16q-2 2 -5 3t-5 3h-4l-3 4h-4v2h-6v2q-6 3 -10 3q-6 6 -8 10h-2v4l-17 12q-10 2 -32 2v-2h-13q-1 0 -11 -3.5t-14 -4t-12 1.5q-2 0 -10 4q-4 0 -8 2h-8v2h-10v2h-7v2h-6v2h-4l-12 17 q0 2 -2 4q0 2 -2 4v4l-4 2v4l-4 2v4q-1 1 -4.5 3t-4.5 3t-1.5 4t-2.5 5q4 16 4 28q6 3 9.5 7.5t9 7t18.5 2.5q4 -4 11 -4q10 0 18 4q4 8 4 10l-12 16q-2 0 -6 4v5l-4 2v4q-4 4 -9 4v4l-8 8v4q-2 0 -4 2v4q-2 1 -5 4t-5 4v5l-4 2q-2 4 -2 8l-19 16v4q-1 0 -2 1t-2 1v4 q-5 4 -14.5 13.5t-14.5 13.5v4q-2 2 -6 5t-6 5q-1 2 -2 7t-2 8q-4 2 -12 10v4q-1 0 -3 1t-3 1v4h-2v4h-2v6h-2v7h-3v4q-2 0 -4 2l-2 8q-1 0 -2 1t-2 1v4h-2v4h-2v4l-4 6v5q-4 0 -4 2v4q-4 0 -8 4q0 4 -4 12l-9 6q-1 3 -2 8t-2 7q-4 0 -4 2v4q-4 2 -8 6v4h-4v4h-2v8h-2 q0 4 -2 8h-2v7q-2 2 -4 2v4h-2v6h-2v4h-2v8h-2q0 1 -1.5 3.5t-1.5 4.5h-2q-2 2 -2 8l-4 3v4h-2v6h-4v4h-2v8h-2q0 4 -4 12h-2v9h-2q0 4 -2 6q0 10 -2 14q0 4 -2 6q0 4 -2 6q0 4 -2 6q0 7 -2 11v10h-2v14h-3v8h-2v9h-2v24h-2v21h-4v8h-2v10h-2v8h-2v4h-2q0 19 -4 29q0 6 -2 8 q0 7 -2 11q0 18 2 28q0 38 2 56q0 8 2 12v14h2v12h2v9h2v14h2v6h2v4h4q0 4 4 12h2v11h3v12h2q0 4 2 6v4q2 2 4 2q0 2 1 5.5t1 5.5l8 6q4 8 4 12l4 2v4q4 4 12 8q1 6 4.5 15t4.5 12q2 2 4 2v4q4 4 6 4q4 12 4 15q1 0 3 1t3 1v4q6 6 10 8v4q2 2 4 2v4q2 4 8 8.5t7 5.5v5 q18 15 35 32v4q1 1 3 2t3 2v5q4 3 11 10t11 10v4q1 0 2 1t2 1l2 8q1 1 3.5 2t3.5 2v5l4 2l4 10q8 8 14 12v4q2 2 7 6.5t7 6.5q2 4 2 10l11 6q0 2 2 4h4q2 2 5 6t5 6h4l2 4h2q4 4 4 9h7q0 2 2 4q4 0 12 4l4 6q4 0 6 2q1 0 3 1t3 1l2 4q4 2 11 2q0 4 2 4h4l2 4h6q0 1 1 3.5 t1 3.5h4q4 4 4 6h6q0 2 4 6h4q0 2 2 4h5zM891 422q10 29 10 110v64q0 88 -14 133q0 27 -2 41h-2q0 4 -2 6q0 6 -2 8q0 15 -2 23q0 1 -5 16q0 2 -1 5.5t-1 5.5h-2v8h-2v14h-2v6h-2v8h-2q-1 1 -2 4t-2 5h-2q0 10 -2 16h-2v4h-2q0 10 -4 14q0 3 -2 5q0 4 -2 6q0 4 -2 6 q0 4 -2 6q0 4 -2 6q-3 6 -3 10h-2q-2 2 -2 9l-4 2v4q-1 0 -3 1t-3 1q-1 2 -1 7.5t-1 8.5h-2q0 6 -2 10q-2 2 -4 2l-2 9q-6 10 -37 36l-25 29h-4q0 2 -4 6h-4q-1 1 -3 4t-3 4h-4v2h-4v3h-6v2h-9v4h-6v2q-6 0 -8 2v2h-10v2q-19 6 -37 2v-2q-12 -2 -33 -2v-2q-4 -2 -8 -2v-2 h-10v-4q-4 0 -8 -2v-3h-4l-5 -6q-5 -2 -16 -5t-16 -5l-2 -4q-2 -2 -9 -2q-4 -4 -4 -6h-4q-6 -6 -8 -10h-4q0 -3 -2 -5h-4q-1 -1 -3 -4t-3 -4h-4q-12 -12 -15 -14h-4q0 -4 -4 -8q-4 0 -6 -2v-4q-2 0 -4 -2v-5q-11 -11 -21 -16v-6h-2q0 -2 -4 -6l-8 -6v-6q-1 0 -2 -1.5 t-2 -1.5q-4 -8 -4 -12l-4 -4v-4l-8 -4v-4q-3 -2 -5 -2v-4q-8 -8 -10 -9v-4l-10 -10v-4q-2 0 -6 -4v-4q-1 -1 -4 -2t-4 -2v-4q-4 -4 -7 -4q0 -7 -2 -11l-8 -6v-4q-1 0 -2 -1t-2 -1q-2 -2 -2 -8l-4 -2v-6h-2v-9h-2l-6 -12h-2v-4q-2 -2 -4 -2q0 -6 -2 -8q0 -2 -5 -2v-4 q-2 -2 -4 -2l-6 -23h-2q-4 -8 -4 -12h-2q-2 -6 -2 -17h-4v-6h-2v-4h-2q0 -8 -2 -12h-2v-57h-2q2 -6 2 -23v-43h2v-10h2v-8h2v-11h2v-8h4v-6h2v-14h2v-15h2v-6h2v-6h2v-6h2v-4h2q0 -7 4 -19q0 -4 4 -8q3 -6 3 -12h2v-14h2q4 -8 4 -13h4q0 -6 4 -22h2q0 -5 4 -13h2q0 -2 2 -4 q0 -2 2 -4q0 -4 2 -6q0 -2 4 -10q0 -4 2 -6t2 -8h2q3 -3 3 -9l4 -2v-4q2 -2 6 -2q0 -6 2 -10q2 0 4 -2q0 -4 4 -6q1 -2 2 -6.5t2 -6.5q4 -4 6 -4q2 -4 2 -10q4 0 4 -2v-4q2 -1 5.5 -3t5.5 -3v-4q1 -1 3 -2t3 -2v-4q0 -3 4 -3q0 -2 1 -6t1 -6q2 0 4 -2v-4q1 -1 4 -3t4 -3 q2 -2 2 -8l4 -2l4 -6h3q0 -7 2 -11q2 0 4 -2v-4q3 -2 8 -7t8 -7v-4q4 -4 6 -4v-7q3 -2 8.5 -6t8.5 -6v-4q2 -1 5 -4t5 -4v-4q2 -2 4 -2v-6q4 0 4 -2v-2q4 0 4 -3v-4q2 -1 6 -4t6 -4v-4q2 -2 7.5 -6t7.5 -6v-6q2 0 6 -4v-5q2 -1 7 -4t7 -4q2 -2 4 -6t4 -6q3 -3 8 -7.5t8.5 -8 t6.5 -7.5l8 -8q0 -2 4 -2q0 -6 2 -10q6 -3 13 -10q2 -2 2 -4h6v-2h4q4 0 16 6h4l2 4h7v2h4l2 4l10 4q0 2 2 4h4q2 2 2 4h4q2 2 2 4h4q2 2 2 4h4v2q1 0 11 5q2 2 6 2q0 4 2 4q2 2 8 2q1 1 2 4t2 4h4q2 0 2 4h4q2 1 11 10q1 0 3 1t3 1q11 11 16 21l17 12v4h2q7 7 10 15h4 q2 2 2 8h2v4q4 0 4 2l6 12q2 2 4 2v6q0 2 4 2v7q3 0 5 2q0 1 1 3.5t1 4.5q1 0 2 1t2 1v4h2v4h2q2 6 2 16h2v5h2q2 4 2 14h2q1 1 2 4t2 4h2q0 8 2 14h2q0 19 2 27h2q0 4 2 4q0 4 5 19q0 4 2 6q0 16 2 24q0 6 2 8v5h2v6h2v20h2v8h2v23z" />
<glyph unicode="p" d="M1032 1094v-4l4 -3v-4h2v-6h2q2 -4 2 -10h2v-6h5v-4h2q0 -13 2 -19h2q0 -13 6 -22q0 -4 2 -6q6 -40 6 -41q0 -7 2 -11v-6h2v-8h2v-16q9 -36 2 -54h-2v-8h-2v-6h-2q0 -12 -2 -18q0 -7 -2 -11q0 -6 -2 -8q0 -6 -4 -22q0 -4 -2 -6v-9h-2v-4h-2q-2 -4 -2 -14h-2q-2 -2 -2 -8 h-5v-6h-2v-4h-2v-7q0 -2 -4 -2v-4h-2v-6h-2q0 -4 -4 -12q0 -2 -2 -4v-6q-2 -2 -4 -2q-4 -8 -4 -15q-4 0 -4 -2v-4h-2v-6q-1 0 -3 -1t-3 -1v-4h-2v-6h-3v-4h-2l-6 -21q-1 -1 -4 -3t-4 -3v-4l-4 -2v-6h-2q-2 -4 -2 -11h-2q-2 -2 -2 -8q-1 0 -3 -1t-3 -1q0 -6 -2 -8q0 -2 -4 -2 q0 -4 -5 -14q-2 0 -4 -2v-5h-2v-4l-4 -4v-4l-4 -2q-2 -4 -2 -8l-4 -2v-6q-2 -1 -5 -3t-5 -3q0 -7 -2 -9t-4 -2v-4q-4 -4 -7 -4v-4q-2 -2 -4 -2v-6q-4 0 -6 -2v-2q-2 -1 -6 -4t-6 -4v-5q-1 -1 -9 -8t-12 -12l-16 -16h-4q0 -2 -2 -4q-10 -5 -12 -5l-2 -4q-4 -2 -9 -2v-2 q-2 -1 -5 -2t-5 -2v-2q-12 0 -18 -2q-32 -8 -62 -8q-26 0 -47 6h-33v2h-8v2h-10v2h-16v4q-5 0 -13 4v2h-6v2h-22v2h-13v3q-14 0 -22 2q-15 0 -21 2q-6 0 -8 2q-8 0 -12 2q-7 1 -22.5 2t-22.5 2v2h-6v2q-4 2 -11 2v2h-8v2h-6v4h-8v2h-4v2h-4l-6 6q-1 0 -4 1t-5 1q0 3 -2 5 q-6 4 -18 4l-4 -2q-9 -9 -11 -13q0 -14 -2 -22h-2q0 -6 -2 -8q0 -9 -2 -13q0 -8 -2 -12q0 -6 -2 -10q0 -13 -2 -17q0 -6 -2 -10q-2 -2 -2 -8h-2q-2 -6 -2 -16h-2v-19h-2v-6h-4v-4h-2v-6h-2v-6h-2v-9h-2q0 -12 -5 -22q0 -6 -2 -10q0 -5 -2 -9q0 -6 -4 -18q0 -5 -1 -14t-1 -13 h-2v-6h-2q-1 -10 -3 -29.5t-3 -29.5h-4q0 -6 -2 -8h-2q-1 -7 -3 -21.5t-3 -21.5h-2q0 -5 -2 -7q0 -4 -2 -4q0 -5 -3 -8q0 -1 -2 -13t-4 -18v-8h-2v-6h-2v-14h-2v-15h-2v-12h-2v-26h-4v-17h-2v-8h-2q0 -19 -2 -27h-2v-6h-2q0 -4 -2 -4q0 -4 -2 -6q-1 -1 -5.5 -6t-5.5 -10h-4 q-3 -3 -8 -8.5t-8 -8.5h-4q-1 -1 -2 -3t-2 -3h-4q0 -1 -1 -3t-1 -3h-4q-5 -5 -5 -6q-6 0 -10 -2v-2q-3 -1 -10.5 -0.5t-9.5 2.5q-6 2 -8 4v2h-7q0 4 -2 4h-6q-2 3 -6 8t-6 8v4l-4 3v6h-2v4h-2v8h-2v12q0 1 -3 7t-5 12t-1 10h2q2 2 5 8h2v6h2q0 13 4 33h2q0 6 2 8q0 4 2 6 q0 11 4 27q0 14 2 22q0 2 1 7.5t1 7.5h2v4h2q2 8 2 24h2v11h2v8h4v6h3v8h2q0 17 2 25l14 51q0 3 1 9t1 9h2v7h2v4h2v10h2q2 2 2 8h2v8h4q0 11 2 17h2q0 17 3 32h2v11h2q0 4 2 6q0 2 2 4q0 4 2 6q0 7 4 23q0 3 1 8t1 8h2v6h2v8h2q2 8 2 25h2v6h4q0 6 2 10h2q0 7 4 19h2 q0 4 3 4q0 8 2 12q0 4 2 8q0 4 2 6q0 9 2 13q0 4 2 6v8h2v6h2q2 4 2 13h2v16h2v8h4v4h2v12h2q0 15 2 21h2q0 21 4 33q1 3 3.5 9t3.5 9q2 2 4 2v4h2v4h2l6 31h2v4h4v4h2q0 7 4 15h2q0 10 4 16q0 4 2 6q0 5 4 17q0 6 2 8q0 4 1.5 13t1.5 13h2v4h2v7h2v6h2v12h2v6h4q0 6 2 8h2 q0 9 2 13h2v4h2q0 6 4 14q6 22 6 23q4 12 4 14h2v4h3q2 4 2 14h2q1 2 2 7t2 8h2q0 4 2 8h2v6h2q0 10 4 14q0 13 2 19q0 4 2 6q0 4 2 6q0 4 2 6q0 6 2 8v5h2v6h2q2 2 2 8h2q3 9 3 20h2q1 2 2 8t2 9h2v6h2v6h2v14h2v7h2q0 4 4 8q0 2 4 14q0 6 4 18v5h2v4h2v4h2v8h2v6h2v4h5v6 h2v25h2v14h2v39h2v8h2q0 3 4 11q0 4 2 6q0 2 2 4v4q4 2 10 8v4q2 2 7.5 6.5t7.5 6.5q23 -8 26 -7q1 0 10 5t16 6.5t13 -0.5v-2q4 -2 10 -2v-3h43v3h13v2h12v2h10v2h6v2h45h35v-2h8v-2h11v-2h8q0 -5 2 -5q1 -1 4 -2t4 -2q2 -2 2 -4h4q2 0 2 -4h4q2 0 2 -4h6q0 -1 3 -4 q2 -1 6 -2t6 -2l2 -4h4q2 -4 6 -8h4v-4q3 0 8 -5q0 -2 2 -4h7v-2h8v-2h18v-2h4q0 -2 4 -6h4q0 -1 1.5 -2t1.5 -2q12 -4 18 -4l6 -6h4q0 -4 2 -6h4q1 -1 2 -3.5t2 -3.5h5q2 -2 2 -4h4v-2q1 0 3 -1t3 -1l4 -4h4q2 -4 10 -12q1 -1 4 -2t4 -2q5 -5 5 -6q4 0 6 -2q4 -2 8.5 -8 t5.5 -7h4q2 -2 10 -14q4 0 4 -2v-4q3 0 7 -4q1 -1 2 -4.5t2 -4.5q2 -2 4 -2q0 -4 2 -6h2v-4l4 -4v-6h2v-4h2v-4zM539 1094v-4q-1 0 -2 -1.5t-2 -1.5v-4l-5 -2q-4 -24 -4 -34h-2q-3 -6 -6 -15h-2q-1 -5 -3 -15.5t-3 -15.5h-2q0 -4 -2 -6q0 -4 -4 -12q0 -3 -1 -8.5t-1 -7.5 q-2 -2 -4 -2v-7h-2v-4h-2q-3 -6 -3 -16h-2v-6h-2v-6h-4v-8h-2v-13h-2v-8h-2v-8h-2v-8h-2q0 -5 -2 -9q0 -2 -2 -4q0 -4 -2 -6q0 -4 -2 -6q0 -4 -2 -6q0 -3 -1 -8t-1 -8h-2v-5h-2v-10h-2v-12h-2v-8h-2v-6h-5v-7h-2v-4h-2q0 -16 -2 -24h-2q0 -11 -4 -15q0 -4 -2 -6q0 -4 -2 -6 q0 -6 -2 -10q0 -4 -2 -6q0 -4 -2 -6v-7h-2v-10h-2v-10h-2v-16h-2q0 -25 2 -37l24 -25q2 -2 2 -4h7q0 -2 4 -6h4q0 -4 2 -4q2 -2 8 -2q0 -1 1 -3t1 -3h4q2 0 2 -4h4v-3q6 0 10 -4q7 0 15 -4q4 0 6 -2q6 0 22 -4q7 0 9 -2q10 -2 28 -2v-2h6v-2h37v-2h25v-2h10v-4h27v-2h26v-2 h11v-2h16v-2h14q1 0 6 -1.5t8 -2t7 1.5h4v2h6l2 4h4q4 4 4 8q15 10 19 14v4q1 1 4 3t4 3v5l4 2q4 8 4 14q4 0 6 2v4q10 10 19 16v5l4 4q2 2 2 6h2v4l10 6v4q2 2 4 2q0 6 2 8q0 2 4 2q0 7 4 9v6l7 4v4l6 4v4h2v4h2q2 4 5 12.5t5 12.5q2 2 4 2v6h2v4q0 2 4 2q0 2 1 6t1 6 q3 0 5 2q0 5 4 13q2 4 2 8h2q2 6 2 16h2v6h2v7q1 0 3 1t3 1v8h2q0 10 2 16h2q0 17 4 25q0 6 2 10q0 29 -2 43q0 6 -2 8v15h-2v18h-2v8h-2q-2 6 -2 17h-2v4h-4q0 14 -2 22h-2q0 11 -2 15h-2q0 6 -4 8q0 2 -2 4q0 3 -3 6q0 4 -4 8v6q-4 2 -8 6q-4 8 -4 13h-4q0 4 -2 6 q0 2 -4 2v4h-2q-1 1 -6.5 7t-6.5 11q-4 1 -6 2.5t-3.5 4.5t-2.5 4h-6q0 4 -2 4h-4q-1 2 -4 6t-4 6q-4 0 -6 2q-10 10 -11 12l-8 2q0 3 -2 5h-4q0 4 -2 4h-4l-2 4h-4l-2 4h-4v4h-5v2q-8 0 -12 2q0 2 -2 4q-6 0 -8 2q0 1 -1 2t-1 2q-2 0 -5.5 1t-4.5 1q-2 2 -2 4q-10 5 -15 5 v2h-4v2q-8 4 -12 4v4q-8 0 -10 2v2h-6v2h-7v2h-4v2q-6 0 -10 2h-10q-16 4 -31 4q-50 0 -63 -20q-5 -5 -5 -13q0 -22 -2 -26q0 -1 -1 -3.5t-1 -4.5q-2 -1 -8 -7l-6 -22h-2q-1 -1 -3.5 -4.5t-4.5 -5.5h-4z" />
<glyph unicode="q" d="M242 985h4v2h8l12 12q0 11 2 17h-2q-6 22 4 43q3 1 12 2t11 2l4 16h-4v4h-2q-1 4 0.5 9t1.5 6l8 4v2h4q0 4 2 4q2 2 8 2q0 1 1 3t1 3q6 3 13 10l4 7q12 12 18 16v6q2 0 4 2q4 4 6 8q6 1 15 4.5t12 4.5q0 1 1 3t1 3q4 4 6 4v4h2l7 10h6q0 2 4 6h4q0 1 1 2t1 2l8 2q0 1 1 2 t1 2h4q1 1 4.5 5.5t5.5 5.5h5q0 4 2 6h4q2 2 2 4l22 6q2 2 6.5 6t6.5 6h4l2 4q3 3 6 3v2l12 6l4 4h4v2h6v2h5v2h4v2h4v2q1 0 5.5 2t8.5 4q2 0 7.5 1t8.5 1v2h7v2h8v2h10v2q4 2 16 2v5h5v2h14v2q14 0 20 2v2q4 -2 13 -2v2h14v2q25 0 37 2h33q14 0 20 -2h19v-2h8v-2h8v-2h10 v-2q6 -1 16 -4t11 -3v-2h4q2 0 2 -4h4l12 -12h4q1 -1 2 -3t2 -3h5l2 -4h4l2 -4l10 -4q3 -6 10 -13h4q1 -2 4.5 -5t4.5 -5q2 0 4.5 -1t3.5 -1l2 -4h6q0 -2 4 -6h4q12 -16 19 -23h4l10 -10q0 -2 4 -2v-6h2q0 -1 1 -3t1 -3q2 0 4 -2v-4q13 -13 21 -17q0 -6 2 -10q2 0 4 -2 q0 -4 2 -8h2q0 -5 4 -9q0 -6 4 -10q0 -6 4 -14q2 -4 2 -14h2q2 -6 2 -19h2v-4h2q1 -3 3.5 -10t3.5 -10h2v-7h2v-8h2v-6h2v-20h2q0 -9 2 -13q0 -5 -1 -16.5t-1 -17.5q0 -3 2 -25.5t4 -34.5l-1 -9q0 -9 1 -9q0 -1 -1 -2t-1 -2.5t2 -4.5q0 -8 1 -24.5t1 -24.5q0 -5 -1 -14 t-1 -14q4 -11 5 -33t-3 -37q2 -8 2 -29q0 -6 -2 -10q0 -35 2 -51l-2 -4v-21q0 -51 -8 -84v-16h-2v-31h-2q-1 -2 0.5 -3.5t1.5 -2.5q-2 -8 -2 -24h-2v-7h-2q-2 -6 -2 -18h-5v-14h-2v-9h-2v-10h-2q-3 -12 -8 -22q0 -3 -4 -11q0 -1 -1 -4.5t-1 -5.5q-1 0 -2 -1t-2 -1v-4h-2v-4 l-4 -4v-4q-4 -4 -8 -6v-4q-3 -1 -5 -3v-4q-2 0 -4 -2q0 -6 -2 -10q-1 0 -2 -1t-2 -1q0 -2 -1 -4.5t-1 -3.5q-2 -2 -4 -2v-6q-4 0 -4 -2v-4q-4 0 -4 -3q-2 -2 -2 -8q-1 0 -3 -1t-3 -1v-4q-3 -3 -9.5 -9t-9.5 -9l-2 -8h-2v-5q-1 -1 -3 -2t-3 -2v-4h-2l-6 -6h-4q0 -4 -2 -6h-4 q-8 -8 -9 -10h-4q-2 -2 -6 -7.5t-6 -7.5h-6q-2 -4 -6 -8l-6 -4v-4q-3 0 -5 -2l-6 -8h-4q-2 -2 -2 -4q-4 -1 -12 -4.5t-12 -4.5l-2 -4h-5v-2q-4 -4 -8 -6q0 -4 8 -16v-4q0 -2 5 -2v-4q7 -7 8 -9q4 -8 4 -14h2v-4h2v-4l4 -2v-4q2 -2 6 -2v-4l4 -7v-4h2v-4h2v-4h2v-4h2 q5 -10 7 -12q0 -9 2 -13v-6h2v-6h2q4 -8 4 -12h2v-6h4q0 -9 2 -13h2v-4h2v-6h2q0 -6 4 -8q0 -9 4 -25q5 -10 7 -12q1 -5 0.5 -19t-2.5 -16q-1 -4 -3.5 -7.5t-4.5 -5.5t-6.5 -5t-6.5 -4q-6 0 -14 -4q-2 0 -4 -2q-5 0 -9 -4q-3 0 -6 -3h-20v-2h-10v-2q-8 -4 -15 -4v2 q-4 0 -8 2q0 3 -4 7l-19 16v4l-4 6v4h-4v4q-2 0 -4 2v5h-2v10h-2q0 8 -4 12q0 2 -2 4q0 1 -2 9t-4 12q0 4 -2 4v4h-2v6h-2v4h-2v4h-2v4h-2v4h-5v4h-2v5h-2v6q0 2 -4 2q0 6 -2 10q-2 0 -4 2v4l-4 4v4h-2v4h-2q-2 4 -2 9l-4 4v4h-2v4h-2v6h-4v4q-1 3 -4.5 7t-4.5 7q-6 0 -8 -2 v-2h-4q-2 -2 -2 -4h-4v-2l-27 -8q0 -1 -1 -2t-1 -2h-4q-4 -4 -4 -6h-4l-2 -4h-6q0 -5 -4 -9h-4v-2q-6 -1 -18.5 -4t-18.5 -4h-13v-2h-8v-2h-10v-2h-8v-2h-8v-2q-14 -2 -45 -2v-2q-9 -3 -23.5 -1t-19.5 5v2q-5 0 -5 2q-38 5 -40 6q-5 0 -7 2q-8 4 -12 4v2h-4v2h-4v3 q-6 2 -19 5t-20 5q-2 0 -2 4h-4l-12 12h-5l-2 4h-4l-2 4h-4v2q-4 2 -14 2v5q-4 2 -12 10v4q-2 2 -6.5 5t-6.5 5v6l-4 2v2q-2 2 -10 5.5t-10 5.5v4q-1 1 -3 2t-3 2q0 3 -1.5 10.5t-1.5 11.5l-20 15q-2 3 -2 12t-2 14h-2q0 4 -2 8q0 1 -1 4.5t-1 4.5q-4 4 -6 4v4l-4 4v6h-3v4 q-4 0 -4 2v4q-2 1 -5 3t-5 3q-4 22 -8 31q-1 0 -2 1t-2 1v4h-2l-2 9h-2v8h-2q-2 4 -2 10h-2q-2 2 -2 10h-3q-1 3 -2 9.5t-2 9.5h-2q0 6 -4 14h-2v27h-2q0 6 -4 18q0 4 -2 6q0 8 -2 12q0 11 -2 17q0 4 -2 6v16h-2v7h-2v8h-2l2 6q-2 8 -2 22q0 15 2 23v2h-2q0 39 2 57h2v17h2 q0 10 4 30v11q-1 4 -1.5 20.5t-2.5 22.5q-2 4 -2 12h2q0 4 4 8q6 40 6 41q0 2 1 4.5t1 3.5l8 8v5h2v8h4v10h3v2v18h2q0 5 4 13q2 2 4 2v4h2q0 4 4 16q0 4 2 6q0 5 2 7v6h2v6h2v10q1 3 4.5 12.5t5.5 14t6.5 11.5t10 11t12.5 6q1 3 5 9.5t5 9.5v12h2v8h2v6h2v9h2q0 1 1 2 t2 2.5t2 3.5v4zM688 336v-4q2 -2 4 -2v-6q12 -8 19 -15v-4l4 -4q4 -4 6 -4q1 -4 4 -12.5t4 -12.5q1 0 2 -1t2 -1v-4l4 -2q9 -9 11 -10h4q0 -6 2 -8q2 0 4 -2v-4h6l4 6q2 2 6 2v6q29 24 41 39v4q4 0 4 2l4 6h2q0 6 2 8q0 2 4 2v4q5 5 7 5v6h2v4q2 0 4 2v6h2v4h2v4h2q2 4 2 8 l4 2v7q4 0 6 2v4q2 0 4 2v6h2v4h2q0 6 4 10q0 2 3 8q0 3 2 5v6q2 6 14 53v20h4v21h2q-2 2 -2 8h2v8h2v19h2q-2 8 -2 22h2v21h2v20q2 0 2 4h-2v8h2v3h-2v77h-2q0 11 2 15v47q0 68 -6 114q0 19 2 27h-2v33h-2q0 4 2 6h-2q-1 4 -2 12t-2 11h-2v20q0 13 -4 41h-2v8h-2q0 4 -2 6 q0 7 -2 9q0 4 -2 8q0 3 -5 8v4l-4 2q-2 4 -2 10q-4 0 -4 2q-2 2 -2 9q-1 0 -3 1t-3 1q0 6 -2 8q-8 8 -12 10v6q-2 2 -7.5 6t-7.5 6t-2 5q-2 0 -5 1t-5 1q-2 4 -10 12q-2 2 -6 2q0 1 -1 3t-1 3q-3 0 -15 4q0 2 -2 4h-4q0 2 -2 4h-4q-1 1 -2 3.5t-2 3.5h-6q-2 2 -2 4h-4v2 q-10 2 -27 2v2h-8v2q-15 3 -34.5 0.5t-29.5 -6.5h-16v-2h-10v-2h-11v-2h-6v-3l-12 -6h-6v-2h-4v-2h-4v-2h-4v-2h-5l-4 -6h-4q-2 0 -2 -4q-4 0 -6 -2v-2q-8 0 -12 -2q0 -2 -2 -4h-8q0 -1 -1 -2t-1 -2h-5q-4 -4 -4 -7q-4 -2 -10 -2v-2q-2 -2 -6 -2q0 -4 -2 -4h-4q-1 -2 -4 -6 t-4 -6l-25 -21v-4l-6 -6q-2 -2 -5 -6t-5 -6t-8.5 -7.5t-10.5 -10.5t-6 -11h-4q-1 -1 -3 -4t-3 -4h-2v-4l-4 -2q-2 -2 -2 -8q-2 -2 -6 -2v-4l-7 -7v-4q-2 0 -4 -2l-2 -8q-1 0 -2 -1t-2 -1v-4h-2v-4h-2v-6h-2v-9h-2v-4h-2q-2 -2 -2 -8h-2v-6h-2q-1 -2 -2 -5.5t-2 -4.5l-4 -4 q0 -4 -5 -19h-2q0 -2 -2 -4v-4q-2 -2 -4 -2q0 -2 -1 -6t-1 -6q-2 0 -4 -2v-4h-2v-7h-2v-4h-2v-6h-2v-8h-2v-6h-2q-1 -1 -2 -4.5t-2 -5.5h-2v-4h-2v-7h-2v-8h-2v-8h-3q0 -4 -2 -8q0 -1 -2 -9t-4 -12q0 -4 -2 -8q0 -4 -2 -6q-4 -12 -4 -20h-2q-2 -6 -2 -17h-2v-8h-4v-8h-2v-15 h-2v-8h-2v-8h-2q0 -31 -4 -47q0 -6 -2 -8q0 -12 -3 -21q0 -12 -2 -20q0 -13 -2 -19v-2q0 -2 1.5 -4t0.5 -4q-4 -21 -3.5 -53.5t5.5 -50.5q0 -4 5 -29q0 -4 2 -6q4 -28 4 -41h2v-8h2v-9h2v-6h4v-6h2q0 -8 2 -12h2v-4h2q0 -12 6 -21q0 -4 4 -8q0 -2 2 -4q0 -4 2 -6v-4h3v-6h2 q2 -2 2 -6q4 0 4 -3v-4h4v-4q2 -2 4 -2q0 -6 2 -8q0 -2 4 -2v-6l4 -4v-4h2v-4h2v-5h2v-4h2v-4h2q2 -4 2 -8q1 -1 3 -2t2 -2q2 -2 2 -8q4 0 8 -4v-4q6 -6 8 -7v-4h2v-4q2 -2 4 -2q0 -2 1 -5t1 -5q2 0 4 -2v-4q1 -1 3 -2t3 -2q2 -2 2 -8q5 -5 9 -5l12 -16h4l4 -4v-4q5 -3 8 -8 h6q0 -4 3 -4h8v-2q16 0 24 2v2h8v2q7 0 19 4q8 0 10 2q6 0 10 2q2 0 4 2q3 0 5 2h4v2h6v2h6v2q6 2 16 2v2h4v4h9v2h4v2q10 0 16 2v3h4v2q4 0 6 2q2 0 4 2q3 0 5 2q3 1 8 3t8 3v2q-2 2 -12 16h-2v4h-2q-1 2 -3 4q0 2 -1 5.5t-1 5.5q-2 2 -4 2q0 2 -1 4.5t-1 3.5l-24 22v5h-2 v4q0 2 -4 2q-1 2 -2.5 7t-2.5 7q-4 2 -12 10v4h-2l-6 13h-2v30h2q1 4 2 12.5t2 12.5q5 17 22.5 31.5t36.5 13.5q2 0 6.5 -1t6.5 -1l4 -4h4q0 -2 4 -6h4l2 -3q2 -2 4 -3v-7q2 0 4 -2q6 -6 7 -8h4l6 -6h4q0 -2 2 -4h4z" />
<glyph unicode="r" d="M516 1157v4h2v4h2v4h2v5q2 2 4 2l2 8h2q2 2 2 10h3v6h2q2 2 2 8h2v4q2 2 6 2q0 7 4 15q2 2 4 2v4h2v4h2v6h2v4h2v6q1 0 6 5v4q4 0 4 2v6l5 2q1 1 4.5 15.5t3.5 17.5h-2v6h-2v6h-4q0 1 -5 16h2q3 3 3 6h4q0 5 2 7t4 2v6q0 2 4 2v4q2 2 4 2v6q2 0 6 4v4q4 3 11.5 9.5 t11.5 9.5l6 10h4q4 4 6 8h4q2 0 2 4h4l6 6h2q0 2 3 5h4q3 3 8 10t8 10h4q4 4 4 6h6q1 2 9 10q2 2 8 2v2q3 3 6 3l2 4h4q2 2 2 6h6q0 2 4 6h4q0 2 2 4l9 2v2l8 2v2q3 0 8 1t8 1v2h6v2h6v2h35v-2h8v-2h7v-2q23 -5 26 -6q6 0 10 -4q5 0 5 -2q6 -2 14 -2l2 -4h4v-2q4 -1 11.5 -4 t11.5 -4q0 -3 2 -5h2q0 -2 2 -4h4q1 -2 4 -5t4 -5h4q4 -4 4 -6q2 -2 8 -2q0 -4 2 -4h5v-4q4 0 6 -2t2 -4h4q1 -1 2 -3.5t2 -3.5h4q2 -2 2 -6l16 -12q0 -3 5 -8h4q8 -8 14 -17h4l6 -6h4q1 -2 5 -6.5t6 -7.5q4 0 6 -2v-4q4 -2 8 -6v-4q4 -4 12 -11.5t12 -11.5v-4q3 0 7 -4 q2 -2 2 -8l4 -2q2 -4 2 -9h2q1 -2 2 -5t2 -5h2v-6h2v-6h2v-4l6 -4q0 -2 1 -4.5t1 -3.5q5 -5 6 -5v-6q3 0 7 -4q2 -2 2 -10l4 -2v-4h4q0 -6 2 -8h2q0 -9 2 -13q2 0 4 -2q0 -4 4 -12q0 -4 4 -8q0 -4 2 -8q0 -2 2 -4v-7h2q2 -6 2 -16h3v-4h2v-8h2q1 -1 2 -4t2 -5h2v-8h2v-4h2 q0 -8 2 -12l4 -4q0 -9 4 -25q0 -4 2 -4q0 -4 2 -8q1 -2 2 -6t2 -6h2v-15h2v-8h2v-14h2v-10h3v-7h4v-12h2v-96q-2 -18 -2 -55h-4v-5h-3v-6h-2v-6h-2v-6h-2q-1 -2 -0.5 -9t-1.5 -9q-2 0 -4 -2q0 -1 -1 -3.5t-1 -3.5l-8 -6v-4q-4 -4 -6 -4v-4l-4 -4q-2 -1 -11 -10h-4 q-1 -1 -3 -4.5t-3 -4.5h-4q0 -1 -1 -2t-1 -2q-8 -4 -14 -4v-2q-9 -9 -13 -10q-1 -5 -12 -12q-4 -4 -4 -6h-4q-1 -1 -3 -3.5t-3 -3.5h-4q-1 -2 -4 -6t-4 -6h-5v-2q-2 0 -6 -4q-2 0 -2 -4q-2 0 -4.5 -1t-3.5 -1l-4 -4q-1 0 -3 -1t-3 -1q-3 -6 -8 -11h-4l-3 -4h-4q-1 -2 -3 -5 t-3 -5h-6q0 -2 -2 -4h-4q-1 -1 -3 -4t-3 -4h-4v-2q-1 0 -3 -1t-3 -1l-2 -4h-5q-3 -6 -8 -11l-18 -6v-2h-4v-2h-4q-2 -2 -2 -4h-5q-2 -2 -2 -4h-4q0 -2 -2 -4h-4q-2 -4 -8 -10h-4q0 -1 -1 -3.5t-1 -3.5h-4q-3 -2 -17 -16h-4q0 -2 -2 -4h-4q-2 -4 -8 -10h-4l-4 -6h-6v-2h-5 q0 -3 -2 -5h-4q-2 -2 -2 -4l-8 -2v-2h-4v-2q-1 0 -5.5 -2t-8.5 -4h-6v-2h-5v-2q-8 -4 -12 -4v-2h-6v-4q-12 -2 -31 4l-22 -4v-2q-9 0 -13 -2v2q-20 8 -30 8q-4 -8 -6 -10q0 -68 -2 -80l2 -8q0 -19 -4 -39q0 -6 1 -19.5t1 -19.5q-13 -42 -13 -162v-139h2v-27h2q0 -21 2 -31h2 v-10h3q0 -6 2 -8q0 -12 2 -18q0 -15 2 -21q0 -8 2 -12v-21q12 -47 6 -78l-12 -8h-5q-4 -4 -4 -6h-4q-1 -1 -2 -3t-2 -3q-4 0 -8 -2v-2q-10 2 -35 2q-2 0 -14 -6q-4 -1 -10.5 1t-14 5.5t-8.5 3.5h-25v4h-6q0 2 -4 6l-4 2t-2.5 1.5t-1.5 2t-2 4.5h-2v9h-2v6h-2q-5 4 -0.5 26.5 t4.5 26.5q0 3 -6 39q-2 6 -2 20h-4q0 34 -2 50q-6 31 -4 47q2 2 2 4h-2v16q5 21 2 27h-2v24h2v13h-2v30h2v25h2v12h2v54h4v22h2v8h2v37h2v6h2v21h2q0 17 1 53t1 55q2 7 2.5 29t-2.5 31q-1 4 0.5 8.5t1.5 5.5q0 11 -4 35v41h-2v14h-2v8h-2v23q-8 18 -25 35l-6 4v4l-31 29 q-2 2 -4.5 5t-5 5.5t-5.5 5t-6.5 3.5t-8.5 1l-8 -4q-9 -19 -11 -25h-2v-4h-2v-10h-2l-6 -12h-2v-4h-2v-4h-2v-7h-2q0 -2 -4 -10q0 -4 -2 -6q0 -2 -2 -4q-1 -3 -2 -10t-2 -11h-3q-4 -8 -4 -12h-2v-4h-2v-6q-1 0 -3 -1t-3 -1v-6q0 -2 -4 -2v-7h-2q0 -10 -6 -22q0 -4 -4 -8v-6 q-2 0 -4 -2v-9h-2v-4h-2q-3 -6 -3 -12h-2v-4h-2q-2 -6 -2 -16h-4q0 -7 -2 -9h-2v-6h-2v-4h-2v-6h-2v-6q-2 0 -4 -2l-2 -5q-2 -6 -4 -8q0 -4 -2 -6q-2 -4 -2 -10l-4 -4v-4h-2q-3 -6 -3 -12h-4v-7h-2q0 -2 -4 -14h-2v-4h-2q0 -4 -2 -6q0 -1 -1 -4t-1 -4q-1 0 -2 -1t-2 -1v-4 h-2l-6 -21q-4 0 -4 -2v-4h-2l-7 -27h-2q0 -4 -2 -8h-2v-6h-2v-4h-2q0 -1 -2 -8.5t-4 -12.5q0 -2 -2 -4q0 -4 -2 -6q0 -1 -1 -4t-1 -4h-2q-2 -4 -2 -8l-4 -2v-6h-2v-7q-4 0 -6 -2v-4h-2v-4h-3v-4l-4 -4v-4q-4 -4 -6 -4v-6q-2 0 -4 -2v-7h-2v-4h-2l-6 -18h-2l-4 -8q-2 0 -4 -2 q0 -6 -2 -8q-2 -3 -4 -3v-6h-3v-4h-2v-4h-2v-4h-2v-6h-2v-4h-2q-4 -8 -4 -13l-4 -2q-2 -4 -2 -8q-2 -2 -6 -2v-6h-2v-4h-2v-4h-2v-4l-4 -4v-4q-1 0 -2 -1t-2 -1q0 -1 -1.5 -3.5t-1.5 -3.5l-8 -8v-4l-4 -4v-4h-2v-4h-2v-4q-1 0 -3 -1t-3 -1v-4q-2 -2 -6 -6.5t-6 -6.5v-4 l-4 -3q-4 -3 -5 -5h-4l-6 -8q-22 -16 -61 -19q-1 2 -2 3t-1.5 2t-0.5 2v4h-2v6l-3 2q-3 2 -4 4q-4 0 -16 4q-1 0 -2 1t-2 1v4h-2v2h2v15h2v6h2v4h2v6h2q4 8 4 12h2v6h4q0 5 2 9q3 2 5 2v4q2 2 4 2q1 2 2 6t2 6l6 6v4q4 0 4 2v4h2v4l4 5v4l4 2q3 4 8 20h2q0 5 3 8h2 q0 1 1 4.5t1 4.5q2 2 4 2v4h2v4l4 6v4q2 0 6 4q2 2 2 8q1 0 3 1t3 1q0 9 4 29h2q0 6 2 8t4 2v4h3v5h2v8h2v6h2v4h2q2 6 2 16h2q6 6 6 13h6q5 10 17 26v4l4 4q4 8 4 13l4 2q2 4 2 10q2 2 6 2q0 15 2 23h2v4h2v6h2v6h2q0 4 2 6q0 5 4 17q0 4 4 8q1 5 3.5 14t3.5 14h2v4l4 3v4 q2 2 6 2v4q0 2 4 2v6h2q0 8 4 12q0 2 2 4q0 4 2 6q0 5 2 5q1 2 2 6.5t2 7.5h2q5 15 5 18h2q2 4 2 9h4v10h2v4h2v6h2v8q2 2 4 2l6 29h2q1 2 2 6t2 6h2v4h2v8h2v5h2q3 9 9 18q0 2 4 2v4h2q0 6 2 10h2q0 5 4 13q0 4 4 8v8q2 2 4 2v10h2v9h2v4h2v6h2v4q2 2 6 2v4h3v6q2 0 4 2v4 h2l6 29h2v4q2 0 4 2q4 7 8 25l4 2v8h4v4h2v8h2v4h2q0 9 3 15h2q0 8 2 12l6 12q0 4 2 6q0 5 2 7v6h2v4h2q4 2 4 8h4q3 2 8.5 6t8.5 6v4h2v7h2v8h2v4h2v8h2v6h2q2 4 2 8h2v6q4 0 4 3v4h4q0 14 2 20h2v4l4 4v4h2q0 1 1 3.5t1 3.5q1 0 2.5 1t2.5 1v4q1 1 4 3t4 3v4h2q2 4 2 10h2 v6h2q1 1 2 4t2 4h2q0 9 2 13h2q0 12 2 18h2q0 2 2 4q0 5 4 13q0 4 2 4q0 4 2 6q1 2 2 5t2 5t1 4h2q2 4 2 14h2q2 4 2 9h4v6q2 0 6 4v4zM1047 840h4q0 1 1 3t1 3q4 2 8 6v4l4 2v4h4v6h2v4h2q0 13 2 19h2v8h2q0 10 2 14q0 2 -1 5.5t-1 5.5q-1 7 -0.5 30t-1.5 29h-2 q-2 14 -2 43h-2v8h-2v8h-4v5h-2v6h-2v4h-2q0 6 -2 8h-2q0 6 -2 8q0 4 -2 6q0 6 -2 8q0 17 -2 25q0 3 -5 8v6h-2q-2 4 -2 9h-2v8q-4 0 -4 2v4l-6 4v4h-2q0 6 -2 10q-4 4 -6 4q0 3 -4 7q0 4 -2 6q0 2 -2 4v4l-4 4v4h-3q-2 2 -2 6l-4 2v4q-2 2 -6 2v7q-2 0 -6 4v4q-1 1 -3 2 t-3 2v4q-1 0 -2 1t-2 1v4l-12 12v5q-10 5 -15 10v4q-12 12 -18 16q-3 3 -8 13h-7q0 2 -4 6h-4q-1 1 -3 4t-3 4h-4q-2 2 -4.5 5.5t-3.5 4.5l-10 4q-1 2 -3 4q-4 0 -6 2v2h-6q-2 2 -2 4h-4v3l-12 6q-6 0 -8 2h-7v2h-6v2q-27 10 -53 10v-4h-10v-2h-6q-2 -2 -2 -4q-2 -1 -5 -2 t-4.5 -1t-3 -2.5t-2.5 -6.5h-2v-23h-2q-2 -2 -2 -10q-1 0 -3 -1t-3 -1v-4h-2q0 -7 -2 -9h-2q0 -10 -2 -14q-2 0 -4 -2v-6h-2v-4h-2v-4l-4 -4v-4q-5 -5 -7 -5v-6q-4 0 -4 -2v-4q-4 0 -6 -2v-4h-2v-6h-2v-4h-2q0 -9 -4 -15v-4q-2 0 -4 -2v-4q-1 0 -2 -1t-2 -1q-4 -8 -4 -12 l-4 -2q-3 -6 -3 -10l-6 -5v-4h-2v-4h-2v-4h-2v-4h-2q0 -6 -4 -8q-1 -2 -2 -7t-2 -7q-1 0 -4 -3q-1 -2 -2 -6t-2 -6l-4 -2v-6h-2v-4h-2v-6h-3v-4h-4q0 -5 -4 -13h-2q0 -8 -6 -20v-4q-2 0 -4 -2l-6 -19h-2v-4h-2q-4 -8 -4 -14h-2q-5 -8 -9 -19h-2v-4h-2v-10h-2l-6 -12 q0 -2 -2 -4q0 -2 -2 -4q0 -4 -2 -6v-5h-2v-6q-4 0 -4 -2v-4h-2v-4h-2q-1 -2 -2 -7t-2 -7h-2v-4h-2v-4h-2v-7h-3v-6h-2q0 -4 -2 -6q-4 -12 -4 -18q2 -2 3 -5.5t3 -5.5v-4q6 -3 9 -6q2 -2 2 -6q2 -2 6 -2q0 -6 2 -8q3 -5 8 -8v-5q3 -3 10.5 -9t10.5 -9q8 0 21.5 1t24 1 t19.5 -2q2 -4 6 -8h2v-6h2v-4h4v-7h2v-4h3v-8h2q0 -10 2 -16h2q0 -8 2 -12q0 -5 2 -7q0 -4 2 -6v-8q2 0 4 -2v-4h2v-4h2q2 -4 2 -10q8 -8 14 -11q0 -4 2 -4h5q0 -1 1 -3t1 -3h4q4 -4 6 -8q2 -1 6.5 -2t7.5 -2q0 -2 2 -4h4q4 -6 13 -15h4q0 -1 1 -3t1 -3q6 0 8 -2v-2h6v-2 q6 -4 25 -4q9 9 18 12h4q0 1 1 3t1 3h4l4 5h4v2q7 0 9 2l4 4q1 1 2 1.5t2 1.5t2 3h4q2 4 8 10l31 16q1 1 3 4.5t3 4.5h4q4 4 4 6h4q11 11 13 14h4q8 8 12 14q2 0 4.5 1.5t3.5 1.5l8 8q2 2 7 2q0 4 2 4h4q0 1 1 3t1 3q6 0 8 2q4 4 4 6q4 0 6 4h6q2 5 8.5 14t8.5 13h4l18 18 q4 4 8 6v5z" />
<glyph unicode="s" d="M1120 1255v5h-2v4h-2v4q-1 0 -2 1t-2 1q0 2 -1 5.5t-1 4.5l-4 4v4q-4 0 -4 2q-2 2 -2 8q-1 0 -3 1t-3 1v5h-2l-5 8q-4 2 -7.5 6t-8.5 6q-1 4 -4 7t-4 7q-4 1 -7 3t-6.5 5.5t-5.5 4.5v2h-4l-6 10h-4q-2 0 -2 4q-8 0 -12 2q0 2 -2 4l-8 2q0 1 -1 2t-1 2q-2 0 -5.5 1t-5.5 1 v2h-4v2q-10 5 -14 5v2q-2 1 -6 2t-6 2v2h-5v2q-2 0 -14 4v2q-2 0 -14 4q-4 0 -8 4q-7 0 -11 4q-6 2 -16 2v2h-4v2q-10 2 -31 2v3h-6v4q-10 0 -14 2v2h-4v2q-17 0 -23 2v2q-4 0 -20 4q-5 0 -9 2q-4 0 -6 2q-6 0 -8 2q-19 0 -27 2q-6 0 -10 2h-14v2h-25v2h-8v2h-33q-8 4 -47 4 t-47 -4h-16v-2h-13v-2h-10v-2h-6v-2h-6v-2h-6v-2q-37 -5 -39 -6q-6 0 -10 -2h-4v-2q-2 -2 -9 -2v-2h-4v-2h-12v-2h-10v-4h-4v-3h-7l-12 -14h-4q-2 -2 -2 -4h-6v-2h-4v-2h-4l-4 -4h-5l-2 -4l-6 -4q-4 -4 -4 -7h-6q0 -2 -2 -4q-4 -4 -8 -6v-4l-4 -4v-4h-2v-4q-1 -2 -5 -5 l-4 -3q-2 -2 -2 -6l-18 -15q0 -6 -2 -8h-2q0 -6 -4 -14q0 -2 -2 -4q0 -5 -2 -7q0 -18 -2 -28q0 -9 -2 -13v-30h-2v-29h-2v-41h-3v-18h-2v-21h-2v-12h-4q1 -4 2 -12.5t2 -12.5q0 -10 -1 -29t-1 -28q0 -25 4 -35v-26q5 -20 17 -52q0 -4 2 -6q0 -6 2 -10v-6h2v-6h2v-9h2 q4 -12 4 -14h4v-6h2v-4h2v-6q0 -2 4 -2v-4h2v-9h3v-4h2l6 -12q0 -4 2 -6q0 -6 2 -8v-8h2v-5h2v-4l4 -2v-4q3 -2 8 -6t8 -6q6 -13 11 -16v-5h4q1 -3 12 -14h2v-4l8 -8v-2h4q2 -2 2 -4h5v-2h6v-2h4v-2h6v-3h4q0 -2 2 -4q1 0 3.5 -1t4.5 -1l4 -6q8 -4 13 -4q2 -4 8 -10h4 q0 -2 2 -4q6 0 8 -2l4 -6h4l15 -15h4q0 -4 4 -8h4q2 -2 5 -6t5 -6h4l4 -4h7v-2h4q1 -1 3 -4.5t3 -4.5h4q1 -1 2 -3t2 -3h4q0 -1 1 -3t1 -3h4q2 0 2 -4h4l6 -4h5v-2h4v-2h4q0 -1 1 -2t1 -2q2 0 6 -4h4v-2h4v-2h6l4 -5h4q0 -3 3 -6h4q6 -6 8 -10h4q2 -2 2 -4h4l12 -12h4 q1 -2 4.5 -6.5t4.5 -6.5q12 -8 18 -14v-4q1 -1 3 -2t3 -2v-4q4 -4 6 -4v-6q1 0 4 -3v-4q3 0 7 -4v-4h2q2 -2 2 -6l4 -2v-4q4 -4 8 -4v-6q2 0 6 -4v-5q2 0 4 -2q1 -2 2 -6t2 -6q2 -2 4 -2v-4l5 -2q2 -2 2 -8h2q2 -2 2 -8q4 0 6 -2v-5h2v-4h2v-6h2q0 -6 2 -8h2q0 -6 4 -14 q0 -5 4 -17q0 -4 2 -4q0 -8 2 -12q0 -5 0.5 -14t0.5 -17t-1 -14q0 -7 -4 -27q0 -4 -2 -6q0 -6 -4 -18q0 -4 -2 -4q-2 -4 -2 -13q-4 0 -4 -2v-4h-2q-2 -2 -2 -8h-4q0 -8 -2 -10h-2q0 -7 -2 -9q-3 0 -5 -2v-4q-2 0 -4 -2v-4q-1 -1 -3 -2t-3 -2l-2 -8l-4 -2v-4l-4 -2 q-2 -4 -2 -8h-4q0 -5 -2 -7h-4v-2l-13 -10v-4q-2 -2 -4 -2v-4l-8 -8q-2 0 -2 -4h-6q-6 -9 -16 -19h-5v-4q-7 -3 -8 -6v-2h-4l-4 -4q-4 0 -8 -2v-2q-1 0 -3 -1t-3 -1q0 -1 -1 -2.5t-1 -2.5h-4q0 -1 -1 -2t-1 -2h-5q-2 -2 -2 -4h-4l-6 -4h-4v-2h-4v-2h-4v-2h-4q0 -1 -1 -3 t-1 -3h-4v-2q-9 0 -13 -2q0 -2 -2 -4h-4v-2h-4l-4 -4h-4q0 -1 -1 -2.5t-1 -2.5h-4l-2 -4q-6 -2 -21 -2v-2q-4 -2 -12 -2v-2h-4v-4h-6v-2h-13v-2h-6v-2h-6v-2h-8v-2q-6 0 -10 -2q-4 0 -8 -2q-7 0 -11 -2q-8 0 -10 -2q-19 0 -29 -2q-8 0 -10 -2h-10v-2h-37q-9 -3 -18 -3 q-6 0 -19.5 1.5t-19.5 1.5h-35v2h-8v2h-13v2h-16v2h-16v2h-17v-2h-45v-2q-4 0 -8 -4h-4q-1 -1 -2 -3t-2 -2h-6v-2q-4 -2 -15 -2v-2q-14 -8 -10 -37q0 -4 2 -6h-2v-8h2q0 -12 2 -18h2q0 -13 2 -19q2 0 4 -2v-4q2 -2 6.5 -5t6.5 -5t2 -6h4q1 -1 2 -3t2 -3q4 0 6 -2v-3 q6 0 8 -2t2 -4l8 -2v-2q18 1 51.5 2t51.5 2q4 -2 12 -2q31 0 35 -2q27 0 39 2q12 0 18 2h19v2h6v2q12 2 35 2v3h8v2h12v4h8v2h7v2h12v2h6v2h4v2q4 0 6 2q6 0 8 2q4 0 4 2q11 0 15 2q6 0 14 4h4v2h6v2h7v2h6q0 4 2 4h4v5h4v2h8v2h4v2h6v2q9 0 15 6h4q0 1 1 2t1 2h4v2h4v2 q12 4 16 4q0 4 2 4q4 2 12.5 5.5t12.5 5.5q2 0 2 4h6q0 2 2 4h4q0 2 2 4q3 1 10 4t13.5 5.5t11.5 4.5q0 4 2 4h4q3 4 10.5 12.5t10.5 12.5q2 0 5 1t5 1q0 2 4 6h4q10 12 33 35l12 12v4q5 5 21 17v4l12 12v4q4 2 12 10v4l4 2v5q9 6 15 12v4q2 0 4 2q0 2 4 6v4q1 0 2 1t2 1v4 q2 1 8 7v4q1 1 3 2t3 2q0 6 2 10h3v4h2v4q2 2 4 2q0 1 2 8.5t4 12.5l4 8q0 2 2 4v4h2v4h2v4h2v4h2v6h2v5h2l6 12h2l5 20h2v58q0 2 1.5 9t1.5 13.5t-3 11.5q-2 8 -2 23h-2v4h-3q-2 4 -2 12h-2q-1 5 -3 14.5t-3 14.5h-2v4q-2 2 -4 2q0 7 -6 13q0 4 -2 6q0 4 -2 6l-6 18l-4 2v4 l-5 4v7h-2v4q-4 0 -6 2q0 6 -2 8t-4 2q0 4 -4 12q-2 2 -4 2l-6 21h-2q0 1 -1 5t-1 7q0 31 8 39l8 6q2 4 2 10h2q2 2 2 9q0 12 -4 16q-3 1 -10 8v2q-6 0 -8 2v2h-33v2h-10v2q-6 0 -8 2q-4 0 -7 3q-6 0 -10 2q-4 0 -6 2q-3 1 -8.5 1t-7.5 1q-2 5 -9 12.5t-8 9.5h-4q-4 2 -8 10 h-6q-3 6 -10 13h-5l-2 4l-6 4v2h-4l-18 18h-4q-3 2 -9 11.5t-12 11.5v4q-9 3 -12 8h-4l-4 4l-2 4h-4q-5 5 -5 7h-4q-2 2 -2 6h-6q0 2 -4 6h-4v2q-6 0 -12 6q-7 3 -23 0.5t-24 1.5q-7 0 -9 2q-6 0 -10 2q-1 0 -4 1t-4 1v2h-4q-6 6 -12 15h-5q-1 1 -3.5 4.5t-4.5 5.5h-4 q-2 2 -6 7t-6 7q-4 4 -8 4v4l-6 6v5q-3 0 -7 4v4q-1 0 -2 1t-2 1v4h-2v4h-2v6h-2v8h-2v7q-4 0 -4 2v4l-4 2v4h-2l-4 22h-2q0 11 -2 15h-2v4h-2v6h-2q0 10 -2 14q0 3 -3 6q0 5 -2 7q0 4 -2 6q0 4 -2 6q0 5 -1 14.5t-1 13.5h-2q-2 10 -2 33h2v25h2q0 51 2 78q0 6 2 10 q6 31 7 33q0 3 1 9t1 9l4 2q4 12 4 14q1 0 3 1.5t3 1.5v4q8 12 12 16h4q0 1 1 3t1 3h4l5 4h4v2h4v2h6l4 4h4q0 1 1 2.5t1 2.5l8 2v2h8v2h9v2h6v2h6v2h6v2h14q12 4 66 4h61v-4h25v-2q17 0 23 -2v-2h6v-2h8v-2q16 0 22 -2q5 0 7 -2q5 0 8 -3q10 0 16 -2q4 0 6 -2q6 0 8 -2h23 v-2h6v-2q2 -2 8 -2v-2q4 -1 13.5 -3t13.5 -3v-2q6 0 8 -2v-2h6v-2h4v-2q7 0 9 -2l8 -4q2 0 4 -2q4 0 6 -2q10 -5 12 -5v-2h6v-2q8 -4 13 -4q0 -1 1 -3t1 -3q4 0 12 -4v-2q4 0 8 -2q0 -2 2 -4q1 0 3.5 -1t4.5 -1q1 -2 9 -10h4q3 -3 8 -13q4 0 6 -2v-4q4 -2 12 -10l2 -8 q4 -4 7 -4v-5l4 -4v-4h2v-4h2v-4l4 -4v-4q4 -4 12 -8v-4h2l6 -11h4l13 -14q2 0 6 -1t6 -1v-2h14v2h6q3 3 3 4l12 10v4h2v9h2v8h2q0 2 2 4q0 6 2 8q0 4 2 6q0 2 4 10q0 5 2 7q4 8 4 12h2v4q4 4 7 4v4h4v6q0 25 -4 29q0 2 -5 2q0 4 -2 8h-2v4z" />
<glyph unicode="t" d="M707 1161h4q0 -2 2 -4h4q1 -1 3 -4t3 -4h4q4 -4 4 -6q4 -2 10 -2q0 -4 2 -4h5q0 -5 4 -9h4v-2h4q2 -2 2 -4q6 0 8 -2t2 -4h6q0 -2 2 -4h4q0 -2 2 -4h5l2 -4q2 -2 8 -2q4 -4 8 -12h6q0 -3 4 -7h4q2 -2 5.5 -6t5.5 -6h4q4 -4 4 -6h4l6 -6h4q0 -4 2 -6q6 0 8 -2 q11 -11 15 -17h4l10 -10h4q0 -4 2 -6h4q1 -1 2 -3t2 -3h4q1 -1 4 -4.5t5.5 -6t5.5 -4.5h4q2 -4 10 -12l4 -4v-4l23 -19v-4l16 -16v-4h4q3 -10 15.5 -19.5t25.5 -9.5q10 0 19 6q2 2 5 7.5t5 7.5q6 0 10 4h8q6 9 15 18q0 1 1 3.5t1 4.5l22 17v4h2v4h2q0 10 2 14h2 q0 9 -1.5 15.5t-5 12.5t-5.5 8.5t-8 8t-8 7.5l-15 18h-4l-16 16q-4 4 -6 4v5q-4 4 -6 4v6l-15 10v4q-1 1 -3 2t-3 2l-14 19h-4v2q-2 0 -6 4l-5 6q-6 6 -10 8q0 4 -2 4q-8 4 -12 4q-2 2 -2 6l-15 5v2q-2 2 -8 4q-1 4 -1.5 4.5t-1.5 0t-3 1.5q0 1 -1 2t-1 2h-4q-4 4 -4 6h-4 l-6 6h-4q0 4 -2 6h-5q-5 5 -8 11h-4q-4 4 -4 6h-4q-2 2 -2 4h-6q-2 4 -6 8h-5l-2 4l-6 4v2q-6 0 -8 2q-2 0 -2 4h-4q-1 0 -2 2q-1 1 -1 1.5t-1 1.5h-4q0 2 -4 6l-9 2l-2 4q-2 2 -8 2l-2 4h-4v2h-8q0 4 -2 6q-6 0 -8 2t-2 4q-5 0 -7 4q-2 1 -6.5 2t-7.5 2q0 3 -2 5h-4v2h-4 l-2 4q-2 2 -8 2l-2 4h-4v2h-5q-2 2 -2 6h-6q0 2 -2 4h-4l-4 4h-4q-2 2 -7 5t-7 5q-3 13 -9 29q-2 4 -10 12h-33v-2q-4 -2 -16 -2q-2 0 -5.5 1t-4.5 1l-6 7q-2 2 -9 2q0 4 -2 6h-4q-1 1 -2 3t-2 3h-4v2q-4 0 -6 2t-2 4h-6q-1 1 -3 4t-3 4h-5l-2 4q-2 2 -6 2v2q-10 5 -12 5 q-2 2 -2 6h-6q0 2 -2 4q-4 0 -8 2q-2 2 -2 4h-5q0 1 -1 2t-1 2h-4q-2 2 -2 4h-4l-2 4q-12 4 -14 4q0 4 -2 4l-6 5v2q-18 5 -25 8q-2 4 -10 12h-4l-2 4h-4q-5 5 -5 6q-2 1 -6 2t-6 2q0 2 -2 4q-5 0 -8 3v2q-6 0 -8 4q-4 0 -6 2q-5 0 -5 2q-4 2 -24 2q-15 0 -19 -2 q-1 0 -3.5 -1t-4.5 -1q0 -2 -2 -4h-4v-2q-6 -2 -22 -2v-3h-7v-2h-4v-2h-6v-4q-6 0 -8 -2v-2h-6v-2h-4v-2h-6v-2q-2 0 -4 -2q-5 0 -7 -2q-4 0 -8 -4q-2 -2 -10 -6q-2 -7 -8 -13h-2v-6h-2v-8q0 -26 10 -41q6 -6 10 -8l2 -4q2 -2 8 -2v-2q4 -1 11.5 -2t11.5 -2v-2q6 0 8 -2 q2 -3 2 -5q6 0 8 -4q9 0 15 -2l8 -4h4q0 -1 1 -2t1 -2h4v-2h4v-2h6v-2h4q4 -4 5 -4l12 -6q2 -2 2 -4q4 0 12 -4q2 -2 2 -5q2 0 6.5 -1t6.5 -1q0 -2 2 -4h4q0 -4 2 -4q2 -2 8 -2l2 -4q2 -2 6 -2v-4h4v-2h6v-2h6q1 -2 3 -4h4q1 -1 2 -3t2 -3l8 -2q2 -2 2 -5q2 0 6 -4 q4 -2 10 -2q0 -4 2 -4h4q2 -2 5 -8q4 0 12 -4q2 0 2 -4q6 0 14 -4q0 -2 2 -4h4q1 -1 5 -6.5t6 -6.5q2 -8 2 -22h-2q0 -6 -2 -8q0 -5 -2 -7q0 -4 -3 -10v-30v-7q-2 0 -4 -2t-2.5 -8t-1.5 -8h-2q-4 -24 -4 -39h-2q-2 -6 -2 -16h-4v-4h-2v-7h-2v-14h-2v-8h-2v-8h-2q0 -5 -4 -17 q0 -4 -2 -6q0 -18 -2 -26q0 -6 -3 -9q0 -3 -1 -8t-1 -8h-2v-4h-2v-6h-2q-4 -16 -4 -27h-4q-1 -8 -3 -24.5t-3 -24.5h-2v-6h-2q0 -4 -2 -6q0 -9 -2 -13q0 -4 -2 -8q0 -6 -2 -8q0 -6 -2 -8q0 -4 -2 -6q-2 -6 -2 -19h-3q-4 -12 -4 -20h-2v-8h-4v-7h-2q0 -10 -2 -14h-2v-8h-2 v-25h-2v-6h-2q0 -4 -2 -6q0 -6 -1 -17t-1 -16q-4 -12 -14 -57v-17h-3v-16h-2v-10h-4q0 -21 -2 -31h-2q0 -11 -4 -35h-2q0 -4 -2 -8q0 -4 -2 -6q0 -8 -2 -10q0 -25 -2 -35q0 -7 -4 -23v-8h-2v-6h-2v-18h-2v-11h-2v-8h-2q-1 -4 -2.5 -13t-2.5 -13h-2v-7h-2v-10h-2v-10h-2v-8 h-2q0 -19 -2 -29q0 -4 -2 -8q0 -4 -2 -6q0 -9 -2 -13q0 -8 -2 -12q0 -4 -2 -8v-20h-2v-11h-2v-8h-2v-12h-2v-8h-2v-9h-4q0 -14 -2 -22h-3v-6h-2q0 -17 -2 -25h-2q0 -4 -2 -6q0 -1 -2 -10.5t-4 -14.5q0 -14 -2 -20q0 -15 -2 -21q0 -16 -2 -24v-19h-2v-12h-2v-14h-2v-60h-2 v-22h-2v-8h-4q0 -15 -2 -21h-2v-10h-2v-23h-3v-6h-2q-9 -28 -4 -39q0 -2 2 -4q0 -4 2 -6v-6h2v-18q5 0 5 -2v-5q12 0 18 3l2 4q2 2 8 2l2 4h4v2l15 6v2h16v2h4q3 0 11.5 -1.5t14 -1t9.5 4.5q10 0 20 10.5t13 12.5q0 8 4 24q0 4 2 6v37h2v56h2v20h2v27h2v20h2v10h2v15h4v32h2 v11h2v12h2v8h3v6h2q0 11 4 35q0 7 4 19q0 6 2 10q0 2 2 4v24h2v13h2v6h2v8h2v8h2v8h4q0 23 2 33h2v8h2v11h2v8h2q0 4 2 6q0 10 5 35q5 31 6 33v10h2q2 14 2 41h2v12h2v10h2v11h4v10h2q0 33 2 49h2v8h2q0 13 6 25q0 14 2 20q0 13 2 19q0 3 3 6q0 8 2 10q0 12 2 18v11h2v12h2 v18h2v7h2q2 8 2 24h4v6h2q0 23 2 35h2v6h2q0 15 4 21q0 6 2 10q0 10 2 16q0 7 2 9q1 4 2 11t2 11h3v6h2q4 16 4 25h2v8h4q1 7 3 20.5t3 20.5h2v4h2q0 9 4 25q0 8 4 16q0 6 2 10q0 4 2 6v9h2q1 7 3.5 21.5t3.5 21.5h2v4h4v8h2v14h2v6h2q0 17 2 27h2q0 2 2 4q0 11 4 23 q0 6 2 10q0 4 2 8q0 6 2 8v6h2v13h2v22h2q2 4 2 12h2q1 1 3 2.5t3.5 3t2.5 3.5q6 0 24 -9v-4h4v-2h6z" />
<glyph unicode="u" d="M547 -41h-4v-2h-4v-2h-4v-2h-5v-2h-4v-2q-10 -2 -26 -2v2h-13v2h-10v2q-4 0 -8 2q-4 0 -8 4q-4 0 -6 2q-2 1 -7.5 2t-7.5 2v2h-4v2q-2 2 -8 2l-2 4h-4q-2 2 -2 7h-4q-2 0 -2 4h-6q-1 1 -3.5 4t-3.5 4h-4q0 1 -1 2t-1 2h-4q-2 3 -7 9t-7 9l-19 13v4l-6 4v4l-14 14v4 q-6 3 -12 9v4q-2 2 -4 2q0 2 -1.5 5.5t-1.5 4.5q-4 4 -6 4v6q-2 0 -4 2v4q-4 0 -4 2q-2 2 -2 7h-2q-2 2 -2 8h-4q0 6 -2 8h-2v8h-2v4h-2q0 6 -4 8q0 5 -2 7q0 2 -1 6t-1 6l-5 4q0 4 -2 6v6h-2v13h-2v16h-2v6h-2v6h-2v10h-4v13h-2q0 14 -2 22h-2v4h-2v9h-2q0 12 -4 40 q-8 27 -8 74v43q0 9 2 13q0 4 2 6q0 4 2 6q0 20 2 28q0 29 2 41v15h2v14h2v8h2v8h2q2 12 2 33h2v13h4v8h2v6h2v8h2q0 29 2 41h2q0 6 4 14q1 2 3 4q0 5 2 7q0 6 4 22v8h2v6h2v7h2v8h2q2 10 2 31h4v8h2v8h2q0 10 2 14h2q0 17 4 25q0 4 2 6q0 4 2 6q0 6 4 14q0 8 3 17v10h2v6h2 v8h2q4 36 8 50h2v8h2q0 18 2 28h2v7h2q0 6 4 18q0 4 2 6q0 4 2 8q1 7 2 21.5t2 21.5h2v9h2v4h3v6h2q3 18 6 33h2v6h2v6h2v8h2q0 15 2 21h2q0 8 2 12q0 4 4 8v25q0 6 1 20t1 21q-9 12 -16 26h-33v-2q-6 0 -8 -2v-2q-25 0 -35 -4q-4 0 -6 -2q-1 0 -4.5 -1t-5.5 -1l-4 -6h-5 l-4 -4q-1 -4 -6 -19v-12h-2v-4h-2v-6h-4q0 -19 -2 -27h-2v-6h-2v-6h-2q0 -11 -2 -17h-2q0 -10 -4 -30q0 -5 -2 -7q0 -2 -2 -4q0 -6 -2 -8q0 -4 -1.5 -13t-1.5 -13h-2v-13h-2v-6h-2v-14h-2v-13h-2v-8h-4q0 -18 -2 -28h-2v-7h-2q0 -14 -2 -20h-2q0 -4 -2 -6q0 -6 -2 -10 q0 -9 -2 -15q0 -4 -2 -6q0 -6 -2 -10q0 -4 -2 -6v-6h-2q-2 -12 -2 -33h-3v-8h-2v-11h-2v-8h-4v-4h-2q0 -14 -2 -22h-2v-7h-2v-6h-2q0 -6 -2 -10q0 -4 -2 -4q0 -6 -2 -10q0 -2 -2 -4q0 -5 -2 -7q0 -6 -1 -17t-1 -17q-4 -9 -19 -68q-4 -33 -12 -55v-23h-2v-14h-2v-14h-2v-21 h-2v-20h-2v-9h-2v-18h-2v-14h-2v-6h-2q-1 -7 -2.5 -21.5t-2.5 -21.5q-2 -5 -2.5 -27.5t0.5 -28.5h2v-35h5v-49h2v-6h2v-8h2v-8h2v-8h2q0 -19 2 -27q0 -8 2 -10q0 -7 2 -11q0 -6 2 -10q0 -31 2 -45q0 -6 2 -8v-10h2v-8h2v-5h2q4 -20 4 -30h2q1 -2 3.5 -6.5t3.5 -6.5h2v-4h2 v-6h2v-6h2v-4q2 0 4 -2v-4q1 0 2 -1t2 -1v-4q1 0 2 -1t2 -1v-5l4 -2q2 -4 2 -10l8 -4q0 -4 2 -8q3 -2 5 -2v-4h2v-4q1 -1 4 -3t4 -3v-5q2 -2 4 -2v-6q8 -4 10 -8v-4q1 0 3 -1t3 -1q0 -4 2 -6h2v-4q0 -2 4 -2v-2q0 -2 5 -2v-7q2 0 6 -4v-4q1 0 3 -1t3 -1q8 -8 10 -12h6 q0 -4 2 -4l13 -13q0 -1 1 -3t1 -3h4q6 -6 8 -10h6q0 -2 4 -6h4q2 -4 6 -8h4q3 -6 5 -8h4q2 0 2 -5h4l4 -4l8 -4l12 -6h6l3 -4h8v-2h4v-2q2 -2 8 -2v-4q8 0 12 -2v-2h11v-2h8v-2h4v-2q3 0 6 -3q7 0 23 -4q8 0 14 -2h14q39 0 43 2h15v2h8v2h26v3h6v2h5v2q4 2 12 2v2h6 q4 8 8 12h4q1 1 3 4t3 4h5q0 1 1 2t1 2h6q2 2 2 4h6q0 5 2 5h4q1 2 3 5t3 5h4q8 8 9 10h4q4 4 4 6h6q4 4 8 12h4q1 4 4 8t4 7h4q1 2 3.5 5t3.5 5h4q0 4 2 6t4 2v4q4 4 6 4v7q2 0 6 4v4q15 15 27 22v6q2 0 4 2v5q1 1 4 3t4 3v4q1 0 2 1t2 1l6 8h2v4h2q4 4 6 10h5q1 6 8 14 t8 11v4l4 2v6q4 0 4 2v4h2v4q2 1 5 3.5t5 3.5v4q0 2 5 2q0 6 2 8l4 4q0 2 4 6q0 1 1 4t1 4l4 2v5l4 2q2 4 2 8q2 2 6 2q0 6 2 10q2 0 4 2v4q2 2 4 2v8h2v7h3v4h2v6q2 0 4 2q0 1 1 3.5t1 4.5l4 2q4 8 4 12h2v4h4v5h2v6h2v4h2v4h2v4h2q0 2 1 5t1 5q2 2 4 2v4h3v9h2q0 1 1 3.5 t1 4.5h2q2 4 2 12h2q2 4 2 10h2v6h4q0 9 2 13h2v4h2v4h2q0 6 6 12q1 9 11 43v4h2q2 4 2 13h2v4h2q2 6 2 18h4v4h2v8h2v7h2v6h2v10h2q0 4 2 6q0 2 2 4q1 6 4 18.5t4 18.5h2v4h2v6h3v4h2v7h2q1 3 2 8t2 8h2v4h2v6h2v6h2v6h2q0 9 2 13q0 4 2 6q0 2 4 10q0 4 2 4q0 2 1 7.5 t1 7.5h2v4h2v4l4 2v6h2q1 2 2.5 6t2.5 6h2v6h2v7h2q0 4 4 12h2q0 2 2 4q0 2 1 4.5t1 3.5q2 2 4 2v8h2q0 1 1 4t1 5h2v6l4 2v6h2q2 4 2 10h4v6h3v4q2 0 4 2v4h2v7h2v4h2q0 1 2 8.5t4 11.5q1 2 2 6t2 6h2v5l4 2q2 4 2 10h2l4 8h2v6h2q0 6 2 8h3q0 9 4 15l4 8v4q1 0 2 1t2 1 q0 2 1 6t1 6h2v6h2q2 4 2 13h2v4h2q1 2 2 5t2 5h2q0 6 2 8q1 3 6 6.5t7 8.5v16q-2 2 -4 2q-2 3 -3 10t-2 9h-2q-2 4 -2 9t-2 7q-5 9 -17.5 10.5t-15.5 5.5h-24q-1 -2 -3 -5t-3 -5h-4q-2 0 -2 -4h-7l-4 -4q-1 0 -3.5 -1t-4.5 -1q0 -2 -2 -4h-4v-2h-4l-4 -4h-4l-2 -5h-4l-2 -4 h-5q-3 -17 -8 -26q0 -2 -4 -2q-1 -2 -2 -7t-2 -8q-2 0 -4 -2v-4q-4 0 -4 -2v-4h-2q-2 -2 -2 -8h-2v-8h-2q-1 -2 -2 -5.5t-2 -5.5h-2q0 -8 -2 -12h-3v-4h-2v-6h-2q0 -1 -1 -3t-1 -3q-2 -2 -4 -2l-6 -31l-4 -2v-4h-2q-4 -26 -8 -35h-2v-8h-2v-4h-2v-6h-2q0 -6 -5 -9 q0 -4 -2 -6q0 -4 -2 -4q0 -4 -2 -8q0 -2 -2 -4q-4 -12 -4 -21h-2v-4h-2v-8h-2q-2 -2 -2 -8h-2v-6h-4v-4h-2q0 -6 -2 -8h-2q-4 -18 -8 -29q0 -1 -1.5 -4t-1.5 -4q-2 -2 -4 -2v-5h-2q-2 -6 -2 -14h-2v-4h-2q-2 -4 -2 -12h-2v-4h-4v-9h-2v-4h-2q0 -10 -2 -14h-2v-6h-2 q0 -4 -2 -6q0 -9 -2 -13q0 -6 -2 -10q0 -2 -5 -12q0 -2 -1 -5t-1 -5h-2v-6h-2v-7h-2v-6h-2v-6h-2v-8h-4v-8h-2v-8h-2v-9h-2v-4h-2q0 -10 -4 -16q0 -2 -4 -10q0 -2 -2 -4q0 -5 -4 -9q-2 -4 -2 -14h-3v-4h-2v-6l-4 -2v-6h-2v-5h-4q0 -6 -2 -8h-2q0 -8 -4 -20h-2q0 -2 -2 -4v-4 q-2 -2 -4 -2q-1 -2 -2 -7.5t-2 -7.5q-4 0 -4 -2v-6h-2v-4l-5 -2q-2 -4 -2 -10q-2 -2 -6 -2q0 -7 -4 -23h-2v-4h-2l-6 -12q0 -9 -4 -21q0 -2 -2 -4v-6q-6 -6 -15 -12v-4q-2 0 -4 -2v-5q-4 -4 -8 -6v-4q-1 -1 -4 -3t-4 -3q0 -2 -1 -5t-1 -5q-4 0 -4 -2v-4q-2 0 -6 -4 q-2 -2 -2 -9q-2 0 -6 -4q-3 -2 -5 -2v-4l-10 -10v-4q-2 0 -4 -2q0 -1 -1 -3t-1 -3h-2v-4l-6 -5v-4q-2 -2 -6 -2v-4q0 -2 -4 -2q0 -6 -2 -8h-2q-1 -3 -3.5 -9t-3.5 -9q-3 -3 -4 -3v-4q-2 -2 -4 -2q-2 -3 -5.5 -7.5t-4.5 -6.5h-6l-4 -4v-4q-1 -1 -4.5 -3t-4.5 -3q0 -2 -1 -5 t-1 -4l-10 -10v-4q-3 -2 -8 -6t-8 -6q0 -2 -2 -4t-8 -2l-2 -4h-5q-9 -12 -18 -21h-4z" />
<glyph unicode="v" d="M549 16v-4q-1 -1 -3 -2t-3 -2v-4q-2 0 -4 -2v-4h-2q0 -6 -2 -10h-3q-1 -1 -2 -3t-2 -3l-4 -2h-14v2q-3 2 -3.5 3t-0.5 3t-2 4h-2v6h-2v6h-2v8h-2q0 4 -2 6q0 5 -2 7q0 4 -5 14q0 10 -2 16q0 6 -2 8v7h-2v6h-2q-2 10 -2 28h-2v7h-2v8h-2q-1 3 -2 8t-2 8h-2v6h-2v6h-2 q0 9 -2 15h-2q0 2 -2 4q0 6 -4 14q0 13 -2 17q0 6 -3 12q0 6 -2 8v8h-2q-2 12 -2 33h-2v8h-2q-2 4 -2 15h-4v4h-2v6h-2v6h-2v6h-2v10h-2q0 9 -2 13q0 6 -4 14q0 4 -4 16q0 2 -2 4v7l-5 2v4h-2v6h-2v14h-2q-1 2 -2 7.5t-2 7.5h-2v8h-2q0 6 -4 14h-2q0 35 -2 51q0 9 -2 13 q0 6 -2 8q0 4 -2 8q0 1 1 4.5t1 7t-2 6.5q0 7 -2 11q0 4 -2 6q-2 10 -2 30h-2q-2 2 -2 9h-3v8h-2v8h2v33q-4 14 -6 38t-6 38v18h-2v6h-2q0 21 -4 33q0 4 -2 6q0 4 -2 6q0 13 -2 17q0 10 -2 16q0 4 -2 6v29h-2v14h-2v8h-2v27h-2v2q2 2 2 6h-2q-2 8 -2 25h-5v6h-2v41h-2v12h-2 v17h-2v26h-2q0 10 -2 14v50q0 6 -2 8q0 7 -1 21.5t-1 21.5l12 14q2 0 5.5 1t5.5 1l6 8q-2 13 -15 35v4h-2v6h-2v7h-2v6h-2v20h-2v6h-2q0 1 -1 4t-1 5l-6 4v4h-2q-4 4 -4 6l-10 6v8h-3v4h-2q0 9 -2 13h-2q0 4 -2 6v4q-2 2 -4 2v6q-2 0 -6 4v4q-4 0 -4 4q-12 0 -21 -6 q0 -4 -2 -4h-4v-2h-4v-4q-2 0 -4 -2v-4h-2q-4 -4 -4 -6h-4l-4 -4h-4q-3 -3 -8 -13h-5q0 -2 -3.5 -12.5t-4 -16t1.5 -16.5q10 -31 8 -35v-32v-4q0 -2 3 -5q2 -8 1 -28t1 -27v-29h2v-14h2v-8h2q2 -8 2 -25h2v-22h4v-8h2q-2 -16 -2 -49h2v-7h2v-8h2v-8h2v-23h2q0 -8 2 -12 q0 -4 2 -6q0 -6 2 -10q0 -11 4 -35q0 -4 2 -6v-35h2v-8h3v-10h2v-21h2v-8h2v-16h4v-17h2v-26h2v-17h2v-26h2v-9h2v-24h2v-27q2 -5 5 -19t5 -20q-2 -2 0 -4q0 -7 1 -22.5t1 -22.5h2v-10h2v-12h2v-7h3v-6h2v-8h4v-6h2v-8h2v-25h2v-10h2v-14h2q0 -7 2 -11q0 -4 2 -6q0 -4 2 -8 q0 -21 2 -31q0 -6 2 -8q0 -10 2 -14v-8h2v-9h2v-10h2v-10h2v-6h2v-6h5v-7h2v-10h2q0 -27 2 -41h2v-8h2q0 -4 2 -6q0 -8 2 -14q0 -5 2 -7q0 -6 2 -8q0 -10 2 -14q0 -10 2 -14v-11h2v-6h2v-14h2v-8h2q2 -2 2 -9h4q0 -12 2 -20h2v-6h3q0 -9 4 -21h2q6 -40 6 -41q0 -4 2 -4 q0 -6 2 -8q0 -2 2 -4v-6h2q2 -8 2 -25h2v-6h2v-8h2v-12h4v-6h2v-19h2v-16h2v-8h3v-37h2q0 -5 2 -9q0 -4 2 -6q0 -2 2 -4q0 -2 1 -5.5t1 -4.5q2 -2 4 -2v-6h2v-4q8 -8 8 -15q4 -1 9 -4t7 -4q4 -2 15 -2q4 -8 4 -10h6q0 -2 2 -4h4q2 -2 4 -6q5 -2 19.5 -4t23.5 2q4 0 8 4 q4 2 13 2q20 0 24 2v2q7 3 9 8q2 2 2 10h4v6h2v7h2v8h2v10q2 0 4 2q0 2 4 10q0 2 2 4q0 2 2 4q0 5 2 5q1 2 2 7t2 7h2v6h2v6h2q2 4 2 10h2q1 2 2.5 5.5t2.5 5.5h2v4q2 0 4 2v4q2 2 4 2l2 8h2q0 4 4 8q1 4 2 11.5t2 11.5h2q2 4 2 10h2q2 4 2 8h2q1 4 3.5 11.5t3.5 11.5 q2 2 4 2q0 10 4 26q1 0 4 3v6h2v6h2q0 4 4 16q2 2 2 8h2v4l4 3v4q1 0 3 1t3 1v6h2q0 6 2 10h2v6h3q0 6 4 8v4q1 0 2 1.5t2 1.5v6h2v6h2v6h2v6h2q2 4 2 14l4 3q2 4 2 14q4 0 6 2v4h2v6q2 2 4 2v8h2v4h2q0 3 5 13q0 2 1 7t1 7q1 0 2 1t2 1v6h2v4l4 2q2 6 2 15q4 0 4 2l4 16h2 v4h2q0 9 2 13q2 0 4 2q0 2 4 10q0 8 2 10q0 4 3 10q0 5 2 9v6l4 2v6h2q4 8 4 14h2l4 8q2 0 4 2q0 7 2 9h2q0 17 6 32q0 5 4 9v6q2 2 4 2v4h3v8h2v4h2v6h2v6h2v11h2v10h4v4h2q0 6 2 10h2v4q0 2 4 2v7h2q0 2 4 10q0 4 2 8q0 4 2 6q0 2 2 4q2 4 2 13h2q1 2 2 5t2 5t1 4h2v4h4v4 h2q0 6 2 8h2q0 11 6 23q0 2 2 4q0 2 2 4q0 4 2 4q0 4 2 4q0 4 2 4q2 4 2 10h2q2 4 2 13h2v4h3v6h4v10h2q0 4 2 8h2q0 9 2 13q2 2 4 2v6q2 2 4 2q0 4 4 12q0 4 4 8v7h2q2 4 2 8h2v10h2v4q5 0 7 2v6h2q0 7 2 9h2q0 12 2 18h2l4 8q0 5 4 17q0 4 2 6v10q4 0 4 2q2 4 2 12l4 2v4 h2v7q1 1 3 2t3 2q0 8 2 14h3q0 6 2 8h2q0 6 2 8q0 7 2 11v8q1 0 2 1t2 1q0 2 1 5t1 5l4 2q2 4 2 12q4 0 4 2l6 25h2q0 6 4 14h2v4h2q1 3 3 5q0 4 2 6q0 4 4 8q0 4 2 6q0 2 4 10q4 16 4 27h2v10h2v10h2v9h4v6h2v4h2v8h2v8h2q0 15 4 21q0 1 5 16q0 4 4 8q0 2 1 6.5t1 6.5h2v12 q2 6 2 14q0 12 -10 37v8h-3q0 2 -1 5t-1 5q-1 0 -6 5v4q-4 2 -10 8q-2 0 -4 2q-2 0 -4 2q-6 0 -8 2q-17 0 -27 -10h-2v-4q-3 -5 -10 -9v-6q-1 -1 -4 -3t-4 -3v-4l-15 -10q0 -4 -2 -6h-4q0 -4 -2 -4h-4v-2l-10 -11q-2 -14 -2 -47h-2q-2 -4 -2 -14q0 -13 4 -45h-2q-2 -2 -2 -8 h-2v-4q-8 -4 -9 -5v-4q-2 -2 -4 -2v-4h-2q0 -1 -2 -6.5t-4 -7.5q0 -4 -2 -6q0 -6 -2 -8q0 -3 -2 -5q-4 -8 -4 -12h-2v-6h-2v-6h-2q-2 -2 -2 -8h-4q0 -9 -3 -15h-2q0 -6 -2 -10h-2q0 -8 -2 -12q-1 0 -2 -1t-2 -1v-8h-2v-7h-2q0 -2 -4 -10v-8h-2q-2 -2 -2 -8h-2v-6h-2 q-2 -4 -2 -11h-4v-8h-2v-6h-2v-8h-3v-6h-2q0 -7 -4 -11q0 -6 -4 -14q0 -2 -2 -4q0 -11 -4 -31q-4 -8 -4 -12h-2v-4h-2v-4h-2v-10h-4q0 -7 -2 -9h-2v-6q-2 -2 -4 -2q0 -8 -2 -10l-5 -4q0 -4 -2 -6v-6q-1 0 -2 -1t-2 -1v-7h-2q-4 -8 -4 -12h-2q-2 -6 -2 -16h-2q-2 -2 -2 -8h-4 v-7q0 -2 -4 -2v-6h-2v-8h-2v-4h-2q0 -4 -4 -12q-6 -12 -7 -13q0 -4 -2 -6v-4h-2q-2 -2 -2 -10h-2v-4h-2v-6h-2v-7h-4v-6h-2q0 -8 -2 -12h-2v-4h-2q0 -8 -4 -12q0 -3 -4 -11q0 -4 -2 -6q0 -3 -5 -8q-2 -4 -2 -14h-2q-2 -4 -2 -10h-2q-1 -3 -3 -10.5t-3 -10.5h-2v-4h-2v-8h-2 v-6h-2v-4h-2q0 -1 -2 -6t-4 -7q0 -4 -4 -16q0 -4 -2 -6q0 -2 -2 -4v-7h-2v-8h-3v-4h-2q-4 -8 -4 -14h-4v-4h-2v-6h-2q0 -7 -2 -9h-2q0 -10 -4 -16q0 -4 -2 -6q0 -2 -2 -4q0 -4 -2 -6v-7q-2 -2 -4 -2v-8h-2v-4q-4 0 -4 -2v-6h-2q-3 -3 -3 -8h-4v-8h-2v-5q0 -2 -4 -2 q0 -10 -2 -14h-2q0 -4 -4 -8v-8q-2 -2 -4 -2q0 -5 -4 -13v-4h-2v-10h-2v-6h-2v-6h-2v-8q-5 0 -7 -2v-7h-2v-4h-2v-4h-2v-4h-2q0 -6 -6 -12q0 -6 -2 -8q0 -2 -2 -4q0 -1 -2 -9t-4 -12v-4h-2q-2 -6 -2 -14h-2v-5h-2v-6h-2q-1 -3 -2 -8t-2 -8h-2q0 -2 -3 -8h-2q0 -9 -2 -13h-2 q0 -2 -2 -4q0 -4 -4 -16v-4q-2 0 -4 -2l-2 -8h-2v-4h-2v-5z" />
<glyph unicode="w" d="M356 362v-4h-2v-4h-4v-4h-2v-4q-2 -2 -4 -2v-6h-2v-6h-2v-6h-2v-11h-2v-6q-1 -1 -4 -3t-4 -3l-6 -20q-5 0 -5 -2q-2 -2 -2 -9h-4q0 -2 -4 -6h-4q0 9 1 28t1 28q0 30 -6 51v26h-2v47h-2v31h-2v15h-2v22h-2v18h-2v11h-2v28h-2v9q2 2 2 6h-2q-2 12 -2 37h-2v41h-5v8h-2 q0 14 -2 20h-2v8h-2v9h-2q0 8 -2 12q0 4 1 14t1 15l-6 61h-2v10h-2v6h-2v13h-2v12h-2v8h-2v12h-2v7h-2q-1 4 -2 13t-2 13h-2v4q-3 2 -5 2v7h-2v4h-2v8h-2v10h-2v8h-2v8h-2v9h-2v30q-4 13 -10 39t-10 39q0 27 -2 39q-13 63 -13 64v24h-2v10h-2v15h-2q-2 6 -2 16h-2v6h-2 q-2 6 -2 17h-2l-6 30q0 2 -4 2v4q-5 5 -6 5q0 2 -1.5 5t-1.5 5q-2 0 -4 2v4q-1 0 -2 1t-2 1q-2 2 -2 4h-16v2h-6v2h-4v2h-5q-15 18 -32 35q-4 4 -19 4q-5 0 -14.5 -1t-13.5 -1l-19 -14q0 -3 -4 -15h-2v-4q-2 0 -4 -2v-4h-2v-4q-1 0 -2 -1t-2 -1l-2 -8h-2q-2 -4 -2 -14 q-9 -13 -9 -21q0 -3 -1 -12t-1 -13q0 -21 7 -28q4 -6 22.5 -10.5t22.5 -10.5q0 -4 4 -12q0 -6 2 -10q0 -6 2 -10q0 -11 2 -15q0 -8 2 -12v-12q8 -22 16 -74q4 -25 17 -76q0 -5 1 -16.5t1 -16.5l12 -53v-18h4v-11h2v-8h2v-6h2v-8h2v-8h2q0 -6 2 -8q0 -11 2 -17q0 -4 2 -6v-10 q2 -5 4.5 -19.5t4.5 -19.5v-8h2v-19h2v-18h2v-17h2v-26h2v-41h4q0 -44 2 -64h-2v-20q-12 -23 -6 -43h2v-8h4v-9h2q0 -6 2 -10h2v-6h2v-10h2q0 -13 4 -37l-1 -18q0 -17 1 -17q0 -6 2 -8q0 -4 2 -6q0 -4 3 -10q4 -20 4 -35q7 -22 10 -41q2 -7 5 -21.5t5 -21.5v-33h2v-25h2v-12 h2v-16q1 -6 4 -19.5t4 -19.5h2v-4h3v-4h2v-4h2q1 -2 3 -7.5t3 -7.5h2v-6h2q0 -1 1 -4t1 -4q0 -7 -3.5 -14.5t-9 -15t-6.5 -9.5v-6h-2v-8h-2v-6h-2l-4 -23h-2v-10h-2v-10h-2q-4 -8 -4 -13h-2v-4h-2v-4h-4v-6h-2v-6h-2v-4h-2v-6q-2 -3 -4 -3l-5 -22h-2v-4q-2 0 -4 -2v-4h-2 q-2 -4 -2 -11q-1 -1 -3.5 -4.5t-5.5 -7t-5 -4.5l12 -65h2l13 -17q4 0 6 -2q3 0 8 1t8 1v2h18v2q8 1 15 6l4 4q0 5 2 7h4v2q4 0 6 2q0 1 1 2t1 2h4q10 15 11 18l6 4v4q1 0 6 5v4q1 1 4 3t4 3l14 39v10h2l5 10h2q0 11 2 15h2v4q2 2 4 2q0 2 1 5.5t1 4.5l4 4q0 2 2 4 q1 4 3 13.5t3 13.5l25 18q0 2 2 4q0 4 4 8q0 5 2 7q0 10 2 14v22h2q4 8 4 15h2v4h2v4h2v4l6 4v4q0 2 4 2q0 8 7 15q0 2 2 4q0 2 2 4q0 2 2 4q0 2 2 4q0 4 2 4v4h2v8q4 0 4 2q4 8 4 13q1 0 3 1t3 1v6h2v4h2q0 8 6 14q4 11 9 19q0 4 2 4v6h2v6h2v4q4 0 4 2l6 13q2 2 4 2v4l4 4 v4h2v6q2 0 4 2v4h2l2 8h3v7h2q2 4 2 10l6 6q2 2 2 6h2l6 12q2 2 4 2q0 3 4 15q2 0 4 2v4h2v4h2v6h2q5 10 5 12h2q2 4 2 11l8 4v4l4 4v4h2v4h2v4h2v4h2v4h2v7h2l4 8q0 1 1 4t1 4h2q4 8 4 12q3 3 9 6q0 5 2 9q2 0 4 2v6q2 2 4 2v4h2v4h2v4h2v8q2 0 4 2v4q4 0 4 3v4l4 2 q3 9 9 18l4 4q0 8 2 12h2q0 7 2 9h2q0 4 2 6q0 4 2 4q0 6 2 8l6 12v4h2q2 2 2 9l4 2v4q2 2 6 2q1 6 11 20q1 0 2 1t2 1q2 -5 4 -19t4 -20v-10h2v-6h2v-8h2v-6h2v-8h2v-27h4v-10h2v-6h2v-15h2v-12h3v-10h2v-23h2q0 -6 4 -22q0 -5 2 -9q0 -4 2 -6q0 -4 2 -6v-14h2v-19h2v-22h2 v-25h2v-16h2v-21h2v-20h4v-16q3 -10 7.5 -34t7.5 -34q0 -6 1 -20t1 -21q7 -25 10 -45q3 -9 8 -29t8 -30v-11h2v-8h2v-8h2v-12h2v-11q5 -15 14.5 -44t14.5 -44q2 -4 2 -18q0 -31 4 -35q1 -4 3.5 -6.5t4.5 -3.5t6.5 -3t6.5 -3v-2h8v-2h4q0 -3 4 -7h6v-4h4v-2h9v-2q8 2 24 2v2 q2 2 10 2q21 0 23 2q5 1 14 15v4q1 0 3 1t3 1l4 6q0 2 5 2q0 15 2 21h2v6q2 2 4 2q1 2 2 6t2 6l4 4v4q2 0 6 4v5l4 2q2 2 2 6h2v4q2 2 6 2q0 6 2 8h3v6h2v4l4 4v4q1 0 2 1.5t2 1.5q0 2 4 6v4l4 4v6q4 0 4 2q2 2 2 8q1 0 3 1t3 1v8h2v5h2v4q4 4 6 4v6l5 4v4h2v4h2v4q1 0 2 1 t2 1q2 2 2 9h2v4h2q4 12 4 14h4v6h2v4h2v6q0 2 4 2q0 9 2 13h2l4 8q0 5 3 8q0 2 2 4q0 8 2 10q0 2 1 6.5t1 6.5h2q2 2 2 8h2q4 12 4 22h4q0 9 2 13h2v4h2v8h2v4h2q0 11 4 31q0 2 4 14q0 1 1 2t2 2.5t2 3.5q4 12 4 19h2v4h2v8h2v6h4v6h2v13h2v8h2v8h2v8h2q0 17 2 25q0 4 2 6 q0 6 2 8q0 6 4 14q0 5 2 7q2 6 2 16h2q3 18 3 35h2q2 6 2 18h4v15h2v6h2v16h2q0 8 2 12h2q0 2 2 4q0 11 4 27q0 6 2 8l4 8q0 5 2 7q2 8 2 24h2q2 6 2 17h3v6h2v18h4v4h2v8h2v5h2v12h2v6h2q0 11 4 39q0 2 1 7t1 7q2 2 4 2v4h2v4h2q4 20 4 27h2q1 2 3.5 6t3.5 6h2v7h2 q0 16 2 24h2v4h2q0 11 2 17q0 2 2 4q0 4 2 6q0 6 4 10q0 4 2 4v8h2v4h2q4 8 4 13h2q4 11 8 37h3q4 16 8 24q0 4 4 8q0 9 2 11q0 4 2 4q0 8 2 12t2 14h2v6h2v9h2v6h2q1 3 2 9t2 9h2v8h2q0 9 2 13q3 0 5 2v4h2v4h2q0 2 2 11.5t4 15.5q0 2 2 4t2 10h2q2 14 2 41h2v6h2v10h4v4h2 v6h2v5h2v8h2v6h2q0 12 2 18q0 6 5 21q0 6 2 10q0 4 2 6v4q0 23 -7 37q-7 10 -24 10q-25 0 -41 -12l-2 -3l-5 -5t-5.5 -3.5t-5.5 1.5v2h-11v-2l-6 -6v-4h-2v-4q-2 -2 -4 -2v-7q-1 0 -2 -1t-2 -1q-1 -2 -2 -6t-2 -6l-4 -4q-2 -2 -2 -8q-2 0 -6 -4q-1 -1 -2.5 -4.5t-2.5 -4.5 q-2 -2 -4 -2q0 -4 -4 -12h-2q0 -4 -2 -6l-6 -12q-1 -3 -2 -9.5t-2 -9.5h-2v-6h-2q-2 -4 -2 -12h-2v-6h-2v-4h-4v-9h-2v-8h-3q0 -10 -2 -14h-2q0 -10 -4 -14q0 -7 -4 -23q0 -10 -2 -14q0 -11 -2 -15q0 -6 -4 -14v-6h-2v-8h-2v-9h-2q-2 -2 -2 -8h-2v-6h-4q0 -6 -2 -8h-2v-8h-3 v-4h-2q0 -5 -4 -9q0 -4 -2 -6q0 -2 -2 -4q0 -4 -2 -6q0 -10 -2 -16q0 -11 -2 -15v-10h-2v-8q-4 0 -4 -2v-4l-8 -4v-4q-2 -2 -4 -2v-5h-2v-14h-2v-6h-2v-12h-3v-6h-2v-9h-2v-6h-2v-8q-1 0 -2 -1t-2 -1v-6h-2v-4h-2q-4 -12 -4 -21q-4 0 -6 -2v-4h-2q0 -6 -2 -8h-2q0 -8 -2 -12 h-2q0 -15 -4 -39q0 -6 -2 -8q0 -3 -3 -9q0 -12 -2 -18q0 -3 -1 -9.5t-1 -9.5h-2v-6h-2v-8h-2v-10h-2v-12h-2v-13h-2q-4 -17 -8 -55h-2v-8h-2v-8h-2q0 -5 -2 -7q0 -4 -2 -6q0 -4 -2 -6q0 -4 -4 -12v-14q-3 -9 -9 -39v-17h-2l-6 -12q-2 -2 -4 -2q0 -6 -2 -8h-2q0 -21 -6 -45 q0 -3 -4 -15q0 -2 -2 -4q0 -4 -2 -6q-4 -8 -4 -14h-3v-8h-2v-7h-2q-2 -8 -5 -26.5t-5 -26.5h-2v-8h-2q0 -4 -2 -6q0 -4 -2 -6q0 -4 -2 -6q0 -5 -2 -7q0 -6 -4 -14v-4h-2v-8h-2q-2 -2 -2 -8h-2v-4h-2v-11h-3v-4h-4v-10h-2v-4h-2v-8h-2q0 -11 -2 -15h-2q0 -2 -2 -4q0 -4 -2 -6 q0 -2 -2 -4q0 -4 -4 -12q0 -4 -2 -6v-7q-4 0 -4 -2v-6h-2q-2 -2 -2 -6q-1 0 -3.5 -1t-3.5 -1l-6 -20h-2v-5h-2v-4q-1 0 -2 -1t-2 -1v-4h-2v-4q-2 -2 -4 -2v-4h-2v-2h-2q-4 6 -7.5 22t-4.5 19v8h-2v10h-2v11q-10 39 -15 67q-3 11 -8 35.5t-8 36.5l-6 31h-2q0 35 -2 51h-2v12 h-3q0 4 -2 6q0 2 -2 4q0 5 -4 13v10q-6 15 -10 35v14h-2q-2 10 -2 35h-4v12h-2v12h-2v21h-2v22q-1 4 -5.5 26t-7.5 32l-6 75h-2v17h-2v10h-2v10q-8 30 -10 52q0 1 -4 21t-8 28v8h-2q0 2 -1 4.5t-1 3.5q0 7 4 19t4 14l-11 12l-6 6v4q-6 3 -12 9v4l-4 4q-20 15 -25 20v4h-2 q-1 1 -2.5 3.5t-3.5 4.5q-1 1 -3 -1.5t-4 -5.5t-3 -3h-4l-2 -4l-27 -12q-1 -3 -3 -9.5t-3 -9.5q-2 -2 -4 -2v-6h-2v-14h-2v-8h-2v-6h-2v-7h-2v-8q-4 0 -4 -2v-4q-5 0 -7 -2v-4q-1 -1 -3 -2t-3 -2v-4q-4 -4 -6 -4v-4q-2 -2 -4 -2v-7l-4 -4v-4h-2v-4h-2v-4h-2v-4l-4 -2l-6 -14 h-2v-5h-3v-4h-2q0 -6 -6 -12q-1 -3 -2 -9.5t-2 -10.5q-2 0 -4 -2v-5l-4 -4q-2 -2 -2 -8l-4 -2l-6 -14q-2 0 -6 -4l-7 -19q-2 -2 -4 -2v-4q-2 -2 -4 -2v-6q-4 0 -4 -2v-6h-2q-2 -2 -2 -9h-2q-2 -2 -2 -8q-2 -2 -6 -2q0 -8 -2 -12h-2v-4h-2v-4q-2 0 -4 -2v-4h-2v-7 q-1 0 -2.5 -1t-2.5 -1v-4l-4 -4v-6h-2v-4q-4 0 -4 -2v-6h-2v-4h-2v-6q-2 -2 -6 -2q0 -7 -2 -9l-4 -4q0 -4 -4 -12l-8 -6v-4q-1 0 -2.5 -1t-2.5 -1v-4h-2q-4 -8 -4 -15h-2q-2 -6 -2 -18q-2 -2 -6 -2q0 -6 -2 -8q0 -1 -4 -5q0 -4 -4 -6l-6 -18l-9 -6v-6z" />
<glyph unicode="x" d="M461 174v4q1 1 4 3t4 3v4q1 1 3 2.5t3 2.5q2 2 2 6l4 2v4q2 2 6 2v6q1 1 5 3.5t6 4.5q0 6 2 8q1 0 2 1t2 1q1 2 2 6.5t2 6.5q2 2 4 2q2 4 2 10q4 0 4 2q2 2 2 6h2q1 1 2 4t2 4q0 2 4 2v5h2v4q1 1 3.5 3t3.5 3v4q2 0 6 4v4q1 0 2 1t2 1q2 2 2 8h2v4h2v4h2v7h2v6q4 0 6 2 q0 6 2 8l6 4v4q2 2 5 2l4 17q2 0 4 2t2 8l4 2q2 2 2 8q2 2 6 2q0 6 2 10h2q0 5 2 9h2q0 6 2 10q1 0 2 1t2 1v4q4 4 7 4v4l6 6v4q4 0 4 2q2 2 2 9q1 0 3 1t3 1v4h2v4h2v6h2q0 6 2 10h2q0 2 2 4v7q1 0 2 1t2 1l2 8q4 4 7 4v8q2 0 6 4v4q1 0 3 1t3 1v4q1 1 3 2t3 2v5q0 2 4 2v4 h2q2 2 1.5 3.5t0 2t4.5 2.5q1 -5 2 -15t2 -14h2v-18h2v-6h3v-6h2v-7h2v-8h4v-14h2v-8h2v-21h2v-4h2v-6h2q0 -4 2 -6q0 -6 2 -10q0 -5 2 -5q0 -4 2 -8q0 -4 2 -6q0 -6 2 -10q0 -8 2 -10v-7h2v-8h2v-6h2v-6h2v-10h3v-6h4v-11h2v-8h2v-8h2v-6h2v-6h2q0 -11 4 -23q0 -4 2 -6 q0 -8 2 -14q0 -4 2 -6q0 -5 2 -7v-6h2q4 -24 4 -37h2v-6h2v-6h4v-8h3v-4h2q0 -11 4 -31h2q2 -10 10 -39q0 -4 2 -6v-10h2v-6h2v-6h2v-9h2q2 -6 2 -22h4v-6h2v-9h2v-6h2q0 -6 3 -12h2q0 -4 4 -8q0 -1 2 -9t4 -12v-12q4 -16 4 -22v-21h2v-4h2q2 -4 2 -12h2v-4h2q1 -2 2 -5.5 t2 -5.5h2q0 -8 2 -12h2v-6q3 0 7 -4v-4q2 0 4 -2v-4q1 -1 4 -3.5t4 -3.5v-4q6 -4 16 -14v-4q2 0 6 -4v-4q1 0 2 -1t2 -1q0 -1 5 -6v-5q4 -4 6 -4v-6q4 -2 8 -6v-2h6q0 -2 2 -4q8 -8 12 -14q11 0 15 2q2 5 3.5 6t4.5 2l6 2q0 2 2 4h4v2q2 2 6 2l4 6h2v6h3q1 2 1 7.5t1 7.5 l4 2v4q4 4 12 8q0 10 2 16q12 35 4 50q0 2 -1 4.5t-1 3.5q-4 4 -6 4q-2 4 -2 12q-4 0 -4 2v6h-4v6h-2q0 7 -2 9h-2v6q-1 1 -5 3.5t-6 4.5v4q-1 0 -2 1t-2 1l-12 41l-8 4q0 4 -4 12h-2q0 5 -2 7q-1 2 -3 4q0 2 -2 4l-6 12q0 4 -2 6v4h-2l-24 99q0 4 -4 12q0 3 -3 6q0 4 -4 12 v9h-2v6h-2v8h-2q-2 4 -2 12h-2v4h-4v6q-2 2 -4 2q0 9 -2 11h-2v6h-2q0 9 -4 29q0 4 -2 8q0 2 -2 4q0 4 -2 8q0 8 -3 14v4h-2q-2 4 -2 15h-2v18h-2q-2 4 -2 12q-3 0 -6 3v6h-2v4h-2v8h-2v12h-2q0 5 -4 13q0 4 -4 8q0 6 -4 18q0 6 -2 8q-5 15 -5 21h-2v12h-2v29h-2v12h-4v10 h-2v15h-2v6h-2v6h-2v4q-2 0 -4 2v4h-2v6h-2v4h-2v11h-2v12h-2v6h-2v6h-2q-2 10 -2 31h-2v4h-3v6h-4v4h-2v6h-2v7q0 20 -4 24q4 14 4 15h2v4q4 0 6 2q0 5 3 8q2 2 4 2v4q4 4 6 4v4l6 6v4q1 0 6 5q2 2 2 8l4 2v4q2 2 6 2v4l6 6v4h3v4q2 0 4 2l2 9q1 0 2 1t2 1l2 8q1 1 4 3t4 3 v6q2 0 6 4v4q2 1 5 3t5 3q0 5 2 7q0 2 5 2q0 2 1 4.5t1 3.5l4 4q0 2 2 4v4q2 0 6 4v4h2q4 4 4 6q2 2 6 2v7q0 2 4 2q0 6 4 14q3 0 7 4v4q1 0 2 1t2 1v4q4 4 6 4q2 4 2 11h2q2 2 2 6q4 0 6 2v4q6 6 10 8v4h2v4q2 2 4 2q1 2 2 5.5t1.5 5.5t1.5 4q4 0 4 2q2 2 2 6l6 4l4 8 q0 2 4 2v6h2v5q2 0 6 4v4q1 1 3 2t3 2v4q1 1 3 2t3 2v4l5 2v4q4 4 8 6v4q1 0 6 5v4q2 2 4 2v4q6 6 10 8q0 1 1 3.5t1 4.5q4 0 4 2q4 8 4 13q1 0 3.5 1t3.5 1v4q4 4 6 4v4q4 4 6 4v6q2 0 4 2v4q2 0 6 4v4q2 1 10 9q2 4 2 8h5q0 6 2 8q2 0 4 2v4q2 0 4 2v4q3 3 10 9.5t10 9.5 q13 13 15 16l6 4v4q1 0 2 1t2 1q1 4 4 12.5t4 12.5h2v4l4 2v4q1 0 3 1t3 1q0 5 4 13h2v8h3q0 4 2 6q0 4 2 6q0 4 2 6q0 4 2 6q0 3 4 11q0 1 1 4.5t1 5.5h2v6h2q2 12 2 35h-2v12h-2q0 4 -4 6v4q-1 0 -18 3t-19 3v-2q-4 -2 -14 -2v-2q-1 -1 -4.5 -2t-4.5 -2v-2h-8l-12 -14 q-2 0 -4 -2q-1 0 -3 -1t-3 -1q-13 0 -25 6h-8v-2h-16v-2h-5q0 -2 -2 -4h-4l-2 -4q-3 -2 -8.5 -2.5t-7.5 -2.5q-4 -8 -8 -12h-4q-1 -2 -11 -12q-1 0 -2 -1t-2 -1q-3 -6 -14 -39q-1 0 -3 -1t-3 -1q0 -6 -2 -8q0 -2 -4 -2v-7q-2 0 -4 -2v-4q-3 0 -5 -2l-2 -8q-1 -1 -3 -2t-3 -2 v-4l-4 -2q-2 -4 -2 -10q-4 0 -4 -2q-1 -1 -2 -4t-2 -5h-2q0 -6 -2 -8h-2v-6h-2q0 -6 -4 -8q0 -2 -1 -5t-1 -5q-3 0 -5 -2l-2 -9q-1 -1 -3 -2t-3 -2q-2 -2 -2 -6l-4 -2l-4 -10q-2 0 -4 -2q0 -5 -4 -13h-2q0 -1 -1 -3t-1 -3q-2 -2 -4 -2q0 -2 -1 -4.5t-1 -3.5q-2 -2 -5 -2 q-4 -12 -4 -14l-4 -2v-4q-1 -1 -4 -2.5t-4 -2.5q0 -4 -2 -6q0 -2 -4 -2v-4l-4 -6v-4h-2v-4h-2v-4q-1 0 -2 -1t-2 -1v-4q-2 -2 -6 -5t-5 -4v-4l-4 -4l-4 -8h-2v-4h-2v-4h-2v-4h-2v-6h-2q-4 -4 -6 -5t-4 -0.5t-6 -1.5q-4 -4 -4 -8h-3l-6 -18h-2v-6h-2v-11h-2v-4q-2 0 -4 -2v-4 q-1 0 -2 -1t-2 -1v-4q-1 0 -2 -1t-2 -1q-4 -16 -4 -25q-15 -13 -33 -34h-4q-2 14 -10 34h-4q0 11 -2 15h-2v4h-3v6h-2v4h-2q0 2 -2 4q-1 1 -2.5 6.5t-3.5 8.5q-1 2 -2 7.5t-2 8.5h-2q-2 2 -2 8h-2q-4 10 -11.5 30t-11.5 30q0 4 -4 8q0 1 -1 4t-1 4l-4 2q-2 4 -2 12 q-4 0 -4 2v4q-2 1 -6 4.5t-6 4.5v4q-2 2 -4 2v6h-2l-5 10q0 4 -2 6q0 4 -4 8q0 1 -1 4.5t-1 4.5l-4 2q-4 8 -4 14q-4 0 -6 2v4q-6 6 -10 8v4q-1 0 -2 1.5t-2 1.5q0 6 -4 10q-4 12 -5 14h-2v4q-4 2 -8 6v4q-2 1 -3.5 2t-2.5 2t-2 1v4l-4 4v4q-1 1 -4 3t-4 3v4q-6 3 -11 8v4 q-2 2 -7 6.5t-7 6.5v4q-25 20 -29 24v4q-11 4 -32 25q-1 1 -5.5 5t-9.5 5v6h-2l-16 19h-4q-4 4 -4 6q-4 2 -13 2q0 4 -2 4q-2 2 -8 2q0 1 -1 3t-1 3h-4v2h-4q-7 0 -25 -6q-20 0 -32 -2l-21 -12q-1 -4 -4.5 -9t-3.5 -6l6 -51h2q0 -20 2 -32h2v-5h2q6 -6 8 -12q8 -3 19 -10 q0 -4 2 -4h4q1 -2 4 -6t4 -6h4q9 -9 11 -13h4l8 -8h4q0 -4 2 -4h4v-2l8 -8v-4q5 -1 7 -3t3.5 -6t2.5 -6l8 -4v-4q0 -2 4 -2q0 -6 2 -8q4 -2 10 -8v-4q1 -1 3 -2.5t3 -2.5v-4q2 -1 5.5 -3t5.5 -3v-4l12 -12q0 -1 1 -3t1 -3l6 -4v-5q4 -4 6 -4q4 -8 4 -14q4 0 8 -4v-4 q3 -3 9 -6q0 -4 2 -6t4 -2v-7h2v-6q2 0 4 -2v-4q4 0 4 -2q2 -4 2 -10l6 -4v-4q2 -2 6 -2q0 -7 4 -15q3 0 7 -4v-4h2l2 -14h2v-4h2v-9h2v-4q4 0 4 -2v-4l4 -4v-4h2v-4h4v-4h2v-8q2 0 4 -2v-5h2v-4l4 -4v-4q1 -1 3.5 -2t3.5 -2v-4h2l6 -29h2v-6h2v-4h2q1 -2 2 -6t2 -6h2v-4h2 v-9h2q0 -8 2 -12h2q0 -4 2 -4q0 -2 1 -6t1 -6q2 0 4 -2v-6h3v-7h2v-6h2v-8h2v-6h2v-8h2q0 -14 -6 -23l-4 -4q0 -3 -3 -6q0 -2 -2 -4v-6q-1 0 -2 -1t-2 -1v-6h-2v-7l-6 -6l-8 -8q-2 0 -4 -2v-4q-1 -1 -3 -2t-3 -2v-4q-2 -2 -4 -2v-4q-2 -2 -4 -2q0 -2 -1.5 -5.5t-1.5 -5.5 q-4 0 -4 -2q-2 -2 -2 -8h-2v-4h-2v-4h-2v-4h-4v-4h-2q-3 -12 -6 -21q-2 -1 -5 -4t-5 -4q0 -2 -1 -4.5t-1 -3.5l-4 -2v-8h-3v-4h-2v-7l-4 -2v-6q-1 0 -3 -1t-3 -1v-4q0 -2 -4 -2v-4l-4 -4v-4q-2 0 -6 -4v-7q-1 0 -2 -1t-2 -1l-2 -8l-4 -2v-4h-2v-4h-2v-6l-5 -4v-4q-1 0 -3 -1 t-3 -1v-4q-1 -1 -3 -2.5t-3 -2.5v-4q-4 -4 -6 -4v-4l-6 -6v-4q-4 0 -4 -2q-4 -8 -4 -12q-5 -5 -9 -5v-6h-2v-6h-2v-4h-2v-4l-4 -4v-4q-1 0 -2 -1t-2 -1v-4h-2q0 -7 -4 -11q0 -4 -2 -6q-2 -4 -2 -12l-4 -2v-4l-4 -2v-4q-2 -2 -6 -2v-4q0 -3 -5 -3v-6h-2v-4h-2v-4h-2v-4l-4 -4 v-4q-2 -2 -4 -2q0 -1 -1 -3t-1 -3l-6 -6v-5q-4 0 -4 -2q-2 -2 -2 -6h-4q0 -6 -2 -8l-7 -4v-4l-10 -10v-4l-4 -5v-4h-2v-4h-2v-4q-4 -4 -6 -4v-4q-2 -2 -6 -2v-6h-2q0 -4 -2 -6q-2 0 -4 -2v-5q-3 -2 -8.5 -7t-8.5 -7q-2 -4 -2 -10q-4 0 -4 -2v-4q-2 -1 -5 -3t-5 -3v-4 q-2 -3 -4 -5q-1 0 -2 -1t-2 -1q0 -2 -1 -5.5t-1 -4.5l-7 -6v-6h-2v-4l-4 -2v-4h-2q-1 -1 -4.5 -5.5t-5.5 -5.5q-2 -2 -3 -2t-3 -2h-4q-2 -6 -8 -12v-4l-19 -14v-5l-10 -10v-4q-2 0 -4 -2v-6h-2q0 -2 -1 -5t-1 -5q-2 -2 -6 -5t-5 -4q-2 -2 -2 -6h-6q-1 -1 -3.5 -4.5 t-4.5 -5.5h-4q-1 -1 -3 -4t-3 -4h-4q-2 -2 -2 -4q-2 -2 -6 -2v-2h-7q0 -4 -2 -4q-2 -2 -6 -2q0 -5 -4 -9h-4q-6 -6 -8 -10h-4l-4 -4h-7v-2h-4v-2h-4l-2 -4q-2 -2 -8 -2l-2 -4l-14 -6q0 -3 -2 -5h-4q-1 -2 -3 -4h-4v-2h-6q0 -1 -1 -2t-1 -2h-4q-2 -2 -2 -4h-4q-2 -2 -2 -4h-6 q0 -4 -2 -4h-4v-2h-4l-3 -4h-4v-4h-4q-4 -4 -4 -6q-4 0 -6 -2v-5q-8 -2 -14 -14t-8 -14v-27h2l6 -10h4l24 -29h7v-2h26v-4h10v-2h2v2h9v4q6 0 10 2v2h4q0 2 2 4q4 0 12 4q2 2 2 5q2 1 7 2t8 2q0 4 2 4h4q0 4 2 4h4v2q2 2 8 2v2q1 1 3 2t3 2q2 0 2 4h4v2q7 0 9 2q0 2 2 4h4 q1 1 2 3.5t2 3.5h4v2h4l2 4q4 2 8 2v2q4 2 9 2q0 4 2 6q6 0 8 2t2 4q4 0 6 2q4 4 4 6h4l6 6h4q2 4 7 9h4l2 4q1 1 4 2t4 2q2 0 2 4h4l10 10h4q0 2 2 4q3 0 7 4h4l4 6h4l6 13q2 1 5 3t5 3q0 2 2 4h4q2 2 6.5 7t6.5 7q4 4 6 4v7h2l6 6q3 0 6 6h4q2 3 15 16q4 4 6 4v6 q2 1 5 3.5t5 3.5v4q6 6 10 8v4q4 4 12.5 11.5t12.5 11.5v4q4 4 8 6v4q1 1 4 3t4 3q0 2 1 5t1 5q2 0 6 4v4q1 1 3 2.5t3 2.5v4q2 1 5 2t4 2v4h2v4z" />
<glyph unicode="y" d="M891 989v-4h-2v-6q-2 0 -4 -2v-4q-8 -8 -24.5 -23.5t-24.5 -23.5v-4q-9 -9 -13 -11v-6q-8 -4 -14 -10v-4q-1 -1 -3 -2t-3 -2v-4q-8 -8 -10 -9v-6q-5 0 -5 -2v-4q-2 0 -6 -4v-4q-3 -2 -9 -7t-9 -7v-4q-1 -1 -3 -3.5t-3 -3.5q0 -1 -1 -3t-1 -3q-4 0 -4 -2v-4l-4 -2 q-3 -3 -3 -8q-2 -2 -6 -2q0 -4 -2 -6l-6 -6v-5q-2 0 -6 -4v-4q-1 -1 -3 -2t-3 -2v-4q-4 -4 -6 -4v-4l-4 -2q-2 -2 -2 -8h-5v-4q-2 0 -4 -2v-5q-1 -1 -3 -2t-3 -2v-4q-4 -4 -6 -4l-14 -20h-13v2q-3 3 -5 9.5t-5 10.5q0 11 -2 17q0 12 -2 18q0 4 -2 6q0 3 -1 11t-1 12h-2v6h-2 v12h-2v6h-2q-2 4 -2 8h-4v9h-2v4h-2q0 10 -2 14h-3v4q0 2 -4 2q0 2 -4 10q0 1 -1 5t-1 6l-8 6q-2 2 -2 8h-2v12h-2v4h-4v7h-2v10h-2v6h-2q0 10 -2 16h-2q-6 12 -7 13q0 1 -1 4t-1 4q-2 2 -4 2q-2 4 -2 10h-2v8h-2v8h-2v9h-2v8h-4v6h-2q0 7 -4 23h-2q0 5 -6 14q0 8 -4 24 l-3 5q-2 6 -4 10v6h-2v16h-2v13h-2v20h-2v14h-2v17h-4v6h-2v18h-2v80h-2q0 9 -2 13h-2q0 2 -2 4q0 4 -2 6v28q0 1 -1 2q-1 0 -1.5 1.5t-1.5 3.5q-6 2 -15 2q-3 0 -30 -9h-11v-2h-6v-2h-6v-2h-4v-2h-4l-2 -4h-4v-2h-4v-2h-9q0 -4 -2 -6h-4l-1 -3q-1 -3 -5 -5q0 -5 -4 -17 q0 -8 -2 -14q0 -6 2 -10q0 -6 2 -10q0 -5 2 -5q0 -10 2 -16v-14h2q0 -13 -2 -21h2v-6h2q2 -6 2 -16h2v-8h2q1 -9 2.5 -27t2.5 -27h2v-6h2v-4h2v-6h2v-4h2q0 -11 4 -27q0 -4 2 -6q0 -4 2 -6q0 -10 2 -14q4 -16 4 -23h2v-8h2v-8h2q2 -4 2 -13h2v-4h4v-6h2v-6h3q0 -15 2 -21h2 q0 -6 4 -8q0 -6 2 -8q0 -4 2 -6q0 -6 2 -10q0 -6 2 -8q0 -2 1 -5t1 -4h2q4 -20 4 -26h2q2 -4 2 -9q2 -2 6 -2v-6h2v-4h2q0 -10 7 -20q0 -3 4 -11q0 -2 2 -4q1 -6 4 -18t4 -18h2v-5h2q2 -6 5 -18t5 -18h2v-5h2v-6h2q0 -8 2 -10q0 -4 2 -4q0 -8 5 -33q0 -6 2 -8q0 -17 2 -25 v-53h2v-12h2v-2h-2v-10h-2q0 -21 -2 -31v-8q-2 -2 -4 -2v-4q-2 -2 -5 -2q-12 -17 -12 -19q-3 -1 -4.5 -24t0.5 -27h4v-6h2v-10h2v-11h2q0 -14 2 -22h2q8 -16 2 -27q0 -4 -2 -8v-12h-2v-11h-2v-4h-2q-2 -4 -2 -14h-2v-4h-4q0 -10 -2 -14h-2v-5h-2q-4 -20 -8 -30q0 -4 -4 -8 q0 -5 -2 -7q0 -4 -2 -6q-3 -6 -3 -12h-2q-2 -2 -2 -8h-2q-2 -4 -2 -10h-4q0 -11 -4 -31h-2q0 -6 -2 -8h-2q-5 -19 -6 -21q0 -4 -2 -6q0 -4 -2 -4q0 -4 -2 -6v-8h-2v-7h-2v-14h-2v-8h-3v-6h-2q-1 -1 -2 -5t-2 -6h-2v-4h-2q0 -8 -4 -24h-2q0 -6 -6 -12q0 -3 -2 -5q0 -2 -2 -4 q0 -4 -2 -4q0 -4 -2 -6v-8h-2v-6h-2v-6h-2v-4l-4 -3v-4h-5v-12h-2v-6h-2v-8h-2v-8h-2v-5h-2l-2 -14h-2v-4h-2v-8h-2v-6h-2v-4h-2v-13h-2v-6h-2v-4h-2q-2 -4 -2 -12h-2v-4h-4v-11h-3q0 -4 -4 -12h-2v-4h-2q0 -6 -4 -10q0 -4 -2 -4q-2 -4 -4.5 -10.5t-4.5 -10t-7 -6.5 q0 -10 5.5 -16t6.5 -8q1 -3 1.5 -15.5t2.5 -15.5v-4q4 0 6 -2l17 -17h4v-2h4v-2q2 -2 4 -2t4 -2h10q4 4 4 6l21 6q1 2 4 5.5t4 5.5q2 2 6 2q4 12 4 16q5 0 9 4l6 8q1 0 2 1t2 1v4q3 3 4 3v4h2v8h2v6h2v6h2v10h2v6h2q2 4 2 13h4v4h2v6h2q0 12 2 18h2v9h3q0 2 2 4l6 12 q0 8 2 12q0 7 2 9t2 8h2v6h2q2 8 2 22h2q1 2 3 6.5t3 6.5h2v4h2q0 12 6 24t7 13q0 8 2 10q0 4 2 6q2 4 2 10h2q2 4 2 13h2q2 6 2 18h2v4h4v6h2v4h2v6h2v13h2v8q2 0 4 2v6h2v8h2v9h2v14h3q0 1 1 3.5t1 4.5l4 2v4h2q2 4 2 12h2v9h4v6h2v6h2v8h2v4h2q0 13 2 19q2 0 4 2l6 18 q0 4 2 4l5 15h2v8h2v6h2v6h4v8h2v4h2q0 15 2 21h2v6h2q0 4 2 8q0 4 2 6q0 2 2 4q0 7 4 15q0 4 2 4q2 8 6 20h3v11h2v4h2v10q4 0 6 2v4h2v4h2v6h2v4h2q0 5 4 13v26q-6 19 -2 27q0 1 1 4t1 4q1 0 2 1t2 1q0 2 1 4.5t1 3.5l4 2v7q4 0 4 2q2 2 2 8q1 0 3.5 1t3.5 1v4h2v4 q2 2 4 2v4q0 2 4 2v4l4 4q1 2 2 6.5t2 6.5l6 4v4l4 2q2 4 2 8q4 4 8 4q0 4 3 10h2v5q2 2 4 2q0 1 1 3t1 3l6 4q0 1 1 3t1 3h4q1 5 14 18h2v5l7 4v4q0 2 4 2v4q4 4 6 4v6q2 0 6 4q2 2 2 8l4 2v5h2l4 6q0 2 4 2v4l6 6v4q1 1 4.5 3t4.5 3v4q1 0 2 1t2 1v4l4 2q2 4 2 9l4 2l4 10 q2 0 4 2q0 4 2 6h2l4 8h4v2l19 19v4l18 14v4l9 6v7q4 0 4 2q4 4 4 6h6q1 1 3 4t3 4h2v4q4 4 6 4v4l6 6v5q4 3 11.5 9t11.5 9v4q1 1 4 3t4 3v6q1 1 4 3.5t4 3.5v4q4 3 12.5 10t12.5 10q0 6 2 8l8 6q0 1 1 4.5t1 4.5l4 2q2 2 2 6h2q2 4 2 8l6 4v4q3 0 5 2v4h2v6h2v5h2v4 q1 1 4 3t4 3v6q2 0 4 2v4q4 0 4 2q2 2 2 6h2v6h2v5q2 2 6 2q0 8 2 12q3 0 5 2q0 4 2 8l6 4v2q1 0 2 1t2 1v4q4 4 6 4v5h2v6h2v4h2v4h4v4h2v4h2q0 4 4 12h2v19h2q0 6 3 12q0 4 2 6q0 4 2 6q0 1 1 5t1 6q0 10 -4 24t-7 17l-6 8q-3 0 -10.5 1t-11.5 1q-26 0 -39 -8h-4 q-4 -4 -4 -6q-3 -3 -6 -3l-17 -18q-4 0 -8 -4q-1 0 -2 -1t-2 -1v-4q-4 -4 -6 -4v-4q-4 -4 -8 -4l-7 -29h-2v-6h-2v-9h-2v-4h-2v-4q-2 0 -6 -4v-4l-4 -4v-4h-2v-4h-2q-2 -2 -2 -8q-4 0 -4 -2v-5q-4 0 -6 -2v-4q-1 -1 -3.5 -2t-3.5 -2v-4h-2q0 -1 -1 -3t-1 -3q-2 -2 -4 -2v-4 l-8 -8v-4q-4 0 -4 -2v-5q-3 -2 -8 -6t-8 -6q0 -2 -1 -4t-2 -5t-2 -5q-2 0 -4 -2v-4q-2 -2 -7 -6.5t-7 -6.5v-4z" />
<glyph unicode="z" d="M471 422v-4q-4 0 -4 -2l-6 -13q-4 -4 -6 -4q0 -6 -2 -8l-7 -6v-6l-8 -6v-4l-4 -2q-2 -2 -2 -7h-2v-4q-2 -2 -6 -2q0 -6 -2 -8q-4 -4 -8 -6v-4q-1 0 -2 -1t-2 -1v-4q-1 0 -2 -1t-2 -1v-4q-2 -2 -5 -2v-5h-2v-6h-2l-6 -20l-8 -4v-4q-1 -1 -3.5 -4t-4.5 -5v-4q-2 0 -6 -4 l-2 -8q-1 -1 -3.5 -2t-3.5 -2v-4h-2q-2 -4 -2 -12q-3 0 -8 -5v-4q-4 -4 -8 -6v-4q-1 -1 -3 -2t-3 -2v-4h-2v-4h-2v-8q-3 -3 -5.5 -6.5t-6 -8.5t-5.5 -8h-24q-4 -2 -8 -2q-13 -13 -15 -16h-4q-2 -2 -2 -4h-4q-5 -5 -10 -15h-4q-1 -2 -17 -18q0 -2 -2 -4q-1 -1 -2 -3t-2 -3 l-6 -5q-2 -4 -2 -10h-2q0 -9 2.5 -14t3.5 -8h4q1 -7 12.5 -15t20.5 -10q-2 -6 -2 -20h2q0 -4 2 -6q0 -9 2 -13l4 -8v-4q1 0 2 -1t2 -1q4 -8 4 -12h2q2 -2 6.5 -7.5t6.5 -7.5l16 -4v2q4 2 12 2v2h15v-2q2 2 6 2v-2h2v2h10v2h4v2l4 2t3.5 1.5t3.5 1.5t3 2q1 2 3 4h4q2 2 2 4h4 v2q4 2 8 6v4l4 2q2 4 6 8q11 0 17 -4v-2h6v-2h4v-2q6 0 10 -2q4 0 8 -2q6 0 8 -2q5 0 7 -2q4 0 8 -4h6q4 -8 8 -10l10 -5v-2q13 0 21 -2v-2q4 0 8 -2v-2q4 0 6 -2q4 0 8 -4q5 0 7 -2q12 -4 14 -6h8v-2h4v-2q4 -2 12 -2v-2h11q0 -4 2 -6h8v-3h4v-2q8 0 10 -2v-2h4v-2 q3 0 11 -4q4 0 12 -4q2 0 4 -2q2 0 6 -1t6 -1v-2h8q0 -4 3 -4q2 -2 8 -2v-2l12 -6v-2h6v-2h6v-3q7 0 13 -6q4 0 6 -2q2 -1 6 -2t6 -2l4 -4h4v-2h4v-2h6v-2l13 -6v-2q6 0 10 -2q0 -2 2 -4q4 0 8 -2q0 -1 1 -2.5t1 -2.5h4v-2q2 -1 7.5 -2t7.5 -2q2 -2 2 -4h6q4 -8 8 -10h4 q0 -1 1 -3t1 -3q4 0 6 -2v-2h4v-2q6 0 15 -6q2 0 8 -3q6 0 8 -2q4 0 6 -2q6 0 8 -2h19v-2h2v2q6 0 8 2h8q12 8 15 11v8h2v10h2v6q1 0 2 1t2 1q0 2 4 6q0 2 2 4v5h2v8h2v6h2q2 3 1 10.5t1 9.5v21q-14 14 -22 20q-4 2 -8 2l-5 5h-4l-4 6h-4v2h-4q-2 2 -2 4h-4l-4 4h-4v2h-4 q-1 1 -2.5 2t-2.5 2h-4v2q-2 0 -6 1t-6 1l-2 4h-4v2h-4v2h-4l-6 4h-4q0 4 -3 7h-4q-4 4 -6 8l-8 2q-2 2 -2 4h-4l-6 4h-4v2h-4q0 4 -2 4h-5v2h-4v2h-6q-5 3 -14 9.5t-14 9.5h-7v2h-6q-2 2 -2 4h-10v2h-4v2q-4 2 -12 2v2q-2 2 -9 2v2h-6v2q-2 1 -5 2t-5 2v2q-6 0 -10 2v2h-8 v2q-6 0 -9 5q-6 0 -8 2q-2 0 -4 2q-1 0 -10.5 2t-14.5 4h-6v2l-18 6v2h-4v2q-4 1 -12.5 3t-12.5 3v2h-4v2h-6v2h-4v2q-6 0 -8 2q-6 0 -8 2q-3 0 -9 3q-4 0 -6 2q-6 0 -8 2q-4 0 -4 2h-4v2h-6v2h-6v2q-2 2 -9 2v2h-6v4h-4v2h-6v2q-10 0 -16 2v2l-2 4q5 2 12 17v8q4 0 8 4 q0 4 4 12l6 4v4l4 5v4h2v6q2 0 4 2q6 8 9 22q4 4 8 4q0 7 2 11q2 0 4 2v4q2 0 4 2v4q1 1 3 2t3 2v4h2q0 2 1 5.5t1 4.5l6 7q3 3 3 8q1 1 4 2t4 2v4h2v4q4 4 6 4v4l4 4v6h2v5q2 0 6 4q8 20 10 32q4 0 9 5q0 6 2 8l6 4q0 4 2 4v4q2 2 4 2v6q2 0 4 2v6h2v5h2v6h2q4 8 4 12 q2 2 6 2v6h2q0 6 3 12q2 2 4 2q0 7 2 9q4 4 6 4v4l10 10v4l4 2q2 2 2 8q1 0 3 1t3 1q0 7 2 9q7 7 9 8l4 8q0 1 1 3t1 3q1 0 2 1t2 1v4q4 4 6 4q2 4 5 13t5 14l6 4q0 4 2 6q0 2 5 2l4 17q2 0 6 4q2 4 2 14l4 2v4q4 4 8 6v5q4 2 12 10q1 2 2 6t2 6q4 4 7 4v6q4 0 4 2v4 q4 0 4 3v4h2l4 6q2 2 4 2v4q8 8 12 10v6q2 0 4 2q0 1 5 6v5q4 2 8 6l12 30h2v5q1 1 3 2t3 2v4q2 2 4 2v4h2q0 2 1 5t1 5h2q2 4 2 16l5 3v4q2 1 5 3t5 3v8h2v4h2v6q1 1 4 3t4 3v4q5 5 6 5v4l4 4v4q4 0 4 2l7 12q1 1 3 2t3 2q0 3 4 15q2 0 4 2v4l4 4v4q1 1 3 2t3 2v4h2v4h2v6 q1 1 3 3.5t3 3.5v4l7 4v4h2v4q2 2 4 2v4l4 4l6 21q1 1 3 2t3 2q2 2 2 8q4 4 6 4l4 6l4 4q0 2 3 8q1 0 6 5l6 12v4q2 2 4 2v4l4 4q2 2 2 8q4 0 4 2v4q1 0 3 1.5t3 1.5q0 4 2 6q2 3 11 8v6q2 0 4 2q0 1 3.5 9.5t4.5 13.5l4 2v4l4 2q4 6 12 14h4v2q3 2 7 6q0 4 2 6q0 5 2 7v8h2 q0 1 1 4.5t1 5.5q0 21 -6 33v6q-1 0 -2 1t-2 1v4h-3v4l-4 4v4q-1 1 -3 3.5t-3 3.5v4q-4 0 -8 2q0 2 -2 4h-4q0 2 -2 4h-6v2h-4q0 1 -1 2t-1 2q-5 0 -9 4q-4 2 -10 2v2h-6v2h-4v2h-6v2h-4v4q-9 0 -11 2v3q-10 0 -14 2v2h-4v2q-4 0 -6 2q-4 0 -8 4q-4 0 -6 2q-5 0 -7 2 q-2 0 -6 1t-6 1v2q-2 2 -8 2v2q-4 2 -12 2v2h-7v4h-6v2q-6 1 -41 6v3q-1 0 -4 1t-4 1q0 1 -1 2t-1 2h-4v2q-2 0 -10 4q-12 4 -19 4v2h-4v2h-6v2h-4v4h-8v2q-6 0 -10 2v2h-5v2h-6v2q-4 0 -4 2q-1 0 -16 5h-4q0 1 -1 2t-1 2l-39 8v2h-4v2h-6v2q-2 1 -5 2t-4 2v2h-8v2h-6v2h-6 v2h-8v2q-7 0 -9 2q-6 0 -8 2q-4 0 -8 2q-10 0 -14 2q-5 0 -8 3q-9 0 -13 2h-10v2h-10v2h-15v2h-12v2h-8v2h-8v4h-35q-71 0 -94 -14l-13 -17v-4h-2v-6q-4 0 -4 -2v-4q-4 0 -6 -2v-2q-2 0 -4 -2h-4q0 -2 -2 -4h-4v-2l-8 -7v-4l-4 -2v-4h-2v-8h-3v-14q0 -22 7 -31q2 -2 4 -2v-4 h2l6 -10q3 -3 6 -3v-2h4v-4q24 -8 43 -4v2l12 6v2q6 0 9 3q2 2 2 4h4v2h12q12 4 21 4q7 0 19.5 -3t14.5 -3h13v-2q14 -2 39 -2v-3h10v-2h4v-4q8 0 12 -2v-2q19 0 27 -2v-2h6v-2q2 0 4 -2q4 0 6 -2q5 0 17 -4q2 -1 6 -2t6 -2v-2q6 -2 16 -2v-2q4 -2 13 -2v-2h4v-2 q3 -1 10 -3.5t10 -3.5v-2h8v-2h4v-2h7v-2q4 0 12 -4q4 0 4 -2q1 0 10.5 -2t14.5 -4q2 -2 8 -2v-2h6v-2h6v-2q4 -2 12 -2v-4h4v-2q7 0 13 -3v-2h4v-2q12 0 18 -4q2 0 10 -4q5 0 9 -4q3 0 7.5 -1t6.5 -1v-2q2 -2 8 -2v-2h4v-2q3 -1 10.5 -3t10.5 -3v-2h4q2 -2 2 -4h4v-3h4 l4 -4l-10 -10q0 -6 -4 -18q-4 -8 -4 -13h-2v-4l-4 -2v-4q-8 -4 -9 -4v-4h-2q0 -6 -2 -10h-2q0 -4 -2 -6q0 -2 -1 -5.5t-1 -5.5q-2 -2 -4 -2v-4h-2v-4h-2v-6l-4 -4v-4l-4 -2v-4q-2 -1 -5 -3t-5 -3q0 -2 -5 -17q-2 0 -6 -4q-1 -4 -4 -11t-4 -11l-4 -3q-4 -8 -4 -14q-4 0 -8 -4 v-4l-4 -4v-4h-2v-4h-2v-4q-2 -2 -5 -2q0 -3 -4 -11q0 -4 -4 -8q0 -4 -2 -6v-4h-2v-4q-4 -4 -6 -4v-7q-4 0 -8 -4v-4q-2 0 -4 -2v-4l-4 -4v-4h-2v-4h-2v-4h-3v-6q-2 0 -4 -2q0 -1 -1 -4t-1 -5q-4 -2 -10 -8v-4q-2 -1 -5 -3t-5 -3v-4l-6 -6v-4q-2 0 -4 -2l-2 -9q-1 0 -2.5 -1 t-2.5 -1v-6h-2q-2 -4 -2 -8h-2v-8h-2q-2 -2 -2 -8h-4q0 -7 -2 -9t-4 -2q0 -4 -2 -6q-4 -4 -6 -4v-6q-2 0 -4 -2v-4l-4 -4v-4h-2v-4h-2q-3 -3 -3 -7l-4 -2l-4 -10q-2 0 -4 -2v-4q-2 0 -4 -2v-6h-2v-4h-2v-4h-2v-4h-2q0 -2 -1 -5t-1 -4l-4 -4q0 -1 -1 -3.5t-1 -4.5 q-6 -3 -11 -8v-4q-1 0 -3 -1t-3 -1v-4q-5 -5 -6 -5l-6 -20q-1 -1 -3 -2t-3 -2v-6h-2q-2 -4 -2 -8l-6 -7q-2 -2 -2 -8q-2 -1 -5 -2t-4 -2q0 -4 -4 -12h-2l-4 -8h-4q-1 -5 -2.5 -7t-4.5 -4t-5 -4l-15 -14q0 -2 -4 -2q0 -2 -1 -5t-1 -5q-2 0 -6 -4v-4q-1 0 -4 -3v-4l-4 -2v-4 h-2q-2 -4 -2 -12h-2q-2 -2 -10 -6v-2h-5l-4 -4q-1 -5 -4.5 -13.5t-3.5 -9.5h-2v-6z" />
<glyph unicode="&#xa0;" />
<glyph unicode="&#x2000;" horiz-adv-x="785" />
<glyph unicode="&#x2001;" horiz-adv-x="1571" />
<glyph unicode="&#x2002;" horiz-adv-x="785" />
<glyph unicode="&#x2003;" horiz-adv-x="1571" />
<glyph unicode="&#x2004;" horiz-adv-x="523" />
<glyph unicode="&#x2005;" horiz-adv-x="392" />
<glyph unicode="&#x2006;" horiz-adv-x="261" />
<glyph unicode="&#x2007;" horiz-adv-x="261" />
<glyph unicode="&#x2008;" horiz-adv-x="196" />
<glyph unicode="&#x2009;" horiz-adv-x="314" />
<glyph unicode="&#x200a;" horiz-adv-x="87" />
<glyph unicode="&#x202f;" horiz-adv-x="314" />
<glyph unicode="&#x205f;" horiz-adv-x="392" />
<glyph unicode="&#x25fc;" horiz-adv-x="1382" d="M0 1382h1382v-1382h-1382v1382z" />
</font>
</defs>
</svg>
